<?xml version="1.0" encoding="utf-8"?>
<!-- Generator: Adobe Illustrator 22.1.0, SVG Export Plug-In . SVG Version: 6.00 Build 0)  -->
<svg version="1.1" id="Layer_1" xmlns="http://www.w3.org/2000/svg" xmlns:xlink="http://www.w3.org/1999/xlink" x="0px" y="0px"
	 viewBox="0 0 460.5 510.6" style="enable-background:new 0 0 460.5 510.6;" xml:space="preserve">
<style type="text/css">
	.st0{fill:url(#air_1_);}
	.st1{fill:#2B3233;}
	.st2{fill:#FFFFFF;}
	.st3{fill:#BBF1FF;}
	.st4{opacity:0.59;fill:#222526;enable-background:new    ;}
	.st5{fill:#ABC2C6;}
	.st6{fill:#F2F8F9;}
	.st7{fill:#CAD9DD;}
	.st8{fill:#BCC7CE;}
	.st9{fill:#393A3D;}
	.st10{fill:#F8F8F8;}
	.st11{fill:url(#Shape_8_);}
	.st12{fill:#212223;}
	.st13{fill:#F34747;}
	.st14{fill:#F36847;}
	.st15{fill:#F39947;}
	.st16{fill:#F3C347;}
	.st17{fill:#DDE3E8;}
	.st18{fill:#9AA7AF;}
	.st19{fill:#DAE9EF;}
	.st20{fill:#3A97FF;stroke:#F8F8F8;stroke-width:3;}
	.st21{fill:#CCDFE5;}
	.st22{fill:#F9F9F9;stroke:#FFFFFF;stroke-width:2;}
	.st23{fill:#3A97FF;}
	.st24{opacity:0.46;}
</style>
<linearGradient id="air_1_" gradientUnits="userSpaceOnUse" x1="37.1719" y1="463.9345" x2="294.2312" y2="188.2676" gradientTransform="matrix(0.9916 0.1297 -0.1297 0.9916 24.9677 11.1928)">
	<stop  offset="0.2174" style="stop-color:#FFFFFF;stop-opacity:0"/>
	<stop  offset="1" style="stop-color:#E9F8FF;stop-opacity:0.9"/>
</linearGradient>
<path id="air" class="st0" d="M195.3,253.9C176.4,285.5-4.5,367.8-18.7,369L86.5,516.4c56.2-23.9,173-118.8,203.1-223.3
	C304.3,242.3,195.3,253.9,195.3,253.9z"/>
<g id="earnie">
	<g id="rocket" transform="translate(79.000000, 56.000000)">
		
			<ellipse id="Oval" transform="matrix(0.4057 -0.914 0.914 0.4057 -99.6959 277.9412)" class="st1" cx="163.9" cy="215.6" rx="17.7" ry="51.5"/>
		<polygon id="Shape_1_" class="st1" points="118.1,189.5 116.5,195.3 210.6,237.1 213.9,232 		"/>
		
			<ellipse id="Oval_1_" transform="matrix(0.4057 -0.914 0.914 0.4057 -89.3969 276.2915)" class="st2" cx="167.8" cy="206.9" rx="18.6" ry="54.3"/>
		<path id="Shape_2_" class="st2" d="M258.6,147.1c11.1-36.1,9-75.7-24.2-90.4c-33.5-14.9-64,7.1-85.2,41.9s-31.4,86.9-31.4,86.9
			l99.3,44.1C217.1,229.5,249.1,177.9,258.6,147.1z"/>
		<path id="Shape_3_" class="st3" d="M260.9,139.1c0,0.1,0,0.1-0.1,0.1c-1.5,3.3-5.4,5.2-11,5.9c-11.7,1.5-30.8-2.5-50.7-11.3
			s-35.5-20.3-42.3-29.9c-3.3-4.7-4.5-9-3-12.4c0.4-0.9,0.9-1.6,1.6-2.3c7.5-7.6,33.1-4.6,60.2,7.5s46.4,28.9,45.9,39.6
			C261.5,137.3,261.3,138.3,260.9,139.1z"/>
		<path id="Shape_4_" class="st4" d="M260.7,139.3c-1.5,3.3-5.4,5.2-11,5.9c-20.8,0.6-35.4-4.5-50.7-11.3
			c-15.7-7-32.6-16.4-42.3-29.9c-3.3-4.7-4.5-9-3-12.4c0.5-0.8,1-1.5,1.6-2.3c20.7-29.2,48.7-46.1,79.1-32.6
			c29.9,13.3,34.6,46.7,27.1,79.6C261.2,137.3,261,138.3,260.7,139.3z"/>
		<path id="Shape_5_" class="st5" d="M152.7,128.5l-22.9,51.7c0,0-22.8,5.6-29.9,5.3c-3.6-0.1,12.1-43.1,19.9-46.3
			C131.6,134.4,129.8,134.6,152.7,128.5z"/>
		<path id="Shape_6_" class="st6" d="M159.2,131.1l-22.9,51.7c0,0-29.3,2.9-36.4,2.7c-3.6-0.1,18.6-40.5,26.4-43.7
			C138.1,137,136.3,137.2,159.2,131.1z"/>
		<path id="Shape_7_" class="st7" d="M152.7,128.5l6.5,2.6c0,0-26.4,6.5-34.6,11.8c-2.7,1.8-6.3,7-12.3,16.1
			c-4.8,7.4-13.6,23.7-12.7,26.2c0,0-1.7-1.6,5.9-21.4c6.6-17,11.4-23.1,14.3-24.5C130.4,134,152.7,128.5,152.7,128.5z"/>
	</g>
	<path id="r-leg" class="st8" d="M298.2,280.1c7.9-11.9,14.4-13.7,17.9-8.6c3.5,5.1,4,13.2-3,27.3c-7.6,15.4-17.1,21.1-27.4,27.7
		c-4.9,3.2-8.7,0-7.5-6.5C279.5,313.5,283.3,302.5,298.2,280.1z"/>
	<path id="r-arm" class="st8" d="M344,203.9c8.1-1.4,11.1,9.3,10.5,16c-0.9,10.4-5.2,26.5-8.7,36.4c-4.3,11.9-1.4,10.6-4.5,15.2
		c-2.1,3.1-7.5,0.8-8.8-4.5c-4.8-19.6-8.6-34.2-1.9-49.6C334.7,208.2,337.4,205,344,203.9z"/>
	<g id="body">
		<path id="Shape_9_" class="st9" d="M313,265.3c-1.8-1-3.7-0.1-4.4,1.7c-0.1,0.2-0.1,0.4-0.2,0.6c0,0.3-0.1,0.6-0.1,0.9l-1.2,10.2
			c-0.1,0.7,0.3,1.3,0.8,1.8c1.4,1.3,3.1,0.3,4.4-2.3l3.1-6.5C316.3,269.2,315.1,266.3,313,265.3z"/>
		
			<image style="overflow:visible;opacity:0.3;enable-background:new    ;" width="166" height="192" id="Bitmap" xlink:href="55A77F2DF9938032.png"  transform="matrix(0.5998 0.2662 -0.2662 0.5998 254.6012 159.4844)">
		</image>
		<path id="Shape_11_" class="st10" d="M346.7,210.8c0,0-24,49.1-24.9,50.8c-4.3,7.3-10,13.6-16.8,18.5
			c-11.8,8.6-26.6,13.6-41.2,12.5c-7.4-0.5-14.6-2.6-21-6.3c0.6-0.7,1.1-1.5,1.6-2.3c4.9-8.4,2.6-18.7-4.7-22
			c-4.9-2.2-10.4-0.3-14.1,4c-2.9-8-3.3-17.4-0.2-27.3c0.3-0.8,0.5-1.5,0.8-2.2c0.5-1.4,1-2.9,1.7-4.2l5.2-13.3
			c-0.4,2.3,0.2,4.5,2.8,7c4.2,3.4,10.6,2,14.1-3.9c3.7-6.4,1.9-14.3-3.6-16.8c-5.2-2.3-7.4,0.1-9.3,3.9c4.7-10,15.1-19.2,26-18.3
			l78.8,10.9c3.4,0.3,6,3.3,5.7,6.7C347.2,209.4,347,210.1,346.7,210.8z"/>
		<path id="Shape_12_" class="st8" d="M345.9,207.2c-1.1,6.9-19.1,12-43.7,11.2c-29.9-1-57.9-10-56-19.9c1.9-9.9,32-13.8,61.2-9.6
			C331.4,192.4,347,200.3,345.9,207.2z"/>
		<path id="Shape_27_" class="st9" d="M235.1,213.2c0.4-0.9,0.8-1.8,1.2-2.7c-0.2,0.4-0.4,0.9-0.6,1.3l-3,8.1
			C232.9,217.7,234.1,215.6,235.1,213.2z"/>
		<path id="Shape_28_" class="st9" d="M314.7,255.6c-5.7,12.6-19,22.4-30.5,21.8c-12.6-0.6-18.3-12.8-11.9-27.4
			c6.4-14.5,21.9-24.1,33.6-21.5C316.8,231,320.4,243.1,314.7,255.6z"/>
		
			<image style="overflow:visible;opacity:0.25;enable-background:new    ;" width="60" height="74" id="Bitmap_3_" xlink:href="55A77F2DF9938036.png"  transform="matrix(0.5789 0.2569 -0.2569 0.5789 286.5612 222.9755)">
		</image>
		
			<linearGradient id="Shape_8_" gradientUnits="userSpaceOnUse" x1="-9.6294" y1="664.9629" x2="-9.6294" y2="663.9919" gradientTransform="matrix(31.0766 13.7929 17.0383 -38.3887 -10726.5586 25895.2246)">
			<stop  offset="0" style="stop-color:#83C0FE"/>
			<stop  offset="1" style="stop-color:#65AEFE"/>
		</linearGradient>
		<path id="Shape_29_" class="st11" d="M313,257c-4.3,9.6-15,16.8-24.5,16.1c-10.3-0.8-15.3-10.4-10.4-21.5s17.4-18.1,27.1-15.8
			C314.1,237.9,317.3,247.4,313,257z"/>
		<path id="Shape_30_" class="st2" d="M312.9,257.4c-1,2.3-2.4,4.3-3.9,6.3c-1.6,1.9-3.4,3.7-5.4,5.1c-2,1.5-4.2,2.7-6.6,3.7
			c-2.4,0.9-4.9,1.5-7.5,1.5c-2.6,0.1-5.2-0.5-7.6-1.7c-2.4-1.3-4.3-3.2-5.4-5.6c-1.1-2.4-1.5-5-1.3-7.6c0.2-2.5,0.9-5.1,1.9-7.4
			c2.1-4.7,5.4-8.6,9.6-11.6c2.1-1.5,4.4-2.7,6.7-3.5c2.4-0.9,5-1.3,7.6-1.3s5.2,0.7,7.4,2s4,3.3,5,5.6c1,2.4,1.4,4.9,1.2,7.3
			C314.5,252.7,313.9,255.1,312.9,257.4z M312.9,257.4c1-2.3,1.6-4.7,1.9-7.2c0.2-2.5-0.3-5-1.3-7.3c-1-2.3-2.8-4.2-5.1-5.4
			c-2.3-1.1-4.7-1.7-7.2-1.6c-2.5,0.1-4.9,0.6-7.2,1.5c-2.3,0.9-4.4,2.1-6.4,3.6s-3.7,3.2-5.3,5s-2.8,3.9-3.8,6.2
			c-1,2.2-1.6,4.5-1.9,7c-0.3,2.4,0.1,4.8,1.1,7.1c1,2.2,2.6,4.1,4.8,5.3c2.2,1.2,4.6,1.9,7.1,1.9c2.5,0.1,5-0.4,7.3-1.3
			c2.4-0.9,4.6-2,6.6-3.4C307.5,265.8,310.7,261.9,312.9,257.4z"/>
		<path id="Shape_31_" class="st2" d="M305.1,235.5c1.3,3.6,1.8,7.4,1.5,11.1c-0.1,1.9-0.4,3.7-0.9,5.5l-0.3,1.3l-0.5,1.4
			c-0.2,0.9-0.6,1.8-0.9,2.6c-0.3,0.9-0.8,1.7-1.2,2.5c-0.4,0.8-0.9,1.6-1.5,2.4c-1.1,1.6-2.2,3-3.6,4.3c-1.3,1.3-2.8,2.5-4.3,3.6
			c-0.7,0.5-1.6,1.1-2.4,1.5c-0.8,0.5-1.7,0.9-2.6,1.2c0.9-0.4,1.7-0.8,2.5-1.3c0.8-0.5,1.6-1.1,2.3-1.6c1.5-1.1,2.9-2.3,4.2-3.7
			c0.6-0.6,1.2-1.4,1.8-2.1c0.6-0.7,1.2-1.5,1.7-2.2c0.5-0.8,1-1.5,1.4-2.3c0.4-0.8,0.8-1.6,1.1-2.5c1.4-3.4,2.4-7,2.7-10.7
			c0.2-1.8,0.2-3.7,0-5.6C306,239.2,305.7,237.3,305.1,235.5z"/>
		<path id="Shape_32_" class="st2" d="M296.1,235.9c0,3.2-0.3,6.4-1.1,9.6c-0.7,3.2-1.7,6.2-2.9,9.3c-0.7,1.5-1.3,3-2,4.4
			c-0.4,0.7-0.7,1.5-1.1,2.2c-0.4,0.7-0.8,1.4-1.2,2.1l-0.6,1.1l-0.7,1l-1.3,2c-0.9,1.3-1.9,2.6-2.9,3.9c0.9-1.3,1.8-2.7,2.6-4
			l1.3-2.1l0.6-1l0.5-1c0.4-0.7,0.8-1.4,1.2-2.1c0.4-0.7,0.7-1.5,1.1-2.2c0.7-1.5,1.3-2.9,2-4.4c1.2-2.9,2.2-6,3-9.1
			c0.2-0.8,0.4-1.5,0.5-2.3c0.1-0.8,0.3-1.6,0.4-2.4C295.9,239.1,296.1,237.5,296.1,235.9z"/>
		<path id="Shape_33_" class="st2" d="M308.7,237.1c1.6,3.2,2.7,6.7,3,10.3c0.4,3.6-0.1,7.3-1.4,10.8c-0.7,1.7-1.6,3.3-2.7,4.8
			c-0.6,0.8-1.1,1.4-1.7,2.1c-0.6,0.7-1.3,1.3-2,1.9c-0.3,0.3-0.7,0.6-1,0.8l-1.1,0.8c-0.7,0.5-1.5,1-2.3,1.4s-1.6,0.8-2.4,1.2
			s-1.7,0.7-2.5,1.1c3.2-1.5,6.3-3.5,9-5.8c0.7-0.6,1.3-1.2,1.9-1.9c0.6-0.7,1.2-1.4,1.6-2.1c1.1-1.4,1.9-3,2.6-4.6
			c1.3-3.3,1.8-6.9,1.5-10.5c-0.1-1.8-0.4-3.6-0.8-5.3C310,240.5,309.4,238.8,308.7,237.1z"/>
		<path id="Shape_34_" class="st2" d="M280.5,248.9c1.5,1.1,3,2.2,4.6,3.1s3.2,1.8,4.9,2.6c3.4,1.6,6.9,2.8,10.5,3.7
			c0.9,0.3,1.8,0.4,2.7,0.7c0.9,0.2,1.8,0.4,2.7,0.5c1.8,0.2,3.6,0.2,5.4-0.1c0.9-0.2,1.6-0.6,2.3-1.1c0.7-0.5,1.2-1.3,1.4-2.1
			c0.5-1.7,0.5-3.5,0-5.2c0.4,0.8,0.5,1.8,0.6,2.6c0.1,0.9,0,1.8-0.2,2.7c-0.2,0.9-0.7,1.7-1.4,2.3c-0.7,0.6-1.6,1-2.5,1.2
			c-1.8,0.4-3.8,0.5-5.6,0.3c-0.9-0.1-1.9-0.3-2.8-0.5c-0.9-0.2-1.8-0.3-2.7-0.6c-3.6-0.9-7.2-2.2-10.6-3.9
			C286.5,253.4,283.3,251.4,280.5,248.9z"/>
		<path id="Shape_35_" class="st2" d="M284.9,244c2.6-0.4,5.1-0.7,7.7-0.8c2.6-0.1,5.2-0.1,7.8,0c2.6,0.2,5.2,0.6,7.7,1.3
			c1.3,0.4,2.5,0.9,3.6,1.6c1.1,0.7,2,1.7,2.6,2.8c-0.7-1.1-1.7-2-2.8-2.6c-1.1-0.6-2.3-1.1-3.6-1.4c-2.5-0.6-5.1-1.1-7.6-1.2
			c-2.6-0.2-5.1-0.3-7.7-0.2c-1.3,0-2.6,0-3.9,0.1C287.5,243.9,286.2,244,284.9,244z"/>
		<path id="Shape_36_" class="st2" d="M277.8,257.4c0.9,0.9,1.8,1.7,2.8,2.5c0.9,0.8,1.9,1.6,2.8,2.4c1.9,1.5,3.8,3.1,5.9,4.4
			c1,0.7,2.1,1.3,3.1,1.9c1,0.5,2.2,1,3.3,1.4c1.1,0.3,2.4,0.5,3.6,0.3c1.2-0.2,2.4-0.9,3.2-1.9c-0.7,1.2-1.9,2-3.2,2.3
			c-1.2,0.2-2.5,0.2-3.8-0.1c-2.4-0.7-4.7-1.8-6.7-3.1s-4-2.9-5.8-4.6C281.2,261.1,279.4,259.3,277.8,257.4z"/>
		<path id="Shape_37_" class="st12" d="M244.8,218.6c-2.2,5-6.5,4.9-8.2,2.1c-1-1.6-0.8-3.9,0-5.8c0.8-1.8,2.4-3.5,4.3-3.8
			C244,210.4,247,213.6,244.8,218.6z"/>
		<g id="Group_2_" transform="translate(182.000000, 215.000000)">
			<path id="Shape_38_" class="st13" d="M93.6,65.3c-1,1.2-2.6,1.7-3.6,1c-1.1-0.7-1.2-2.3-0.2-3.7c1-1.4,2.8-1.8,3.9-0.9
				C94.7,62.4,94.6,64.1,93.6,65.3z"/>
			<path id="Shape_39_" class="st14" d="M100.9,68c-0.6,1.3-1.8,2-2.8,1.6s-1.4-1.7-0.9-3.1c0.6-1.4,1.9-2.2,2.9-1.7
				C101.3,65.3,101.5,66.7,100.9,68z"/>
			<path id="Shape_40_" class="st15" d="M108.3,67.1c0,1.2-0.8,2.4-1.7,2.6s-1.7-0.6-1.8-1.8c-0.1-1.3,0.7-2.5,1.7-2.7
				C107.6,64.9,108.3,65.7,108.3,67.1z"/>
			<path id="Shape_41_" class="st16" d="M113.9,63.9c0.6,0.8,0.6,2.1,0,2.9c-0.6,0.8-1.6,0.9-2.3,0.1c-0.7-0.8-0.8-2.2-0.1-3
				C112.1,63,113.2,63,113.9,63.9z"/>
		</g>
		<path id="Shape_44_" class="st9" d="M237.6,279.2l-7.2,16.2l-3.6-4.5l4-15.7l0.1-0.5l0-0.1c0.1-0.4,0.3-0.8,0.4-1.1
			c1.2-2.6,3.4-3.9,5.1-2.7C238.4,272,239,275.9,237.6,279.2z"/>
	</g>
	<g id="head_1_">
		<path id="Shape_13_" class="st9" d="M345.5,200.9c-0.9,5.5-17.3,9-39.9,7.8c-27.5-1.5-53.4-9.4-52-17.1s29.1-10.1,56-6
			C331.7,188.8,346.4,195.5,345.5,200.9z"/>
		<path id="Shape_14_" class="st17" d="M383.9,136.2c4.8-10.7,12.8-17.5,21.7-13.6c9.4,4.2,13.2,16.2,8.4,26.9
			c-4.8,10.7-16.2,16-25.6,11.8C380,157.7,379.1,146.9,383.9,136.2z"/>
		
			<ellipse id="Oval_2_" transform="matrix(0.4057 -0.914 0.914 0.4057 104.8823 444.0227)" class="st18" cx="393.9" cy="141.4" rx="22.8" ry="19.3"/>
		<path id="Shape_15_" class="st10" d="M212.9,130c0,0,3.1-59.9,95.9-60c79.4-0.1,107.5,50.3,96.6,80.1
			c-9.6,26.2-56.6,52.2-107.1,38S219.8,156.2,212.9,130z"/>
		<path id="Shape_16_" class="st19" d="M253.1,189c-13.8-6.1-31.6-17.6-38.1-37.5c-2.2-6.6-2.9-13.7-2-20.6
			c6.1,9.8,17,18.3,32.4,25.1c28,12.4,65.8,16.9,90.7,15.8c20.4-0.9,36.8-3.3,48.9-7.2c0.1,0,0.1,0,0.1-0.1
			c6.3-7.6,8.7-11.1,10.9-18.6c0-0.1,0.1-0.3,0.2-0.4c0.1,0,0.1,0,0.1,0c1.3,0.6,4.1,7.2,3.1,11.4c-0.1,0.1,0,0.3,0.1,0.3l0.1,0
			c0.1,0.1,0.3,0,0.3-0.1c1.4-1,2.7-2.2,3.7-3.6c-6.5,18.2-20.2,32.1-39.8,40.4c-16.5,7-37,9.8-56.6,7.8
			C285.9,199.7,267.7,195.4,253.1,189z"/>
		<path id="Shape_17_" class="st10" d="M396.4,145.9c1.1,0.8,3.8,6.9,2.8,11c0,0.3,0.1,0.5,0.3,0.7l0.1,0c0.2,0.1,0.5,0.1,0.7-0.1
			c0.9-0.7,1.8-1.4,2.6-2.3c-3.2,8.4-8.1,16-14.4,22.3c-7.1,6.9-15.4,12.5-24.6,16.3c-16.4,6.9-37,9.8-56.4,7.8
			c-21.5-2.2-39.7-6.5-54.2-13c-11-4.9-19.9-11-26.5-18.2c-5.1-5.5-9-12-11.4-19.1c-2.1-6.3-2.8-13-2.1-19.6
			c6.2,9.6,17,17.8,32.1,24.4c12.9,5.7,28.8,10.2,46.1,13c15.3,2.4,31.2,3.5,44.7,2.9c20.4-0.9,36.9-3.3,48.9-7.3
			c0.1,0,0.2-0.1,0.3-0.2c6.4-7.6,8.7-11.2,11-18.7C396.4,146,396.4,146,396.4,145.9z M396.6,145.2c-0.4-0.2-0.7,0-0.9,0.6
			c-2.2,7.6-4.6,11-10.8,18.4c-10.2,3.4-25.7,6.2-48.8,7.2c-25.9,1.1-62.9-3.5-90.6-15.8c-14.4-6.4-26.3-14.9-32.7-25.7
			c0,0-8.5,37.7,40.1,59.3c13.4,5.9,31,10.7,54.3,13c34.8,3.6,84.1-7.3,97.7-51.2c-0.5,1.2-1.8,3.4-5.2,6
			C400.9,152.8,398.1,145.9,396.6,145.2z"/>
		<path id="Shape_18_" class="st19" d="M405.1,151c0.1-0.3,0.2-0.6,0.3-1C405.3,150.4,405.1,150.7,405.1,151z"/>
		<path id="Shape_19_" class="st10" d="M405.3,150.1c-0.1,0.3-0.2,0.6-0.3,1C405.2,150.7,405.3,150.4,405.3,150.1z"/>
		<path id="Shape_20_" class="st20" d="M328.6,171.7c-3,6.7-11.8,10.8-19.4,9.1c-7.3-1.6-10.7-7.8-7.9-13.9
			c2.7-6.2,10.8-10.4,18.3-9.4C327.4,158.6,331.6,164.9,328.6,171.7z"/>
		<path id="Shape_21_" class="st20" d="M378.1,169.1c-2.3,5.3-9.1,9.5-15.1,9.5c-6.3,0-9.5-4.6-7-10.1s9.6-9.8,15.7-9.5
			C377.6,159.3,380.4,163.9,378.1,169.1z"/>
		<path id="Shape_22_" class="st21" d="M238.3,142.4c-6,16-20.5,23.1-31,16.4c-9.2-5.9-11.7-20.5-6.5-33c5-12.4,16.3-20.2,26.3-17.4
			C238.4,111.4,244.2,126.7,238.3,142.4z"/>
		<path id="Shape_23_" class="st22" d="M228.6,140.3c-5.4,14.1-16.2,21.7-25.2,15.9c-7.8-5-9.7-18.7-5-30.2
			c4.6-11.4,14.4-18.2,23.1-15.6C230.6,113.2,233.9,126.4,228.6,140.3z"/>
		<path id="Shape_24_" class="st23" d="M222.4,137.1c0,0.1-0.1,0.1-0.1,0.2c-0.6,1.7-1.4,3.3-2.4,4.8c-1,1.6-2.1,3-3.5,4.3
			c-0.7,0.7-1.5,1.3-2.3,1.9c-0.9,0.6-1.9,1.1-3,1.5c-0.7,0.2-1.4,0.3-2.1,0.4c-0.4,0-0.9,0-1.3-0.1c-0.4,0-0.7-0.1-1-0.2
			c-0.4-0.1-0.8-0.3-1.1-0.4c-0.5-0.2-1.1-0.6-1.6-1c-0.5-0.4-0.9-0.8-1.3-1.4c-0.6-0.8-1-1.7-1.3-2.6c-0.2-0.8-0.4-1.5-0.6-2.2
			c-0.2-1-0.3-2.2-0.3-3.2c0-1.3,0.1-2.6,0.4-3.9c0.1-0.6,0.2-1.2,0.4-1.8c0.2-0.5,0.3-1,0.4-1.5c0.2-0.5,0.3-1.1,0.6-1.6
			c0.2-0.5,0.5-1.2,0.8-1.8c0.2-0.4,0.3-0.7,0.5-1c0-0.1,0-0.1,0.1,0l1.8,0.4c0.1,0,0.1,0,0,0.1c-0.4,0.7-0.8,1.4-1.1,2.1
			c-0.3,0.7-0.6,1.5-0.8,2.2c-0.6,1.6-0.8,3.2-0.9,4.9c-0.1,1,0,2,0.2,3c0.2,1.1,0.5,2.2,1,3.2c0.3,0.7,0.8,1.3,1.4,1.8
			c0.2,0.3,0.5,0.4,0.9,0.7c0.1,0,0.1,0,0.1,0c0.6-1.6,1.1-3.2,1.6-4.8c0-0.1,0.1-0.1,0.1-0.1l1.9,0.6c0.1,0,0.1,0,0,0.1l-1.7,5
			c0,0.1,0,0.1,0,0.1c0.5,0.1,1,0.1,1.5,0.1c1.4-0.1,2.7-0.6,3.8-1.4c0.8-0.5,1.6-1.1,2.3-1.8c1-1.1,2-2.2,2.7-3.6
			c0.3-0.6,0.7-1.2,1-1.8c0.2-0.5,0.4-1,0.6-1.4s0.3-0.9,0.5-1.4c0.4-1.3,0.7-2.7,0.9-4l0-0.1l0-0.1l2.5,0.5c0.1,0,0.1,0,0,0.1
			c-0.1,0.7-0.3,1.5-0.5,2.2s-0.4,1.4-0.6,2.1l0,0.1L222.4,137.1z"/>
		<path id="Shape_25_" class="st23" d="M217.1,117.9c0,0,0.1,0,0.1,0.1c0.4,0.1,0.8,0.1,1.2,0.3c0.6,0.2,1.2,0.5,1.8,0.9
			c1.1,0.9,2,2,2.5,3.3c0.6,1.3,0.9,2.6,1.1,4c0.1,0.5,0.1,1.1,0.1,1.7c0,0.1,0,0.1,0,0.1l-2.7-0.6l-0.1,0c-0.1-0.7-0.3-1.4-0.5-2.1
			c-0.2-0.5-0.4-1-0.7-1.5c-0.4-0.8-1-1.4-1.6-1.9c-0.4-0.3-0.9-0.6-1.4-0.8c-0.1,0-0.1,0-0.1,0.1l-1.7,4.9c0,0.1-0.1,0.1-0.1,0.1
			l-1.9-0.4c-0.1,0-0.1,0,0-0.1c0.6-1.6,1.1-3.2,1.7-4.8c0-0.1,0-0.1,0-0.1c-0.4,0-0.7,0.1-1.1,0.1c-1,0.2-2,0.6-2.9,1.2
			c-0.5,0.3-0.9,0.7-1.4,1c-0.6,0.5-1.1,1-1.6,1.6c0,0.1-0.1,0-0.1,0l-2-0.4c-0.1,0-0.1,0,0-0.1l0.4-0.6c0.6-0.8,1.2-1.4,1.9-2.1
			c0.5-0.6,1.1-1,1.7-1.5c0.7-0.5,1.3-0.9,2-1.3c0.6-0.3,1.2-0.6,1.9-0.8c0.5-0.2,1-0.4,1.6-0.5c0.4,0,0.8-0.1,1.2,0l0.4,0
			L217.1,117.9z"/>
		<path id="Shape_26_" class="st23" d="M214.8,136.9c0.2-0.7,0.3-1.4,0.2-2.1c0-0.1,0-0.2,0.1-0.2c0.3-0.2,0.5-0.6,0.7-0.9
			c0.2-0.4,0.4-0.8,0.6-1.2c0.3-0.6,0.4-1.2,0.5-1.9c0.1-0.7,0-1.5-0.3-2.2c-0.1-0.3-0.3-0.4-0.5-0.7c-0.2-0.2-0.4-0.3-0.8-0.4
			l-5.7-1.2c-0.1,0-0.1,0-0.1,0.1c-0.7,2.1-1.4,4.2-2.2,6.2l-2.2,6.2c-0.1,0.1-0.1,0.1,0,0.1c1.8,0.6,3.5,1.1,5.4,1.8
			c0.3,0.1,0.7,0.1,1,0c0.9-0.2,1.7-1,2.4-2.1C214.4,138.1,214.7,137.5,214.8,136.9z M212.6,137.4c-0.2,0.3-0.5,0.6-0.9,0.5
			l-1.9-0.6l-1.9-0.6c-0.1,0-0.1,0,0-0.1l0.7-2.1c0-0.1,0-0.1,0.1,0l3.8,1c0.1,0.1,0.2,0.2,0.3,0.3c0.1,0.1,0.1,0.2,0.2,0.3
			c0,0.1,0,0.3-0.1,0.5C212.9,136.9,212.8,137.1,212.6,137.4z M214.4,132.2c-0.1,0.2-0.3,0.4-0.6,0.5c-0.1,0-0.2,0-0.4,0l-1.8-0.4
			l-1.9-0.5c-0.1,0-0.1,0,0-0.1c0.2-0.7,0.5-1.4,0.7-2.1c0-0.1,0-0.1,0.1-0.1l3.9,0.9c0.1,0,0.2,0.1,0.3,0.2
			c0.1,0.2,0.1,0.5,0.1,0.7C214.6,131.6,214.6,131.9,214.4,132.2z"/>
		<g id="Group_1_" transform="translate(15.872204, 0.000000)" class="st24">
			
				<image style="overflow:visible;enable-background:new    ;" width="280" height="172" id="Bitmap_2_" xlink:href="55A77F2DF9938031.png"  transform="matrix(0.6018 0.2671 -0.2671 0.6018 244.2668 27.3715)">
			</image>
		</g>
	</g>
	<g id="l-arm">
		<g>
			
				<image style="overflow:visible;opacity:0.35;enable-background:new    ;" width="125" height="86" id="Bitmap_4_" xlink:href="55A77F2DF9938033.png"  transform="matrix(-4.339544e-02 0.6546 -0.6546 -4.339544e-02 252.7394 202.1567)">
			</image>
			<path id="Shape_42_" class="st10" d="M241.8,205.3c9.1,3.4,6.7,16.5,2.7,23.1c-6.2,10.3-18.8,24.7-27.5,32.9
				c-10.4,9.9-6.8,10.3-12.4,13.3c-3.8,2.1-8.1-3.6-6.7-10.1c5-23.4,8.6-41,23.3-53.1C230,204.2,234.5,202.6,241.8,205.3z"/>
		</g>
		<path id="Shape_43_" class="st9" d="M236,217.2c-2.1,3-5.3,2.2-6.3,0c-0.8-2.4,0.4-4.9,2.8-5.6c0.4-0.2,0.8-0.2,1.2-0.2
			C236.1,211.6,238.1,214.2,236,217.2z"/>
	</g>
	<g id="l-leg">
		
			<image style="overflow:visible;opacity:0.35;enable-background:new    ;" width="54" height="126" id="Bitmap_6_" xlink:href="55A77F2DF9938030.png"  transform="matrix(0.5924 0.2629 -0.2629 0.5924 220.7488 267.7248)">
		</image>
		<path id="group" class="st10" d="M215.6,289.9c7-14.1,14-17,18.7-11.8c4.7,5.3,6.5,14,0.8,30.5c-6.1,17.9-15.9,25.4-26.3,34.1
			c-5,4.2-9.7,1.1-9.3-6.1C199.9,329.1,202.4,316.5,215.6,289.9z"/>
	</g>
</g>
</svg>
