<?xml version="1.0" standalone="no"?><!DOCTYPE svg PUBLIC "-//W3C//DTD SVG 1.1//EN" "http://www.w3.org/Graphics/SVG/1.1/DTD/svg11.dtd"><svg t="1581367762910" class="icon" viewBox="0 0 1024 1024" version="1.1" xmlns="http://www.w3.org/2000/svg" p-id="2158" xmlns:xlink="http://www.w3.org/1999/xlink" width="200" height="200"><defs><style type="text/css"></style></defs><path d="M482.283 1024h-320.17a141.727 141.727 0 0 1-141.57-141.569V141.57A141.727 141.727 0 0 1 162.114 0h640.355a141.727 141.727 0 0 1 141.568 141.569V470.32a23.031 23.031 0 0 1-46.062 0V141.57a95.612 95.612 0 0 0-95.506-95.507H162.112a95.612 95.612 0 0 0-95.506 95.507V882.43a95.612 95.612 0 0 0 95.506 95.507h320.171a23.031 23.031 0 0 1 0 46.062z" p-id="2159" fill="#EFCB5F"></path><path d="M773.62 264.37H196.896a23.031 23.031 0 0 1 0-46.062h576.737a23.031 23.031 0 0 1 0 46.062z m-5.173 191.184H191.724a23.031 23.031 0 1 1 0-46.062H768.46a23.031 23.031 0 0 1 0 46.062zM512.974 634.183H193.42a23.031 23.031 0 0 1 0-46.062h319.527a23.031 23.031 0 0 1 0 46.062z m-94.138 184.906h-223.73a23.031 23.031 0 1 1 0-46.062h223.73a23.031 23.031 0 0 1 0 46.062z m370.01-80.753a107.522 107.522 0 1 1 107.522-107.522 107.64 107.64 0 0 1-107.522 107.522z m0-168.969a61.46 61.46 0 1 0 61.46 61.46 61.526 61.526 0 0 0-61.46-61.46z m152.097 434.892H641.408a62.579 62.579 0 0 1-62.513-62.513v-14.924a62.579 62.579 0 0 1 62.513-62.513h299.535a62.579 62.579 0 0 1 62.513 62.513v14.924a62.579 62.579 0 0 1-62.513 62.513z m-299.535-93.888a16.464 16.464 0 0 0-16.45 16.451v14.924a16.464 16.464 0 0 0 16.45 16.451h299.535a16.464 16.464 0 0 0 16.451-16.45v-14.925a16.464 16.464 0 0 0-16.45-16.45z" p-id="2160" fill="#EFCB5F"></path><path d="M651.792 894.236a23.031 23.031 0 0 1-19.978-34.467l93.888-164.31a23.034 23.034 0 0 1 39.995 22.86l-93.888 164.31a23.018 23.018 0 0 1-20.017 11.607z m269.976 0a23.018 23.018 0 0 1-20.017-11.607l-93.888-164.31a23.034 23.034 0 0 1 39.996-22.86l93.887 164.31a23.031 23.031 0 0 1-19.978 34.467z" p-id="2161" fill="#EFCB5F"></path></svg>