<?xml version="1.0" encoding="UTF-8"?>
<svg width="350px" height="120px" viewBox="0 0 350 120" version="1.1" xmlns="http://www.w3.org/2000/svg" xmlns:xlink="http://www.w3.org/1999/xlink">
    <!-- Generator: Sketch 51.3 (57544) - http://www.bohemiancoding.com/sketch -->
    <title>Group 4</title>
    <desc>Created with Sketch.</desc>
    <defs>
        <linearGradient x1="50%" y1="0%" x2="50%" y2="100%" id="linearGradient-1">
            <stop stop-color="#1C6FF3" offset="0%"></stop>
            <stop stop-color="#1652F0" offset="100%"></stop>
        </linearGradient>
    </defs>
    <g id="Page-1" stroke="none" stroke-width="1" fill="none" fill-rule="evenodd">
        <g id="hero---2.0-copy" transform="translate(-1470.000000, -974.000000)">
            <g id="下载" transform="translate(1059.000000, 974.000000)">
                <g id="Group-4" transform="translate(411.000000, 0.000000)">
                    <g id="Group">
                        <rect id="Rectangle-2-Copy" fill="url(#linearGradient-1)" x="0" y="0" width="350" height="120" rx="7.5"></rect>
                        <g id="android-logo" transform="translate(24.000000, 15.000000)" fill="#FFFFFF" fill-rule="nonzero">
                            <path d="M5.61005929,29.2971344 L5.37990119,29.2971344 C2.4294664,29.2971344 0.0238339921,31.710415 0.0238339921,34.6532016 L0.0238339921,57.9726285 C0.0238339921,60.9269763 2.4294664,63.3324308 5.37990119,63.3324308 L5.61397233,63.3324308 C8.56440711,63.3324308 10.9700395,60.9191502 10.9700395,57.9726285 L10.9700395,34.6530237 C10.9661265,31.710415 8.55675889,29.2971344 5.61005929,29.2971344 Z" id="Shape"></path>
                            <path d="M13.5329051,66.9735178 C13.5329051,69.6822332 15.7466206,71.8883004 18.455336,71.8883004 L23.7155336,71.8883004 L23.7155336,84.4842095 C23.7155336,87.4422925 26.1288142,89.8479249 29.0716008,89.8479249 L29.3017589,89.8479249 C32.2561067,89.8479249 34.6654743,87.4385573 34.6654743,84.4842095 L34.6654743,71.8883004 L42.0166601,71.8883004 L42.0166601,84.4842095 C42.0166601,87.4422925 44.4375889,89.8479249 47.3803755,89.8479249 L47.6067984,89.8479249 C50.5609684,89.8479249 52.9666008,87.4385573 52.9666008,84.4842095 L52.9666008,71.8883004 L58.2305336,71.8883004 C60.935336,71.8883004 63.1492292,69.6822332 63.1492292,66.9735178 L63.1492292,30.152668 L13.5329051,30.152668 L13.5329051,66.9735178 Z" id="Shape"></path>
                            <path d="M50.6989921,7.82306324 L54.8772332,1.37365613 C55.1458103,0.96687747 55.0268182,0.4106917 54.6163043,0.145849802 C54.2097036,-0.122727273 53.6533399,-0.0113833992 53.388498,0.406778656 L49.0569368,7.07887352 C45.807332,5.74754941 42.1778063,4.99944664 38.3448024,4.99944664 C34.5080632,4.99944664 30.8861858,5.74754941 27.6289328,7.07887352 L23.3050198,0.406778656 C23.0403557,-0.0113833992 22.4800791,-0.122727273 22.0695652,0.145849802 C21.6590514,0.410513834 21.5400593,0.96687747 21.8086364,1.37365613 L25.9906126,7.82306324 C18.4514229,11.5178656 13.3678458,18.4814822 13.3678458,26.4694269 C13.3678458,26.9605138 13.3986166,27.4439526 13.4407708,27.9234783 L63.2525692,27.9234783 C63.2947233,27.4439526 63.321581,26.9605138 63.321581,26.4694269 C63.3217589,18.4814822 58.2342688,11.5178656 50.6989921,7.82306324 Z M26.7963439,19.3715217 C25.472668,19.3715217 24.3983597,18.3048617 24.3983597,16.9774506 C24.3983597,15.6500395 25.472668,14.5871146 26.7963439,14.5871146 C28.127668,14.5871146 29.1943281,15.6498617 29.1943281,16.9774506 C29.1943281,18.3050395 28.1200198,19.3715217 26.7963439,19.3715217 Z M49.8895257,19.3715217 C48.5658498,19.3715217 47.4915415,18.3048617 47.4915415,16.9774506 C47.4915415,15.6500395 48.5658498,14.5871146 49.8895257,14.5871146 C51.2169368,14.5871146 52.2835968,15.6498617 52.2835968,16.9774506 C52.2835968,18.3048617 51.2169368,19.3715217 49.8895257,19.3715217 Z" id="Shape"></path>
                            <path d="M71.3020553,29.2971344 L71.0795455,29.2971344 C68.1291107,29.2971344 65.71583,31.710415 65.71583,34.6532016 L65.71583,57.9726285 C65.71583,60.9269763 68.1330237,63.3324308 71.0795455,63.3324308 L71.3059684,63.3324308 C74.2601383,63.3324308 76.6620356,60.9191502 76.6620356,57.9726285 L76.6620356,34.6530237 C76.6620356,31.710415 74.2524901,29.2971344 71.3020553,29.2971344 Z" id="Shape"></path>
                        </g>
                    </g>
                    <path d="M162.75293,57.5 L159.865723,49.4711914 L148.811279,49.4711914 L145.983398,57.5 L141,57.5 L151.817139,28.4697266 L156.95874,28.4697266 L167.775879,57.5 L162.75293,57.5 Z M158.619873,45.3974609 L155.910645,37.5268555 C155.71289,36.9995091 155.439333,36.168951 155.089966,35.0351562 C154.740599,33.9013615 154.500001,33.0708034 154.368164,32.543457 C154.012205,34.1650472 153.491459,35.9382228 152.805908,37.8630371 L150.195557,45.3974609 L158.619873,45.3974609 Z M190.3396,57.5 L185.672607,57.5 L185.672607,44.0527344 C185.672607,42.3652259 185.333133,41.1062053 184.654175,40.2756348 C183.975216,39.4450642 182.897468,39.0297852 181.420898,39.0297852 C179.456533,39.0297852 178.019536,39.6098575 177.109863,40.7700195 C176.200191,41.9301816 175.745361,43.8747422 175.745361,46.6037598 L175.745361,57.5 L171.098145,57.5 L171.098145,35.628418 L174.736816,35.628418 L175.389404,38.4958496 L175.626709,38.4958496 C176.285892,37.4543405 177.221918,36.6501493 178.434814,36.083252 C179.647711,35.5163546 180.992424,35.2329102 182.468994,35.2329102 C187.716091,35.2329102 190.3396,37.9025612 190.3396,43.2419434 L190.3396,57.5 Z M204.182373,57.8955078 C201.453355,57.8955078 199.324226,56.9067482 197.794922,54.9291992 C196.265617,52.9516503 195.500977,50.1765315 195.500977,46.6037598 C195.500977,43.0178043 196.275505,40.2262063 197.824585,38.2288818 C199.373665,36.2315574 201.519273,35.2329102 204.261475,35.2329102 C207.135512,35.2329102 209.323967,36.2941788 210.826904,38.416748 L211.064209,38.416748 C210.840087,36.8478925 210.728027,35.6086471 210.728027,34.6989746 L210.728027,26.7294922 L215.39502,26.7294922 L215.39502,57.5 L211.756348,57.5 L210.945557,54.6325684 L210.728027,54.6325684 C209.238274,56.8078722 207.056411,57.8955078 204.182373,57.8955078 Z M205.428223,54.1381836 C207.339853,54.1381836 208.730709,53.6009575 209.60083,52.5264893 C210.470952,51.452021 210.919189,49.7085082 210.945557,47.2958984 L210.945557,46.6433105 C210.945557,43.8879257 210.497319,41.9301816 209.60083,40.7700195 C208.704341,39.6098575 207.300303,39.0297852 205.388672,39.0297852 C203.753898,39.0297852 202.494877,39.6922541 201.611572,41.0172119 C200.728267,42.3421697 200.286621,44.2307006 200.286621,46.6828613 C200.286621,49.1086547 200.715084,50.9576352 201.572021,52.2298584 C202.428959,53.5020816 203.714347,54.1381836 205.428223,54.1381836 Z M233.133545,35.2329102 C234.069585,35.2329102 234.840817,35.2988275 235.447266,35.4306641 L234.992432,39.7614746 C234.333249,39.6032707 233.647709,39.5241699 232.935791,39.5241699 C231.076895,39.5241699 229.570684,40.1306092 228.417114,41.3435059 C227.263544,42.5564025 226.686768,44.1318262 226.686768,46.0698242 L226.686768,57.5 L222.039551,57.5 L222.039551,35.628418 L225.678223,35.628418 L226.29126,39.4846191 L226.528564,39.4846191 C227.253666,38.1794368 228.199579,37.1445351 229.366333,36.3798828 C230.533087,35.6152306 231.788812,35.2329102 233.133545,35.2329102 Z M258.900879,46.5246582 C258.900879,50.09743 257.984628,52.8857322 256.1521,54.8896484 C254.319571,56.8935647 251.768571,57.8955078 248.499023,57.8955078 C246.455556,57.8955078 244.649422,57.4340866 243.080566,56.5112305 C241.511711,55.5883743 240.305424,54.2634364 239.46167,52.536377 C238.617916,50.8093175 238.196045,48.8054313 238.196045,46.5246582 C238.196045,42.9782538 239.105704,40.2097268 240.925049,38.2189941 C242.744394,36.2282615 245.308577,35.2329102 248.617676,35.2329102 C251.781754,35.2329102 254.286612,36.2513326 256.132324,38.288208 C257.978037,40.3250834 258.900879,43.0705394 258.900879,46.5246582 Z M242.981689,46.5246582 C242.981689,51.5739999 244.847149,54.0986328 248.578125,54.0986328 C252.26955,54.0986328 254.115234,51.5739999 254.115234,46.5246582 C254.115234,41.5280512 252.256366,39.0297852 248.538574,39.0297852 C246.587393,39.0297852 245.173466,39.6757748 244.296753,40.9677734 C243.42004,42.2597721 242.981689,44.1120485 242.981689,46.5246582 Z M268.887451,57.5 L264.240234,57.5 L264.240234,35.628418 L268.887451,35.628418 L268.887451,57.5 Z M263.963379,29.8342285 C263.963379,29.003658 264.190794,28.3642601 264.64563,27.9160156 C265.100466,27.4677712 265.749752,27.2436523 266.593506,27.2436523 C267.410893,27.2436523 268.046995,27.4677712 268.501831,27.9160156 C268.956667,28.3642601 269.184082,29.003658 269.184082,29.8342285 C269.184082,30.6252481 268.956667,31.2481667 268.501831,31.7030029 C268.046995,32.1578392 267.410893,32.3852539 266.593506,32.3852539 C265.749752,32.3852539 265.100466,32.1578392 264.64563,31.7030029 C264.190794,31.2481667 263.963379,30.6252481 263.963379,29.8342285 Z M282.908203,57.8955078 C280.179186,57.8955078 278.050056,56.9067482 276.520752,54.9291992 C274.991447,52.9516503 274.226807,50.1765315 274.226807,46.6037598 C274.226807,43.0178043 275.001335,40.2262063 276.550415,38.2288818 C278.099495,36.2315574 280.245103,35.2329102 282.987305,35.2329102 C285.861342,35.2329102 288.049797,36.2941788 289.552734,38.416748 L289.790039,38.416748 C289.565917,36.8478925 289.453857,35.6086471 289.453857,34.6989746 L289.453857,26.7294922 L294.12085,26.7294922 L294.12085,57.5 L290.482178,57.5 L289.671387,54.6325684 L289.453857,54.6325684 C287.964104,56.8078722 285.782241,57.8955078 282.908203,57.8955078 Z M284.154053,54.1381836 C286.065683,54.1381836 287.456539,53.6009575 288.32666,52.5264893 C289.196782,51.452021 289.645019,49.7085082 289.671387,47.2958984 L289.671387,46.6433105 C289.671387,43.8879257 289.223149,41.9301816 288.32666,40.7700195 C287.430171,39.6098575 286.026133,39.0297852 284.114502,39.0297852 C282.479728,39.0297852 281.220708,39.6922541 280.337402,41.0172119 C279.454097,42.3421697 279.012451,44.2307006 279.012451,46.6828613 C279.012451,49.1086547 279.440914,50.9576352 280.297852,52.2298584 C281.154789,53.5020816 282.440177,54.1381836 284.154053,54.1381836 Z M142.32,76.664 L163.656,76.664 L163.656,78.368 L153.24,78.368 L153.24,81.992 C156.216,83.48 159.24,85.208 162.312,87.176 L161.28,88.712 C158.088,86.6 155.4,84.968 153.24,83.816 L153.24,97.448 L151.488,97.448 L151.488,78.368 L142.32,78.368 L142.32,76.664 Z M167.688,77.336 L172.368,77.336 L172.368,75.32 L174.048,75.32 L174.048,77.336 L178.392,77.336 L178.392,78.92 L174.048,78.92 L174.048,81.128 L179.808,81.128 C179.712,79.328 179.664,77.384 179.664,75.272 L181.344,75.272 C181.344,77.456 181.392,79.4 181.488,81.128 L187.536,81.128 L187.536,82.688 L181.584,82.688 C181.728,84.824 181.92,86.576 182.184,87.92 C182.328,88.616 182.472,89.264 182.616,89.888 C183.48,88.16 184.176,86.144 184.704,83.888 L186.24,84.584 C185.472,87.584 184.488,90.104 183.288,92.12 C183.48,92.672 183.696,93.152 183.912,93.584 C184.536,94.76 185.04,95.36 185.424,95.36 C185.808,95.336 186.144,94.064 186.432,91.52 L187.92,92.312 C187.392,95.504 186.648,97.112 185.64,97.112 C184.824,97.112 183.936,96.368 183,94.928 C182.736,94.52 182.496,94.088 182.304,93.632 C181.056,95.264 179.64,96.488 178.056,97.352 L177.12,95.96 C178.848,95 180.336,93.608 181.56,91.76 C181.224,90.704 180.912,89.552 180.648,88.28 C180.312,86.696 180.048,84.848 179.904,82.688 L166.44,82.688 L166.44,81.128 L172.368,81.128 L172.368,78.92 L167.688,78.92 L167.688,77.336 Z M183.816,75.584 C185.016,76.928 185.952,78.104 186.6,79.112 L185.304,80.024 C184.632,78.944 183.696,77.744 182.496,76.424 L183.816,75.584 Z M178.392,92.504 L178.392,94.04 C177.192,94.184 175.944,94.352 174.648,94.496 L174.648,97.328 L172.944,97.328 L172.944,94.664 C171.216,94.832 169.392,94.976 167.472,95.12 L167.256,93.512 C169.272,93.392 171.168,93.248 172.944,93.104 L172.944,90.968 L168.264,90.968 L167.928,89.552 C168.6,88.736 169.224,87.752 169.8,86.552 L167.16,86.552 L167.16,85.016 L170.472,85.016 C170.712,84.44 170.928,83.816 171.144,83.192 L172.8,83.504 C172.608,84.032 172.416,84.536 172.224,85.016 L178.512,85.016 L178.512,86.552 L171.552,86.552 C171.024,87.656 170.448,88.64 169.848,89.504 L172.944,89.504 L172.944,87.632 L174.648,87.632 L174.648,89.504 L178.296,89.504 L178.296,90.968 L174.648,90.968 L174.648,92.936 C175.968,92.792 177.216,92.648 178.392,92.504 Z" id="Android-下载" fill="#FFFFFF"></path>
                </g>
            </g>
        </g>
    </g>
</svg>