<?xml version="1.0" encoding="UTF-8"?>
<svg width="350px" height="120px" viewBox="0 0 350 120" version="1.1" xmlns="http://www.w3.org/2000/svg" xmlns:xlink="http://www.w3.org/1999/xlink">
    <!-- Generator: Sketch 51.3 (57544) - http://www.bohemiancoding.com/sketch -->
    <title>Group 4</title>
    <desc>Created with Sketch.</desc>
    <defs>
        <linearGradient x1="50%" y1="0%" x2="50%" y2="100%" id="linearGradient-1">
            <stop stop-color="#1C6FF3" offset="0%"></stop>
            <stop stop-color="#1652F0" offset="100%"></stop>
        </linearGradient>
    </defs>
    <g id="Page-1" stroke="none" stroke-width="1" fill="none" fill-rule="evenodd">
        <g id="hero---2.0-copy-2" transform="translate(-1470.000000, -974.000000)">
            <g id="download" transform="translate(1059.000000, 974.000000)">
                <g id="Group-4" transform="translate(411.000000, 0.000000)">
                    <g id="Group">
                        <rect id="Rectangle-2-Copy" fill="url(#linearGradient-1)" x="0" y="0" width="350" height="120" rx="7.5"></rect>
                        <g id="android-logo" transform="translate(24.000000, 15.000000)" fill="#FFFFFF" fill-rule="nonzero">
                            <path d="M5.61005929,29.2971344 L5.37990119,29.2971344 C2.4294664,29.2971344 0.0238339921,31.710415 0.0238339921,34.6532016 L0.0238339921,57.9726285 C0.0238339921,60.9269763 2.4294664,63.3324308 5.37990119,63.3324308 L5.61397233,63.3324308 C8.56440711,63.3324308 10.9700395,60.9191502 10.9700395,57.9726285 L10.9700395,34.6530237 C10.9661265,31.710415 8.55675889,29.2971344 5.61005929,29.2971344 Z" id="Shape"></path>
                            <path d="M13.5329051,66.9735178 C13.5329051,69.6822332 15.7466206,71.8883004 18.455336,71.8883004 L23.7155336,71.8883004 L23.7155336,84.4842095 C23.7155336,87.4422925 26.1288142,89.8479249 29.0716008,89.8479249 L29.3017589,89.8479249 C32.2561067,89.8479249 34.6654743,87.4385573 34.6654743,84.4842095 L34.6654743,71.8883004 L42.0166601,71.8883004 L42.0166601,84.4842095 C42.0166601,87.4422925 44.4375889,89.8479249 47.3803755,89.8479249 L47.6067984,89.8479249 C50.5609684,89.8479249 52.9666008,87.4385573 52.9666008,84.4842095 L52.9666008,71.8883004 L58.2305336,71.8883004 C60.935336,71.8883004 63.1492292,69.6822332 63.1492292,66.9735178 L63.1492292,30.152668 L13.5329051,30.152668 L13.5329051,66.9735178 Z" id="Shape"></path>
                            <path d="M50.6989921,7.82306324 L54.8772332,1.37365613 C55.1458103,0.96687747 55.0268182,0.4106917 54.6163043,0.145849802 C54.2097036,-0.122727273 53.6533399,-0.0113833992 53.388498,0.406778656 L49.0569368,7.07887352 C45.807332,5.74754941 42.1778063,4.99944664 38.3448024,4.99944664 C34.5080632,4.99944664 30.8861858,5.74754941 27.6289328,7.07887352 L23.3050198,0.406778656 C23.0403557,-0.0113833992 22.4800791,-0.122727273 22.0695652,0.145849802 C21.6590514,0.410513834 21.5400593,0.96687747 21.8086364,1.37365613 L25.9906126,7.82306324 C18.4514229,11.5178656 13.3678458,18.4814822 13.3678458,26.4694269 C13.3678458,26.9605138 13.3986166,27.4439526 13.4407708,27.9234783 L63.2525692,27.9234783 C63.2947233,27.4439526 63.321581,26.9605138 63.321581,26.4694269 C63.3217589,18.4814822 58.2342688,11.5178656 50.6989921,7.82306324 Z M26.7963439,19.3715217 C25.472668,19.3715217 24.3983597,18.3048617 24.3983597,16.9774506 C24.3983597,15.6500395 25.472668,14.5871146 26.7963439,14.5871146 C28.127668,14.5871146 29.1943281,15.6498617 29.1943281,16.9774506 C29.1943281,18.3050395 28.1200198,19.3715217 26.7963439,19.3715217 Z M49.8895257,19.3715217 C48.5658498,19.3715217 47.4915415,18.3048617 47.4915415,16.9774506 C47.4915415,15.6500395 48.5658498,14.5871146 49.8895257,14.5871146 C51.2169368,14.5871146 52.2835968,15.6498617 52.2835968,16.9774506 C52.2835968,18.3048617 51.2169368,19.3715217 49.8895257,19.3715217 Z" id="Shape"></path>
                            <path d="M71.3020553,29.2971344 L71.0795455,29.2971344 C68.1291107,29.2971344 65.71583,31.710415 65.71583,34.6532016 L65.71583,57.9726285 C65.71583,60.9269763 68.1330237,63.3324308 71.0795455,63.3324308 L71.3059684,63.3324308 C74.2601383,63.3324308 76.6620356,60.9191502 76.6620356,57.9726285 L76.6620356,34.6530237 C76.6620356,31.710415 74.2524901,29.2971344 71.3020553,29.2971344 Z" id="Shape"></path>
                        </g>
                    </g>
                    <path d="M157.03125,38.5195312 C157.03125,41.3476704 156.26368,43.5097581 154.728516,45.0058594 C153.193352,46.5019606 150.984389,47.25 148.101562,47.25 L143.355469,47.25 L143.355469,30.1171875 L148.605469,30.1171875 C151.269545,30.1171875 153.339836,30.8554614 154.816406,32.3320312 C156.292976,33.8086011 157.03125,35.8710805 157.03125,38.5195312 Z M154.921875,38.5898438 C154.921875,36.3554576 154.361334,34.6718807 153.240234,33.5390625 C152.119135,32.4062443 150.453136,31.8398438 148.242188,31.8398438 L145.347656,31.8398438 L145.347656,45.5273438 L147.773438,45.5273438 C150.148449,45.5273438 151.933588,44.9433652 153.128906,43.7753906 C154.324225,42.607416 154.921875,40.8789177 154.921875,38.5898438 Z M171.644531,40.8164062 C171.644531,42.9101667 171.117193,44.544916 170.0625,45.7207031 C169.007807,46.8964903 167.550791,47.484375 165.691406,47.484375 C164.542963,47.484375 163.523442,47.2148464 162.632812,46.6757812 C161.742183,46.1367161 161.05469,45.3632863 160.570312,44.3554688 C160.085935,43.3476512 159.84375,42.1679755 159.84375,40.8164062 C159.84375,38.7226458 160.367182,37.0918027 161.414062,35.9238281 C162.460943,34.7558535 163.914053,34.171875 165.773438,34.171875 C167.570321,34.171875 168.998042,34.7695253 170.056641,35.9648438 C171.11524,37.1601622 171.644531,38.7773336 171.644531,40.8164062 Z M161.859375,40.8164062 C161.859375,42.4570395 162.187497,43.707027 162.84375,44.5664062 C163.500003,45.4257855 164.464837,45.8554688 165.738281,45.8554688 C167.011725,45.8554688 167.978512,45.4277387 168.638672,44.5722656 C169.298831,43.7167926 169.628906,42.464852 169.628906,40.8164062 C169.628906,39.1835856 169.298831,37.9433636 168.638672,37.0957031 C167.978512,36.2480426 167.003913,35.8242188 165.714844,35.8242188 C164.4414,35.8242188 163.480472,36.2421833 162.832031,37.078125 C162.183591,37.9140667 161.859375,39.160148 161.859375,40.8164062 Z M185.542969,47.25 L183.1875,39.7148438 C183.039062,39.2539039 182.761721,38.2070394 182.355469,36.5742188 L182.261719,36.5742188 C181.949217,37.9414131 181.675782,38.99609 181.441406,39.7382812 L179.015625,47.25 L176.765625,47.25 L173.261719,34.40625 L175.300781,34.40625 C176.12891,37.6328286 176.759763,40.0898353 177.193359,41.7773438 C177.626955,43.4648522 177.875,44.6015596 177.9375,45.1875 L178.03125,45.1875 C178.117188,44.7421853 178.255858,44.1660192 178.447266,43.4589844 C178.638673,42.7519496 178.804687,42.1914083 178.945312,41.7773438 L181.300781,34.40625 L183.410156,34.40625 L185.707031,41.7773438 C186.144533,43.1211005 186.441405,44.2499954 186.597656,45.1640625 L186.691406,45.1640625 C186.722656,44.8828111 186.80664,44.4492217 186.943359,43.8632812 C187.080079,43.2773408 187.894524,40.1250286 189.386719,34.40625 L191.402344,34.40625 L187.851562,47.25 L185.542969,47.25 Z M202.511719,47.25 L202.511719,38.9414062 C202.511719,37.894526 202.27344,37.1132838 201.796875,36.5976562 C201.32031,36.0820287 200.574224,35.8242188 199.558594,35.8242188 C198.214837,35.8242188 197.230472,36.1874964 196.605469,36.9140625 C195.980466,37.6406286 195.667969,38.8398354 195.667969,40.5117188 L195.667969,47.25 L193.722656,47.25 L193.722656,34.40625 L195.304688,34.40625 L195.621094,36.1640625 L195.714844,36.1640625 C196.113283,35.5312468 196.671871,35.0410174 197.390625,34.6933594 C198.109379,34.3457014 198.910152,34.171875 199.792969,34.171875 C201.339851,34.171875 202.503902,34.5449181 203.285156,35.2910156 C204.06641,36.0371131 204.457031,37.2304605 204.457031,38.8710938 L204.457031,47.25 L202.511719,47.25 Z M210.398438,47.25 L208.453125,47.25 L208.453125,29.015625 L210.398438,29.015625 L210.398438,47.25 Z M225.609375,40.8164062 C225.609375,42.9101667 225.082037,44.544916 224.027344,45.7207031 C222.972651,46.8964903 221.515634,47.484375 219.65625,47.484375 C218.507807,47.484375 217.488286,47.2148464 216.597656,46.6757812 C215.707027,46.1367161 215.019534,45.3632863 214.535156,44.3554688 C214.050779,43.3476512 213.808594,42.1679755 213.808594,40.8164062 C213.808594,38.7226458 214.332026,37.0918027 215.378906,35.9238281 C216.425786,34.7558535 217.878897,34.171875 219.738281,34.171875 C221.535165,34.171875 222.962885,34.7695253 224.021484,35.9648438 C225.080083,37.1601622 225.609375,38.7773336 225.609375,40.8164062 Z M215.824219,40.8164062 C215.824219,42.4570395 216.15234,43.707027 216.808594,44.5664062 C217.464847,45.4257855 218.429681,45.8554688 219.703125,45.8554688 C220.976569,45.8554688 221.943356,45.4277387 222.603516,44.5722656 C223.263675,43.7167926 223.59375,42.464852 223.59375,40.8164062 C223.59375,39.1835856 223.263675,37.9433636 222.603516,37.0957031 C221.943356,36.2480426 220.968756,35.8242188 219.679688,35.8242188 C218.406244,35.8242188 217.445316,36.2421833 216.796875,37.078125 C216.148434,37.9140667 215.824219,39.160148 215.824219,40.8164062 Z M236.917969,47.25 L236.53125,45.421875 L236.4375,45.421875 C235.796872,46.2265665 235.158206,46.7714829 234.521484,47.0566406 C233.884762,47.3417983 233.089849,47.484375 232.136719,47.484375 C230.863275,47.484375 229.865238,47.1562533 229.142578,46.5 C228.419918,45.8437467 228.058594,44.9101623 228.058594,43.6992188 C228.058594,41.1054558 230.132792,39.7460944 234.28125,39.6210938 L236.460938,39.5507812 L236.460938,38.7539062 C236.460938,37.7460887 236.244143,37.0019555 235.810547,36.5214844 C235.376951,36.0410132 234.683599,35.8007812 233.730469,35.8007812 C232.660151,35.8007812 231.449226,36.128903 230.097656,36.7851562 L229.5,35.296875 C230.132816,34.9531233 230.826168,34.6835947 231.580078,34.4882812 C232.333988,34.2929678 233.08984,34.1953125 233.847656,34.1953125 C235.378914,34.1953125 236.513668,34.5351529 237.251953,35.2148438 C237.990238,35.8945346 238.359375,36.9843675 238.359375,38.484375 L238.359375,47.25 L236.917969,47.25 Z M232.523438,45.8789062 C233.734381,45.8789062 234.685543,45.5468783 235.376953,44.8828125 C236.068363,44.2187467 236.414062,43.2890685 236.414062,42.09375 L236.414062,40.9335938 L234.46875,41.015625 C232.921867,41.0703128 231.806644,41.3105447 231.123047,41.7363281 C230.43945,42.1621115 230.097656,42.8242143 230.097656,43.7226562 C230.097656,44.4257848 230.310545,44.9609357 230.736328,45.328125 C231.162112,45.6953143 231.757809,45.8789062 232.523438,45.8789062 Z M251.109375,45.5273438 L251.003906,45.5273438 C250.105464,46.8320378 248.761728,47.484375 246.972656,47.484375 C245.29296,47.484375 243.986333,46.910162 243.052734,45.7617188 C242.119136,44.6132755 241.652344,42.9804793 241.652344,40.8632812 C241.652344,38.7460832 242.121089,37.1015684 243.058594,35.9296875 C243.996098,34.7578066 245.300773,34.171875 246.972656,34.171875 C248.714852,34.171875 250.050777,34.8046812 250.980469,36.0703125 L251.132812,36.0703125 L251.050781,35.1445312 L251.003906,34.2421875 L251.003906,29.015625 L252.949219,29.015625 L252.949219,47.25 L251.367188,47.25 L251.109375,45.5273438 Z M247.21875,45.8554688 C248.546882,45.8554688 249.509763,45.4941442 250.107422,44.7714844 C250.705081,44.0488245 251.003906,42.8828205 251.003906,41.2734375 L251.003906,40.8632812 C251.003906,39.0429596 250.701175,37.7441445 250.095703,36.9667969 C249.490231,36.1894492 248.523444,35.8007812 247.195312,35.8007812 C246.054682,35.8007812 245.181644,36.2441362 244.576172,37.1308594 C243.9707,38.0175826 243.667969,39.2695232 243.667969,40.8867188 C243.667969,42.527352 243.968747,43.7656208 244.570312,44.6015625 C245.171878,45.4375042 246.054682,45.8554688 247.21875,45.8554688 Z M269.097656,35.9179688 L265.828125,35.9179688 L265.828125,47.25 L263.882812,47.25 L263.882812,35.9179688 L261.585938,35.9179688 L261.585938,35.0390625 L263.882812,34.3359375 L263.882812,33.6210938 C263.882812,30.464828 265.261705,28.8867188 268.019531,28.8867188 C268.699222,28.8867188 269.496089,29.0234361 270.410156,29.296875 L269.90625,30.8554688 C269.156246,30.61328 268.515628,30.4921875 267.984375,30.4921875 C267.249996,30.4921875 266.707033,30.7363257 266.355469,31.2246094 C266.003904,31.7128931 265.828125,32.4960884 265.828125,33.5742188 L265.828125,34.40625 L269.097656,34.40625 L269.097656,35.9179688 Z M282.527344,40.8164062 C282.527344,42.9101667 282.000005,44.544916 280.945312,45.7207031 C279.89062,46.8964903 278.433603,47.484375 276.574219,47.484375 C275.425776,47.484375 274.406254,47.2148464 273.515625,46.6757812 C272.624996,46.1367161 271.937502,45.3632863 271.453125,44.3554688 C270.968748,43.3476512 270.726562,42.1679755 270.726562,40.8164062 C270.726562,38.7226458 271.249995,37.0918027 272.296875,35.9238281 C273.343755,34.7558535 274.796866,34.171875 276.65625,34.171875 C278.453134,34.171875 279.880854,34.7695253 280.939453,35.9648438 C281.998052,37.1601622 282.527344,38.7773336 282.527344,40.8164062 Z M272.742188,40.8164062 C272.742188,42.4570395 273.070309,43.707027 273.726562,44.5664062 C274.382816,45.4257855 275.34765,45.8554688 276.621094,45.8554688 C277.894538,45.8554688 278.861325,45.4277387 279.521484,44.5722656 C280.181644,43.7167926 280.511719,42.464852 280.511719,40.8164062 C280.511719,39.1835856 280.181644,37.9433636 279.521484,37.0957031 C278.861325,36.2480426 277.886725,35.8242188 276.597656,35.8242188 C275.324212,35.8242188 274.363284,36.2421833 273.714844,37.078125 C273.066403,37.9140667 272.742188,39.160148 272.742188,40.8164062 Z M291.796875,34.171875 C292.36719,34.171875 292.878904,34.2187495 293.332031,34.3125 L293.0625,36.1171875 C292.531247,35.9999994 292.062502,35.9414062 291.65625,35.9414062 C290.617182,35.9414062 289.728519,36.363277 288.990234,37.2070312 C288.251949,38.0507855 287.882812,39.1015562 287.882812,40.359375 L287.882812,47.25 L285.9375,47.25 L285.9375,34.40625 L287.542969,34.40625 L287.765625,36.7851562 L287.859375,36.7851562 C288.33594,35.9492146 288.910153,35.3046898 289.582031,34.8515625 C290.25391,34.3984352 290.992183,34.171875 291.796875,34.171875 Z M162.75293,84.75 L159.865723,76.7211914 L148.811279,76.7211914 L145.983398,84.75 L141,84.75 L151.817139,55.7197266 L156.95874,55.7197266 L167.775879,84.75 L162.75293,84.75 Z M158.619873,72.6474609 L155.910645,64.7768555 C155.71289,64.2495091 155.439333,63.418951 155.089966,62.2851562 C154.740599,61.1513615 154.500001,60.3208034 154.368164,59.793457 C154.012205,61.4150472 153.491459,63.1882228 152.805908,65.1130371 L150.195557,72.6474609 L158.619873,72.6474609 Z M190.3396,84.75 L185.672607,84.75 L185.672607,71.3027344 C185.672607,69.6152259 185.333133,68.3562053 184.654175,67.5256348 C183.975216,66.6950642 182.897468,66.2797852 181.420898,66.2797852 C179.456533,66.2797852 178.019536,66.8598575 177.109863,68.0200195 C176.200191,69.1801816 175.745361,71.1247422 175.745361,73.8537598 L175.745361,84.75 L171.098145,84.75 L171.098145,62.878418 L174.736816,62.878418 L175.389404,65.7458496 L175.626709,65.7458496 C176.285892,64.7043405 177.221918,63.9001493 178.434814,63.333252 C179.647711,62.7663546 180.992424,62.4829102 182.468994,62.4829102 C187.716091,62.4829102 190.3396,65.1525612 190.3396,70.4919434 L190.3396,84.75 Z M204.182373,85.1455078 C201.453355,85.1455078 199.324226,84.1567482 197.794922,82.1791992 C196.265617,80.2016503 195.500977,77.4265315 195.500977,73.8537598 C195.500977,70.2678043 196.275505,67.4762063 197.824585,65.4788818 C199.373665,63.4815574 201.519273,62.4829102 204.261475,62.4829102 C207.135512,62.4829102 209.323967,63.5441788 210.826904,65.666748 L211.064209,65.666748 C210.840087,64.0978925 210.728027,62.8586471 210.728027,61.9489746 L210.728027,53.9794922 L215.39502,53.9794922 L215.39502,84.75 L211.756348,84.75 L210.945557,81.8825684 L210.728027,81.8825684 C209.238274,84.0578722 207.056411,85.1455078 204.182373,85.1455078 Z M205.428223,81.3881836 C207.339853,81.3881836 208.730709,80.8509575 209.60083,79.7764893 C210.470952,78.702021 210.919189,76.9585082 210.945557,74.5458984 L210.945557,73.8933105 C210.945557,71.1379257 210.497319,69.1801816 209.60083,68.0200195 C208.704341,66.8598575 207.300303,66.2797852 205.388672,66.2797852 C203.753898,66.2797852 202.494877,66.9422541 201.611572,68.2672119 C200.728267,69.5921697 200.286621,71.4807006 200.286621,73.9328613 C200.286621,76.3586547 200.715084,78.2076352 201.572021,79.4798584 C202.428959,80.7520816 203.714347,81.3881836 205.428223,81.3881836 Z M233.133545,62.4829102 C234.069585,62.4829102 234.840817,62.5488275 235.447266,62.6806641 L234.992432,67.0114746 C234.333249,66.8532707 233.647709,66.7741699 232.935791,66.7741699 C231.076895,66.7741699 229.570684,67.3806092 228.417114,68.5935059 C227.263544,69.8064025 226.686768,71.3818262 226.686768,73.3198242 L226.686768,84.75 L222.039551,84.75 L222.039551,62.878418 L225.678223,62.878418 L226.29126,66.7346191 L226.528564,66.7346191 C227.253666,65.4294368 228.199579,64.3945351 229.366333,63.6298828 C230.533087,62.8652306 231.788812,62.4829102 233.133545,62.4829102 Z M258.900879,73.7746582 C258.900879,77.34743 257.984628,80.1357322 256.1521,82.1396484 C254.319571,84.1435647 251.768571,85.1455078 248.499023,85.1455078 C246.455556,85.1455078 244.649422,84.6840866 243.080566,83.7612305 C241.511711,82.8383743 240.305424,81.5134364 239.46167,79.786377 C238.617916,78.0593175 238.196045,76.0554313 238.196045,73.7746582 C238.196045,70.2282538 239.105704,67.4597268 240.925049,65.4689941 C242.744394,63.4782615 245.308577,62.4829102 248.617676,62.4829102 C251.781754,62.4829102 254.286612,63.5013326 256.132324,65.538208 C257.978037,67.5750834 258.900879,70.3205394 258.900879,73.7746582 Z M242.981689,73.7746582 C242.981689,78.8239999 244.847149,81.3486328 248.578125,81.3486328 C252.26955,81.3486328 254.115234,78.8239999 254.115234,73.7746582 C254.115234,68.7780512 252.256366,66.2797852 248.538574,66.2797852 C246.587393,66.2797852 245.173466,66.9257748 244.296753,68.2177734 C243.42004,69.5097721 242.981689,71.3620485 242.981689,73.7746582 Z M268.887451,84.75 L264.240234,84.75 L264.240234,62.878418 L268.887451,62.878418 L268.887451,84.75 Z M263.963379,57.0842285 C263.963379,56.253658 264.190794,55.6142601 264.64563,55.1660156 C265.100466,54.7177712 265.749752,54.4936523 266.593506,54.4936523 C267.410893,54.4936523 268.046995,54.7177712 268.501831,55.1660156 C268.956667,55.6142601 269.184082,56.253658 269.184082,57.0842285 C269.184082,57.8752481 268.956667,58.4981667 268.501831,58.9530029 C268.046995,59.4078392 267.410893,59.6352539 266.593506,59.6352539 C265.749752,59.6352539 265.100466,59.4078392 264.64563,58.9530029 C264.190794,58.4981667 263.963379,57.8752481 263.963379,57.0842285 Z M282.908203,85.1455078 C280.179186,85.1455078 278.050056,84.1567482 276.520752,82.1791992 C274.991447,80.2016503 274.226807,77.4265315 274.226807,73.8537598 C274.226807,70.2678043 275.001335,67.4762063 276.550415,65.4788818 C278.099495,63.4815574 280.245103,62.4829102 282.987305,62.4829102 C285.861342,62.4829102 288.049797,63.5441788 289.552734,65.666748 L289.790039,65.666748 C289.565917,64.0978925 289.453857,62.8586471 289.453857,61.9489746 L289.453857,53.9794922 L294.12085,53.9794922 L294.12085,84.75 L290.482178,84.75 L289.671387,81.8825684 L289.453857,81.8825684 C287.964104,84.0578722 285.782241,85.1455078 282.908203,85.1455078 Z M284.154053,81.3881836 C286.065683,81.3881836 287.456539,80.8509575 288.32666,79.7764893 C289.196782,78.702021 289.645019,76.9585082 289.671387,74.5458984 L289.671387,73.8933105 C289.671387,71.1379257 289.223149,69.1801816 288.32666,68.0200195 C287.430171,66.8598575 286.026133,66.2797852 284.114502,66.2797852 C282.479728,66.2797852 281.220708,66.9422541 280.337402,68.2672119 C279.454097,69.5921697 279.012451,71.4807006 279.012451,73.9328613 C279.012451,76.3586547 279.440914,78.2076352 280.297852,79.4798584 C281.154789,80.7520816 282.440177,81.3881836 284.154053,81.3881836 Z" id="Download-for-Android" fill="#FFFFFF"></path>
                </g>
            </g>
        </g>
    </g>
</svg>