<?xml version="1.0" encoding="UTF-8"?>
<svg width="350px" height="120px" viewBox="0 0 350 120" version="1.1" xmlns="http://www.w3.org/2000/svg" xmlns:xlink="http://www.w3.org/1999/xlink">
    <!-- Generator: Sketch 51.3 (57544) - http://www.bohemiancoding.com/sketch -->
    <title>Group 3</title>
    <desc>Created with Sketch.</desc>
    <defs>
        <linearGradient x1="50%" y1="0%" x2="50%" y2="100%" id="linearGradient-1">
            <stop stop-color="#1C6FF3" offset="0%"></stop>
            <stop stop-color="#1652F0" offset="100%"></stop>
        </linearGradient>
    </defs>
    <g id="Page-1" stroke="none" stroke-width="1" fill="none" fill-rule="evenodd">
        <g id="hero---2.0-copy-2" transform="translate(-1059.000000, -974.000000)">
            <g id="download" transform="translate(1059.000000, 974.000000)">
                <g id="Group-3">
                    <g id="Group-2">
                        <rect id="Rectangle-2" fill="url(#linearGradient-1)" x="0" y="0" width="350" height="120" rx="7.5"></rect>
                        <g id="apple" transform="translate(25.000000, 15.000000)" fill="#FFFFFF" fill-rule="nonzero">
                            <path d="M4.05383607,33.0842951 C-3.55485246,46.2877377 1.28213115,66.3246885 9.69609836,78.4738033 C13.896,84.5477705 18.1481311,90 23.9721639,90 C24.0819344,90 24.192,89.9979344 24.3047213,89.9935082 C27.0410164,89.8843279 29.0183607,89.0418689 30.9301967,88.2277377 C33.076623,87.3129836 35.2965246,86.3672459 38.7784918,86.3672459 C42.091082,86.3672459 44.2050492,87.2822951 46.249377,88.1669508 C48.2641967,89.038623 50.3395082,89.9403934 53.406,89.8828525 C59.9662623,89.7606885 63.9941311,83.8773443 67.5478033,78.6871475 C71.2560984,73.2679672 73.1162951,68.0063607 73.7439344,65.9956721 L73.7693115,65.9157049 C73.8888197,65.5583607 73.7200328,65.1682623 73.3774426,65.0109836 C73.368,65.0065574 73.3331803,64.9920984 73.3234426,64.9879672 C72.1681967,64.515541 62.0344918,60.0199672 61.9279672,47.7669836 C61.8291148,37.8120984 69.5301639,32.540459 71.074623,31.5849836 L71.146623,31.5401311 C71.3139344,31.4324262 71.4304918,31.2615738 71.4700328,31.0662295 C71.5095738,30.8711803 71.4682623,30.6681639 71.3561311,30.5040984 C66.0405246,22.7251475 57.8933115,21.5527869 54.6131803,21.4117377 C54.1372131,21.3642295 53.6459016,21.3403279 53.1525246,21.3403279 C49.2999344,21.3403279 45.6093443,22.795377 42.6443607,23.9644918 C40.5976721,24.771541 38.8298361,25.4685246 37.6105574,25.4685246 C36.2404918,25.4685246 34.462623,24.7629836 32.4038361,23.9461967 C29.6507213,22.8535082 26.5302295,21.6153443 23.2267869,21.6153443 C23.148,21.6153443 23.0703934,21.6162295 22.9939672,21.6177049 C15.3129836,21.7307213 8.05514754,26.125082 4.05383607,33.0842951 Z" id="XMLID_229_"></path>
                            <path d="M54.6199672,0.000590163934 C49.9685902,0.190032787 44.3888852,3.05321311 41.0538689,6.9595082 C38.2196066,10.2428852 35.4508525,15.7172459 36.1802951,21.2352787 C36.2260328,21.5805246 36.5069508,21.8469836 36.8542623,21.8738361 C37.1682295,21.8983279 37.4886885,21.9107213 37.8079672,21.9110164 C42.3560656,21.9110164 47.2623934,19.3948525 50.6130492,15.343377 C54.1395738,11.0652787 55.9227541,5.57498361 55.3833443,0.657147541 C55.3408525,0.271770492 55.0018033,-0.0144590164 54.6199672,0.000590163934 Z" id="XMLID_230_"></path>
                        </g>
                    </g>
                    <path d="M139.03125,38.5195312 C139.03125,41.3476704 138.26368,43.5097581 136.728516,45.0058594 C135.193352,46.5019606 132.984389,47.25 130.101562,47.25 L125.355469,47.25 L125.355469,30.1171875 L130.605469,30.1171875 C133.269545,30.1171875 135.339836,30.8554614 136.816406,32.3320312 C138.292976,33.8086011 139.03125,35.8710805 139.03125,38.5195312 Z M136.921875,38.5898438 C136.921875,36.3554576 136.361334,34.6718807 135.240234,33.5390625 C134.119135,32.4062443 132.453136,31.8398438 130.242188,31.8398438 L127.347656,31.8398438 L127.347656,45.5273438 L129.773438,45.5273438 C132.148449,45.5273438 133.933588,44.9433652 135.128906,43.7753906 C136.324225,42.607416 136.921875,40.8789177 136.921875,38.5898438 Z M153.644531,40.8164062 C153.644531,42.9101667 153.117193,44.544916 152.0625,45.7207031 C151.007807,46.8964903 149.550791,47.484375 147.691406,47.484375 C146.542963,47.484375 145.523442,47.2148464 144.632812,46.6757812 C143.742183,46.1367161 143.05469,45.3632863 142.570312,44.3554688 C142.085935,43.3476512 141.84375,42.1679755 141.84375,40.8164062 C141.84375,38.7226458 142.367182,37.0918027 143.414062,35.9238281 C144.460943,34.7558535 145.914053,34.171875 147.773438,34.171875 C149.570321,34.171875 150.998042,34.7695253 152.056641,35.9648438 C153.11524,37.1601622 153.644531,38.7773336 153.644531,40.8164062 Z M143.859375,40.8164062 C143.859375,42.4570395 144.187497,43.707027 144.84375,44.5664062 C145.500003,45.4257855 146.464837,45.8554688 147.738281,45.8554688 C149.011725,45.8554688 149.978512,45.4277387 150.638672,44.5722656 C151.298831,43.7167926 151.628906,42.464852 151.628906,40.8164062 C151.628906,39.1835856 151.298831,37.9433636 150.638672,37.0957031 C149.978512,36.2480426 149.003913,35.8242188 147.714844,35.8242188 C146.4414,35.8242188 145.480472,36.2421833 144.832031,37.078125 C144.183591,37.9140667 143.859375,39.160148 143.859375,40.8164062 Z M167.542969,47.25 L165.1875,39.7148438 C165.039062,39.2539039 164.761721,38.2070394 164.355469,36.5742188 L164.261719,36.5742188 C163.949217,37.9414131 163.675782,38.99609 163.441406,39.7382812 L161.015625,47.25 L158.765625,47.25 L155.261719,34.40625 L157.300781,34.40625 C158.12891,37.6328286 158.759763,40.0898353 159.193359,41.7773438 C159.626955,43.4648522 159.875,44.6015596 159.9375,45.1875 L160.03125,45.1875 C160.117188,44.7421853 160.255858,44.1660192 160.447266,43.4589844 C160.638673,42.7519496 160.804687,42.1914083 160.945312,41.7773438 L163.300781,34.40625 L165.410156,34.40625 L167.707031,41.7773438 C168.144533,43.1211005 168.441405,44.2499954 168.597656,45.1640625 L168.691406,45.1640625 C168.722656,44.8828111 168.80664,44.4492217 168.943359,43.8632812 C169.080079,43.2773408 169.894524,40.1250286 171.386719,34.40625 L173.402344,34.40625 L169.851562,47.25 L167.542969,47.25 Z M184.511719,47.25 L184.511719,38.9414062 C184.511719,37.894526 184.27344,37.1132838 183.796875,36.5976562 C183.32031,36.0820287 182.574224,35.8242188 181.558594,35.8242188 C180.214837,35.8242188 179.230472,36.1874964 178.605469,36.9140625 C177.980466,37.6406286 177.667969,38.8398354 177.667969,40.5117188 L177.667969,47.25 L175.722656,47.25 L175.722656,34.40625 L177.304688,34.40625 L177.621094,36.1640625 L177.714844,36.1640625 C178.113283,35.5312468 178.671871,35.0410174 179.390625,34.6933594 C180.109379,34.3457014 180.910152,34.171875 181.792969,34.171875 C183.339851,34.171875 184.503902,34.5449181 185.285156,35.2910156 C186.06641,36.0371131 186.457031,37.2304605 186.457031,38.8710938 L186.457031,47.25 L184.511719,47.25 Z M192.398438,47.25 L190.453125,47.25 L190.453125,29.015625 L192.398438,29.015625 L192.398438,47.25 Z M207.609375,40.8164062 C207.609375,42.9101667 207.082037,44.544916 206.027344,45.7207031 C204.972651,46.8964903 203.515634,47.484375 201.65625,47.484375 C200.507807,47.484375 199.488286,47.2148464 198.597656,46.6757812 C197.707027,46.1367161 197.019534,45.3632863 196.535156,44.3554688 C196.050779,43.3476512 195.808594,42.1679755 195.808594,40.8164062 C195.808594,38.7226458 196.332026,37.0918027 197.378906,35.9238281 C198.425786,34.7558535 199.878897,34.171875 201.738281,34.171875 C203.535165,34.171875 204.962885,34.7695253 206.021484,35.9648438 C207.080083,37.1601622 207.609375,38.7773336 207.609375,40.8164062 Z M197.824219,40.8164062 C197.824219,42.4570395 198.15234,43.707027 198.808594,44.5664062 C199.464847,45.4257855 200.429681,45.8554688 201.703125,45.8554688 C202.976569,45.8554688 203.943356,45.4277387 204.603516,44.5722656 C205.263675,43.7167926 205.59375,42.464852 205.59375,40.8164062 C205.59375,39.1835856 205.263675,37.9433636 204.603516,37.0957031 C203.943356,36.2480426 202.968756,35.8242188 201.679688,35.8242188 C200.406244,35.8242188 199.445316,36.2421833 198.796875,37.078125 C198.148434,37.9140667 197.824219,39.160148 197.824219,40.8164062 Z M218.917969,47.25 L218.53125,45.421875 L218.4375,45.421875 C217.796872,46.2265665 217.158206,46.7714829 216.521484,47.0566406 C215.884762,47.3417983 215.089849,47.484375 214.136719,47.484375 C212.863275,47.484375 211.865238,47.1562533 211.142578,46.5 C210.419918,45.8437467 210.058594,44.9101623 210.058594,43.6992188 C210.058594,41.1054558 212.132792,39.7460944 216.28125,39.6210938 L218.460938,39.5507812 L218.460938,38.7539062 C218.460938,37.7460887 218.244143,37.0019555 217.810547,36.5214844 C217.376951,36.0410132 216.683599,35.8007812 215.730469,35.8007812 C214.660151,35.8007812 213.449226,36.128903 212.097656,36.7851562 L211.5,35.296875 C212.132816,34.9531233 212.826168,34.6835947 213.580078,34.4882812 C214.333988,34.2929678 215.08984,34.1953125 215.847656,34.1953125 C217.378914,34.1953125 218.513668,34.5351529 219.251953,35.2148438 C219.990238,35.8945346 220.359375,36.9843675 220.359375,38.484375 L220.359375,47.25 L218.917969,47.25 Z M214.523438,45.8789062 C215.734381,45.8789062 216.685543,45.5468783 217.376953,44.8828125 C218.068363,44.2187467 218.414062,43.2890685 218.414062,42.09375 L218.414062,40.9335938 L216.46875,41.015625 C214.921867,41.0703128 213.806644,41.3105447 213.123047,41.7363281 C212.43945,42.1621115 212.097656,42.8242143 212.097656,43.7226562 C212.097656,44.4257848 212.310545,44.9609357 212.736328,45.328125 C213.162112,45.6953143 213.757809,45.8789062 214.523438,45.8789062 Z M233.109375,45.5273438 L233.003906,45.5273438 C232.105464,46.8320378 230.761728,47.484375 228.972656,47.484375 C227.29296,47.484375 225.986333,46.910162 225.052734,45.7617188 C224.119136,44.6132755 223.652344,42.9804793 223.652344,40.8632812 C223.652344,38.7460832 224.121089,37.1015684 225.058594,35.9296875 C225.996098,34.7578066 227.300773,34.171875 228.972656,34.171875 C230.714852,34.171875 232.050777,34.8046812 232.980469,36.0703125 L233.132812,36.0703125 L233.050781,35.1445312 L233.003906,34.2421875 L233.003906,29.015625 L234.949219,29.015625 L234.949219,47.25 L233.367188,47.25 L233.109375,45.5273438 Z M229.21875,45.8554688 C230.546882,45.8554688 231.509763,45.4941442 232.107422,44.7714844 C232.705081,44.0488245 233.003906,42.8828205 233.003906,41.2734375 L233.003906,40.8632812 C233.003906,39.0429596 232.701175,37.7441445 232.095703,36.9667969 C231.490231,36.1894492 230.523444,35.8007812 229.195312,35.8007812 C228.054682,35.8007812 227.181644,36.2441362 226.576172,37.1308594 C225.9707,38.0175826 225.667969,39.2695232 225.667969,40.8867188 C225.667969,42.527352 225.968747,43.7656208 226.570312,44.6015625 C227.171878,45.4375042 228.054682,45.8554688 229.21875,45.8554688 Z M256.394531,40.8164062 C256.394531,42.9101667 255.867193,44.544916 254.8125,45.7207031 C253.757807,46.8964903 252.300791,47.484375 250.441406,47.484375 C249.292963,47.484375 248.273442,47.2148464 247.382812,46.6757812 C246.492183,46.1367161 245.80469,45.3632863 245.320312,44.3554688 C244.835935,43.3476512 244.59375,42.1679755 244.59375,40.8164062 C244.59375,38.7226458 245.117182,37.0918027 246.164062,35.9238281 C247.210943,34.7558535 248.664053,34.171875 250.523438,34.171875 C252.320321,34.171875 253.748042,34.7695253 254.806641,35.9648438 C255.86524,37.1601622 256.394531,38.7773336 256.394531,40.8164062 Z M246.609375,40.8164062 C246.609375,42.4570395 246.937497,43.707027 247.59375,44.5664062 C248.250003,45.4257855 249.214837,45.8554688 250.488281,45.8554688 C251.761725,45.8554688 252.728512,45.4277387 253.388672,44.5722656 C254.048831,43.7167926 254.378906,42.464852 254.378906,40.8164062 C254.378906,39.1835856 254.048831,37.9433636 253.388672,37.0957031 C252.728512,36.2480426 251.753913,35.8242188 250.464844,35.8242188 C249.1914,35.8242188 248.230472,36.2421833 247.582031,37.078125 C246.933591,37.9140667 246.609375,39.160148 246.609375,40.8164062 Z M268.59375,47.25 L268.59375,38.9414062 C268.59375,37.894526 268.355471,37.1132838 267.878906,36.5976562 C267.402341,36.0820287 266.656255,35.8242188 265.640625,35.8242188 C264.296868,35.8242188 263.312503,36.1874964 262.6875,36.9140625 C262.062497,37.6406286 261.75,38.8398354 261.75,40.5117188 L261.75,47.25 L259.804688,47.25 L259.804688,34.40625 L261.386719,34.40625 L261.703125,36.1640625 L261.796875,36.1640625 C262.195314,35.5312468 262.753903,35.0410174 263.472656,34.6933594 C264.19141,34.3457014 264.992183,34.171875 265.875,34.171875 C267.421883,34.171875 268.585934,34.5449181 269.367188,35.2910156 C270.148441,36.0371131 270.539062,37.2304605 270.539062,38.8710938 L270.539062,47.25 L268.59375,47.25 Z M284.917969,45.8789062 C285.26172,45.8789062 285.593748,45.8535159 285.914062,45.8027344 C286.234377,45.7519529 286.48828,45.699219 286.675781,45.6445312 L286.675781,47.1328125 C286.464843,47.2343755 286.154299,47.318359 285.744141,47.3847656 C285.333982,47.4511722 284.964845,47.484375 284.636719,47.484375 C282.152331,47.484375 280.910156,46.1757943 280.910156,43.5585938 L280.910156,35.9179688 L279.070312,35.9179688 L279.070312,34.9804688 L280.910156,34.171875 L281.730469,31.4296875 L282.855469,31.4296875 L282.855469,34.40625 L286.582031,34.40625 L286.582031,35.9179688 L282.855469,35.9179688 L282.855469,43.4765625 C282.855469,44.2500039 283.039061,44.8437479 283.40625,45.2578125 C283.773439,45.6718771 284.277341,45.8789062 284.917969,45.8789062 Z M298.03125,47.25 L298.03125,38.9414062 C298.03125,37.894526 297.792971,37.1132838 297.316406,36.5976562 C296.839841,36.0820287 296.093755,35.8242188 295.078125,35.8242188 C293.726556,35.8242188 292.740237,36.1914026 292.119141,36.9257812 C291.498044,37.6601599 291.1875,38.8632729 291.1875,40.5351562 L291.1875,47.25 L289.242188,47.25 L289.242188,29.015625 L291.1875,29.015625 L291.1875,34.5351562 C291.1875,35.1992221 291.15625,35.7499978 291.09375,36.1875 L291.210938,36.1875 C291.593752,35.5703094 292.138668,35.0839862 292.845703,34.7285156 C293.552738,34.3730451 294.35937,34.1953125 295.265625,34.1953125 C296.835945,34.1953125 298.013668,34.5683556 298.798828,35.3144531 C299.583988,36.0605506 299.976562,37.2460856 299.976562,38.8710938 L299.976562,47.25 L298.03125,47.25 Z M309.398438,47.484375 C307.499991,47.484375 306.001959,46.9062558 304.904297,45.75 C303.806635,44.5937442 303.257812,42.9882915 303.257812,40.9335938 C303.257812,38.8632709 303.767573,37.2187561 304.787109,36 C305.806646,34.7812439 307.175773,34.171875 308.894531,34.171875 C310.503914,34.171875 311.777339,34.7011666 312.714844,35.7597656 C313.652348,36.8183647 314.121094,38.2148351 314.121094,39.9492188 L314.121094,41.1796875 L305.273438,41.1796875 C305.3125,42.6875075 305.693356,43.8320273 306.416016,44.6132812 C307.138675,45.3945352 308.156243,45.7851562 309.46875,45.7851562 C310.851569,45.7851562 312.218743,45.4960966 313.570312,44.9179688 L313.570312,46.6523438 C312.882809,46.9492202 312.232425,47.1621087 311.619141,47.2910156 C311.005856,47.4199225 310.265629,47.484375 309.398438,47.484375 Z M308.871094,35.8007812 C307.839839,35.8007812 307.017581,36.1367154 306.404297,36.8085938 C305.791013,37.4804721 305.429688,38.4101503 305.320312,39.5976562 L312.035156,39.5976562 C312.035156,38.3710876 311.761721,37.4316439 311.214844,36.7792969 C310.667966,36.1269499 309.886724,35.8007812 308.871094,35.8007812 Z M144.75293,84.75 L141.865723,76.7211914 L130.811279,76.7211914 L127.983398,84.75 L123,84.75 L133.817139,55.7197266 L138.95874,55.7197266 L149.775879,84.75 L144.75293,84.75 Z M140.619873,72.6474609 L137.910645,64.7768555 C137.71289,64.2495091 137.439333,63.418951 137.089966,62.2851562 C136.740599,61.1513615 136.500001,60.3208034 136.368164,59.793457 C136.012205,61.4150472 135.491459,63.1882228 134.805908,65.1130371 L132.195557,72.6474609 L140.619873,72.6474609 Z M164.192139,85.1455078 C161.42357,85.1455078 159.274666,84.1501564 157.745361,82.1594238 L157.468506,82.1594238 C157.653077,84.0051362 157.745361,85.1257304 157.745361,85.5212402 L157.745361,94.4794922 L153.098145,94.4794922 L153.098145,62.878418 L156.855469,62.878418 C156.960938,63.2871114 157.178465,64.2626876 157.508057,65.8051758 L157.745361,65.8051758 C159.195564,63.590321 161.370835,62.4829102 164.27124,62.4829102 C167.000258,62.4829102 169.126091,63.4716698 170.648804,65.4492188 C172.171516,67.4267677 172.932861,70.2018864 172.932861,73.7746582 C172.932861,77.34743 172.158333,80.1357322 170.609253,82.1396484 C169.060173,84.1435647 166.921156,85.1455078 164.192139,85.1455078 Z M163.064941,66.2797852 C161.219229,66.2797852 159.87122,66.8203071 159.020874,67.9013672 C158.170528,68.9824273 157.745361,70.7094608 157.745361,73.0825195 L157.745361,73.7746582 C157.745361,76.4377575 158.167232,78.3658388 159.010986,79.55896 C159.854741,80.7520812 161.232412,81.3486328 163.144043,81.3486328 C164.752449,81.3486328 165.991695,80.6894597 166.861816,79.3710938 C167.731938,78.0527278 168.166992,76.1740845 168.166992,73.7351074 C168.166992,71.2829467 167.735234,69.4273745 166.871704,68.168335 C166.008174,66.9092955 164.739266,66.2797852 163.064941,66.2797852 Z M189.425537,85.1455078 C186.656969,85.1455078 184.508064,84.1501564 182.97876,82.1594238 L182.701904,82.1594238 C182.886476,84.0051362 182.97876,85.1257304 182.97876,85.5212402 L182.97876,94.4794922 L178.331543,94.4794922 L178.331543,62.878418 L182.088867,62.878418 C182.194336,63.2871114 182.411864,64.2626876 182.741455,65.8051758 L182.97876,65.8051758 C184.428962,63.590321 186.604234,62.4829102 189.504639,62.4829102 C192.233656,62.4829102 194.359489,63.4716698 195.882202,65.4492188 C197.404915,67.4267677 198.16626,70.2018864 198.16626,73.7746582 C198.16626,77.34743 197.391731,80.1357322 195.842651,82.1396484 C194.293571,84.1435647 192.154555,85.1455078 189.425537,85.1455078 Z M188.29834,66.2797852 C186.452627,66.2797852 185.104619,66.8203071 184.254272,67.9013672 C183.403926,68.9824273 182.97876,70.7094608 182.97876,73.0825195 L182.97876,73.7746582 C182.97876,76.4377575 183.400631,78.3658388 184.244385,79.55896 C185.088139,80.7520812 186.465811,81.3486328 188.377441,81.3486328 C189.985848,81.3486328 191.225093,80.6894597 192.095215,79.3710938 C192.965336,78.0527278 193.400391,76.1740845 193.400391,73.7351074 C193.400391,71.2829467 192.968632,69.4273745 192.105103,68.168335 C191.241573,66.9092955 189.972665,66.2797852 188.29834,66.2797852 Z M231.250488,76.8991699 C231.250488,79.4699836 230.321054,81.4870532 228.462158,82.9504395 C226.603262,84.4138257 224.039079,85.1455078 220.769531,85.1455078 C217.499984,85.1455078 214.823741,84.6379445 212.740723,83.6228027 L212.740723,79.1535645 C214.059089,79.7731965 215.459831,80.2609845 216.942993,80.6169434 C218.426155,80.9729022 219.807123,81.1508789 221.085938,81.1508789 C222.958017,81.1508789 224.338985,80.7949254 225.228882,80.0830078 C226.118779,79.3710902 226.563721,78.4152892 226.563721,77.2155762 C226.563721,76.1345161 226.155033,75.2182655 225.337646,74.4667969 C224.52026,73.7153283 222.832776,72.8254446 220.275146,71.7971191 C217.638415,70.7292427 215.779546,69.5097725 214.698486,68.1386719 C213.617426,66.7675713 213.076904,65.1196385 213.076904,63.1948242 C213.076904,60.7822145 213.933829,58.883796 215.647705,57.4995117 C217.361581,56.1152275 219.662095,55.4230957 222.549316,55.4230957 C225.317885,55.4230957 228.073228,56.029535 230.81543,57.2424316 L229.3125,61.0986328 C226.741686,60.0175727 224.447764,59.4770508 222.430664,59.4770508 C220.90136,59.4770508 219.741215,59.8099332 218.950195,60.475708 C218.159176,61.1414828 217.763672,62.0214789 217.763672,63.1157227 C217.763672,63.8671913 217.921873,64.509885 218.238281,65.0438232 C218.554689,65.5777615 219.075436,66.0820289 219.800537,66.5566406 C220.525638,67.0312524 221.830801,67.6574668 223.716064,68.4353027 C225.838634,69.3186079 227.394282,70.1425743 228.383057,70.9072266 C229.371831,71.6718788 230.096922,72.5353956 230.55835,73.4978027 C231.019778,74.4602099 231.250488,75.5939876 231.250488,76.8991699 Z M244.5,81.3881836 C245.633795,81.3881836 246.767572,81.2102069 247.901367,80.854248 L247.901367,84.3544922 C247.387204,84.5786144 246.724735,84.7664787 245.91394,84.9180908 C245.103145,85.0697029 244.2627,85.1455078 243.392578,85.1455078 C238.989236,85.1455078 236.787598,82.8252185 236.787598,78.1845703 L236.787598,66.3984375 L233.801514,66.3984375 L233.801514,64.3417969 L237.005127,62.6411133 L238.587158,58.0136719 L241.45459,58.0136719 L241.45459,62.878418 L247.683838,62.878418 L247.683838,66.3984375 L241.45459,66.3984375 L241.45459,78.1054688 C241.45459,79.2260798 241.734738,80.0533421 242.295044,80.5872803 C242.855349,81.1212185 243.590327,81.3881836 244.5,81.3881836 Z M271.671387,73.7746582 C271.671387,77.34743 270.755136,80.1357322 268.922607,82.1396484 C267.090079,84.1435647 264.539079,85.1455078 261.269531,85.1455078 C259.226064,85.1455078 257.41993,84.6840866 255.851074,83.7612305 C254.282219,82.8383743 253.075932,81.5134364 252.232178,79.786377 C251.388424,78.0593175 250.966553,76.0554313 250.966553,73.7746582 C250.966553,70.2282538 251.876212,67.4597268 253.695557,65.4689941 C255.514902,63.4782615 258.079085,62.4829102 261.388184,62.4829102 C264.552262,62.4829102 267.05712,63.5013326 268.902832,65.538208 C270.748544,67.5750834 271.671387,70.3205394 271.671387,73.7746582 Z M255.752197,73.7746582 C255.752197,78.8239999 257.617657,81.3486328 261.348633,81.3486328 C265.040058,81.3486328 266.885742,78.8239999 266.885742,73.7746582 C266.885742,68.7780512 265.026874,66.2797852 261.309082,66.2797852 C259.3579,66.2797852 257.943974,66.9257748 257.067261,68.2177734 C256.190547,69.5097721 255.752197,71.3620485 255.752197,73.7746582 Z M288.104736,62.4829102 C289.040776,62.4829102 289.812009,62.5488275 290.418457,62.6806641 L289.963623,67.0114746 C289.30444,66.8532707 288.6189,66.7741699 287.906982,66.7741699 C286.048086,66.7741699 284.541876,67.3806092 283.388306,68.5935059 C282.234735,69.8064025 281.657959,71.3818262 281.657959,73.3198242 L281.657959,84.75 L277.010742,84.75 L277.010742,62.878418 L280.649414,62.878418 L281.262451,66.7346191 L281.499756,66.7346191 C282.224857,65.4294368 283.170771,64.3945351 284.337524,63.6298828 C285.504278,62.8652306 286.760003,62.4829102 288.104736,62.4829102 Z M304.023926,85.1455078 C300.622542,85.1455078 297.962778,84.1534523 296.044556,82.1693115 C294.126333,80.1851707 293.167236,77.4528983 293.167236,73.9724121 C293.167236,70.3996403 294.05712,67.591563 295.836914,65.5480957 C297.616708,63.5046285 300.06224,62.4829102 303.173584,62.4829102 C306.060805,62.4829102 308.341544,63.3596104 310.015869,65.1130371 C311.690194,66.8664638 312.527344,69.2790374 312.527344,72.3508301 L312.527344,74.8623047 L297.952881,74.8623047 C298.018799,76.9848739 298.59228,78.6163273 299.67334,79.7567139 C300.7544,80.8971004 302.27709,81.4672852 304.241455,81.4672852 C305.533454,81.4672852 306.736445,81.3453381 307.850464,81.1014404 C308.964483,80.8575427 310.160882,80.4521513 311.439697,79.8852539 L311.439697,83.6623535 C310.305903,84.2028836 309.158941,84.585204 307.998779,84.8093262 C306.838617,85.0334484 305.513679,85.1455078 304.023926,85.1455078 Z M303.173584,66.0029297 C301.697014,66.0029297 300.513798,66.4709426 299.623901,67.4069824 C298.734004,68.3430223 298.20337,69.7075106 298.031982,71.5004883 L307.959229,71.5004883 C307.932861,69.6943269 307.497807,68.3265427 306.654053,67.3970947 C305.810299,66.4676467 304.650154,66.0029297 303.173584,66.0029297 Z" id="Download-on-the-App" fill="#FFFFFF"></path>
                </g>
            </g>
        </g>
    </g>
</svg>