<?xml version="1.0" encoding="UTF-8"?>
<svg width="350px" height="120px" viewBox="0 0 350 120" version="1.1" xmlns="http://www.w3.org/2000/svg" xmlns:xlink="http://www.w3.org/1999/xlink">
    <!-- Generator: Sketch 51.3 (57544) - http://www.bohemiancoding.com/sketch -->
    <title>Group 3</title>
    <desc>Created with Sketch.</desc>
    <defs>
        <linearGradient x1="50%" y1="0%" x2="50%" y2="100%" id="linearGradient-1">
            <stop stop-color="#1C6FF3" offset="0%"></stop>
            <stop stop-color="#1652F0" offset="100%"></stop>
        </linearGradient>
    </defs>
    <g id="Page-1" stroke="none" stroke-width="1" fill="none" fill-rule="evenodd">
        <g id="hero---2.0-copy" transform="translate(-1059.000000, -974.000000)">
            <g id="下载" transform="translate(1059.000000, 974.000000)">
                <g id="Group-3">
                    <g id="Group-2">
                        <rect id="Rectangle-2" fill="url(#linearGradient-1)" x="0" y="0" width="350" height="120" rx="7.5"></rect>
                        <g id="apple" transform="translate(25.000000, 15.000000)" fill="#FFFFFF" fill-rule="nonzero">
                            <path d="M4.05383607,33.0842951 C-3.55485246,46.2877377 1.28213115,66.3246885 9.69609836,78.4738033 C13.896,84.5477705 18.1481311,90 23.9721639,90 C24.0819344,90 24.192,89.9979344 24.3047213,89.9935082 C27.0410164,89.8843279 29.0183607,89.0418689 30.9301967,88.2277377 C33.076623,87.3129836 35.2965246,86.3672459 38.7784918,86.3672459 C42.091082,86.3672459 44.2050492,87.2822951 46.249377,88.1669508 C48.2641967,89.038623 50.3395082,89.9403934 53.406,89.8828525 C59.9662623,89.7606885 63.9941311,83.8773443 67.5478033,78.6871475 C71.2560984,73.2679672 73.1162951,68.0063607 73.7439344,65.9956721 L73.7693115,65.9157049 C73.8888197,65.5583607 73.7200328,65.1682623 73.3774426,65.0109836 C73.368,65.0065574 73.3331803,64.9920984 73.3234426,64.9879672 C72.1681967,64.515541 62.0344918,60.0199672 61.9279672,47.7669836 C61.8291148,37.8120984 69.5301639,32.540459 71.074623,31.5849836 L71.146623,31.5401311 C71.3139344,31.4324262 71.4304918,31.2615738 71.4700328,31.0662295 C71.5095738,30.8711803 71.4682623,30.6681639 71.3561311,30.5040984 C66.0405246,22.7251475 57.8933115,21.5527869 54.6131803,21.4117377 C54.1372131,21.3642295 53.6459016,21.3403279 53.1525246,21.3403279 C49.2999344,21.3403279 45.6093443,22.795377 42.6443607,23.9644918 C40.5976721,24.771541 38.8298361,25.4685246 37.6105574,25.4685246 C36.2404918,25.4685246 34.462623,24.7629836 32.4038361,23.9461967 C29.6507213,22.8535082 26.5302295,21.6153443 23.2267869,21.6153443 C23.148,21.6153443 23.0703934,21.6162295 22.9939672,21.6177049 C15.3129836,21.7307213 8.05514754,26.125082 4.05383607,33.0842951 Z" id="XMLID_229_"></path>
                            <path d="M54.6199672,0.000590163934 C49.9685902,0.190032787 44.3888852,3.05321311 41.0538689,6.9595082 C38.2196066,10.2428852 35.4508525,15.7172459 36.1802951,21.2352787 C36.2260328,21.5805246 36.5069508,21.8469836 36.8542623,21.8738361 C37.1682295,21.8983279 37.4886885,21.9107213 37.8079672,21.9110164 C42.3560656,21.9110164 47.2623934,19.3948525 50.6130492,15.343377 C54.1395738,11.0652787 55.9227541,5.57498361 55.3833443,0.657147541 C55.3408525,0.271770492 55.0018033,-0.0144590164 54.6199672,0.000590163934 Z" id="XMLID_230_"></path>
                        </g>
                    </g>
                    <path d="M144.75293,57.5 L141.865723,49.4711914 L130.811279,49.4711914 L127.983398,57.5 L123,57.5 L133.817139,28.4697266 L138.95874,28.4697266 L149.775879,57.5 L144.75293,57.5 Z M140.619873,45.3974609 L137.910645,37.5268555 C137.71289,36.9995091 137.439333,36.168951 137.089966,35.0351562 C136.740599,33.9013615 136.500001,33.0708034 136.368164,32.543457 C136.012205,34.1650472 135.491459,35.9382228 134.805908,37.8630371 L132.195557,45.3974609 L140.619873,45.3974609 Z M164.192139,57.8955078 C161.42357,57.8955078 159.274666,56.9001564 157.745361,54.9094238 L157.468506,54.9094238 C157.653077,56.7551362 157.745361,57.8757304 157.745361,58.2712402 L157.745361,67.2294922 L153.098145,67.2294922 L153.098145,35.628418 L156.855469,35.628418 C156.960938,36.0371114 157.178465,37.0126876 157.508057,38.5551758 L157.745361,38.5551758 C159.195564,36.340321 161.370835,35.2329102 164.27124,35.2329102 C167.000258,35.2329102 169.126091,36.2216698 170.648804,38.1992188 C172.171516,40.1767677 172.932861,42.9518864 172.932861,46.5246582 C172.932861,50.09743 172.158333,52.8857322 170.609253,54.8896484 C169.060173,56.8935647 166.921156,57.8955078 164.192139,57.8955078 Z M163.064941,39.0297852 C161.219229,39.0297852 159.87122,39.5703071 159.020874,40.6513672 C158.170528,41.7324273 157.745361,43.4594608 157.745361,45.8325195 L157.745361,46.5246582 C157.745361,49.1877575 158.167232,51.1158388 159.010986,52.30896 C159.854741,53.5020812 161.232412,54.0986328 163.144043,54.0986328 C164.752449,54.0986328 165.991695,53.4394597 166.861816,52.1210938 C167.731938,50.8027278 168.166992,48.9240845 168.166992,46.4851074 C168.166992,44.0329467 167.735234,42.1773745 166.871704,40.918335 C166.008174,39.6592955 164.739266,39.0297852 163.064941,39.0297852 Z M189.425537,57.8955078 C186.656969,57.8955078 184.508064,56.9001564 182.97876,54.9094238 L182.701904,54.9094238 C182.886476,56.7551362 182.97876,57.8757304 182.97876,58.2712402 L182.97876,67.2294922 L178.331543,67.2294922 L178.331543,35.628418 L182.088867,35.628418 C182.194336,36.0371114 182.411864,37.0126876 182.741455,38.5551758 L182.97876,38.5551758 C184.428962,36.340321 186.604234,35.2329102 189.504639,35.2329102 C192.233656,35.2329102 194.359489,36.2216698 195.882202,38.1992188 C197.404915,40.1767677 198.16626,42.9518864 198.16626,46.5246582 C198.16626,50.09743 197.391731,52.8857322 195.842651,54.8896484 C194.293571,56.8935647 192.154555,57.8955078 189.425537,57.8955078 Z M188.29834,39.0297852 C186.452627,39.0297852 185.104619,39.5703071 184.254272,40.6513672 C183.403926,41.7324273 182.97876,43.4594608 182.97876,45.8325195 L182.97876,46.5246582 C182.97876,49.1877575 183.400631,51.1158388 184.244385,52.30896 C185.088139,53.5020812 186.465811,54.0986328 188.377441,54.0986328 C189.985848,54.0986328 191.225093,53.4394597 192.095215,52.1210938 C192.965336,50.8027278 193.400391,48.9240845 193.400391,46.4851074 C193.400391,44.0329467 192.968632,42.1773745 192.105103,40.918335 C191.241573,39.6592955 189.972665,39.0297852 188.29834,39.0297852 Z M231.250488,49.6491699 C231.250488,52.2199836 230.321054,54.2370532 228.462158,55.7004395 C226.603262,57.1638257 224.039079,57.8955078 220.769531,57.8955078 C217.499984,57.8955078 214.823741,57.3879445 212.740723,56.3728027 L212.740723,51.9035645 C214.059089,52.5231965 215.459831,53.0109845 216.942993,53.3669434 C218.426155,53.7229022 219.807123,53.9008789 221.085938,53.9008789 C222.958017,53.9008789 224.338985,53.5449254 225.228882,52.8330078 C226.118779,52.1210902 226.563721,51.1652892 226.563721,49.9655762 C226.563721,48.8845161 226.155033,47.9682655 225.337646,47.2167969 C224.52026,46.4653283 222.832776,45.5754446 220.275146,44.5471191 C217.638415,43.4792427 215.779546,42.2597725 214.698486,40.8886719 C213.617426,39.5175713 213.076904,37.8696385 213.076904,35.9448242 C213.076904,33.5322145 213.933829,31.633796 215.647705,30.2495117 C217.361581,28.8652275 219.662095,28.1730957 222.549316,28.1730957 C225.317885,28.1730957 228.073228,28.779535 230.81543,29.9924316 L229.3125,33.8486328 C226.741686,32.7675727 224.447764,32.2270508 222.430664,32.2270508 C220.90136,32.2270508 219.741215,32.5599332 218.950195,33.225708 C218.159176,33.8914828 217.763672,34.7714789 217.763672,35.8657227 C217.763672,36.6171913 217.921873,37.259885 218.238281,37.7938232 C218.554689,38.3277615 219.075436,38.8320289 219.800537,39.3066406 C220.525638,39.7812524 221.830801,40.4074668 223.716064,41.1853027 C225.838634,42.0686079 227.394282,42.8925743 228.383057,43.6572266 C229.371831,44.4218788 230.096922,45.2853956 230.55835,46.2478027 C231.019778,47.2102099 231.250488,48.3439876 231.250488,49.6491699 Z M244.5,54.1381836 C245.633795,54.1381836 246.767572,53.9602069 247.901367,53.604248 L247.901367,57.1044922 C247.387204,57.3286144 246.724735,57.5164787 245.91394,57.6680908 C245.103145,57.8197029 244.2627,57.8955078 243.392578,57.8955078 C238.989236,57.8955078 236.787598,55.5752185 236.787598,50.9345703 L236.787598,39.1484375 L233.801514,39.1484375 L233.801514,37.0917969 L237.005127,35.3911133 L238.587158,30.7636719 L241.45459,30.7636719 L241.45459,35.628418 L247.683838,35.628418 L247.683838,39.1484375 L241.45459,39.1484375 L241.45459,50.8554688 C241.45459,51.9760798 241.734738,52.8033421 242.295044,53.3372803 C242.855349,53.8712185 243.590327,54.1381836 244.5,54.1381836 Z M271.671387,46.5246582 C271.671387,50.09743 270.755136,52.8857322 268.922607,54.8896484 C267.090079,56.8935647 264.539079,57.8955078 261.269531,57.8955078 C259.226064,57.8955078 257.41993,57.4340866 255.851074,56.5112305 C254.282219,55.5883743 253.075932,54.2634364 252.232178,52.536377 C251.388424,50.8093175 250.966553,48.8054313 250.966553,46.5246582 C250.966553,42.9782538 251.876212,40.2097268 253.695557,38.2189941 C255.514902,36.2282615 258.079085,35.2329102 261.388184,35.2329102 C264.552262,35.2329102 267.05712,36.2513326 268.902832,38.288208 C270.748544,40.3250834 271.671387,43.0705394 271.671387,46.5246582 Z M255.752197,46.5246582 C255.752197,51.5739999 257.617657,54.0986328 261.348633,54.0986328 C265.040058,54.0986328 266.885742,51.5739999 266.885742,46.5246582 C266.885742,41.5280512 265.026874,39.0297852 261.309082,39.0297852 C259.3579,39.0297852 257.943974,39.6757748 257.067261,40.9677734 C256.190547,42.2597721 255.752197,44.1120485 255.752197,46.5246582 Z M288.104736,35.2329102 C289.040776,35.2329102 289.812009,35.2988275 290.418457,35.4306641 L289.963623,39.7614746 C289.30444,39.6032707 288.6189,39.5241699 287.906982,39.5241699 C286.048086,39.5241699 284.541876,40.1306092 283.388306,41.3435059 C282.234735,42.5564025 281.657959,44.1318262 281.657959,46.0698242 L281.657959,57.5 L277.010742,57.5 L277.010742,35.628418 L280.649414,35.628418 L281.262451,39.4846191 L281.499756,39.4846191 C282.224857,38.1794368 283.170771,37.1445351 284.337524,36.3798828 C285.504278,35.6152306 286.760003,35.2329102 288.104736,35.2329102 Z M304.023926,57.8955078 C300.622542,57.8955078 297.962778,56.9034523 296.044556,54.9193115 C294.126333,52.9351707 293.167236,50.2028983 293.167236,46.7224121 C293.167236,43.1496403 294.05712,40.341563 295.836914,38.2980957 C297.616708,36.2546285 300.06224,35.2329102 303.173584,35.2329102 C306.060805,35.2329102 308.341544,36.1096104 310.015869,37.8630371 C311.690194,39.6164638 312.527344,42.0290374 312.527344,45.1008301 L312.527344,47.6123047 L297.952881,47.6123047 C298.018799,49.7348739 298.59228,51.3663273 299.67334,52.5067139 C300.7544,53.6471004 302.27709,54.2172852 304.241455,54.2172852 C305.533454,54.2172852 306.736445,54.0953381 307.850464,53.8514404 C308.964483,53.6075427 310.160882,53.2021513 311.439697,52.6352539 L311.439697,56.4123535 C310.305903,56.9528836 309.158941,57.335204 307.998779,57.5593262 C306.838617,57.7834484 305.513679,57.8955078 304.023926,57.8955078 Z M303.173584,38.7529297 C301.697014,38.7529297 300.513798,39.2209426 299.623901,40.1569824 C298.734004,41.0930223 298.20337,42.4575106 298.031982,44.2504883 L307.959229,44.2504883 C307.932861,42.4443269 307.497807,41.0765427 306.654053,40.1470947 C305.810299,39.2176467 304.650154,38.7529297 303.173584,38.7529297 Z M124.32,76.664 L145.656,76.664 L145.656,78.368 L135.24,78.368 L135.24,81.992 C138.216,83.48 141.24,85.208 144.312,87.176 L143.28,88.712 C140.088,86.6 137.4,84.968 135.24,83.816 L135.24,97.448 L133.488,97.448 L133.488,78.368 L124.32,78.368 L124.32,76.664 Z M149.688,77.336 L154.368,77.336 L154.368,75.32 L156.048,75.32 L156.048,77.336 L160.392,77.336 L160.392,78.92 L156.048,78.92 L156.048,81.128 L161.808,81.128 C161.712,79.328 161.664,77.384 161.664,75.272 L163.344,75.272 C163.344,77.456 163.392,79.4 163.488,81.128 L169.536,81.128 L169.536,82.688 L163.584,82.688 C163.728,84.824 163.92,86.576 164.184,87.92 C164.328,88.616 164.472,89.264 164.616,89.888 C165.48,88.16 166.176,86.144 166.704,83.888 L168.24,84.584 C167.472,87.584 166.488,90.104 165.288,92.12 C165.48,92.672 165.696,93.152 165.912,93.584 C166.536,94.76 167.04,95.36 167.424,95.36 C167.808,95.336 168.144,94.064 168.432,91.52 L169.92,92.312 C169.392,95.504 168.648,97.112 167.64,97.112 C166.824,97.112 165.936,96.368 165,94.928 C164.736,94.52 164.496,94.088 164.304,93.632 C163.056,95.264 161.64,96.488 160.056,97.352 L159.12,95.96 C160.848,95 162.336,93.608 163.56,91.76 C163.224,90.704 162.912,89.552 162.648,88.28 C162.312,86.696 162.048,84.848 161.904,82.688 L148.44,82.688 L148.44,81.128 L154.368,81.128 L154.368,78.92 L149.688,78.92 L149.688,77.336 Z M165.816,75.584 C167.016,76.928 167.952,78.104 168.6,79.112 L167.304,80.024 C166.632,78.944 165.696,77.744 164.496,76.424 L165.816,75.584 Z M160.392,92.504 L160.392,94.04 C159.192,94.184 157.944,94.352 156.648,94.496 L156.648,97.328 L154.944,97.328 L154.944,94.664 C153.216,94.832 151.392,94.976 149.472,95.12 L149.256,93.512 C151.272,93.392 153.168,93.248 154.944,93.104 L154.944,90.968 L150.264,90.968 L149.928,89.552 C150.6,88.736 151.224,87.752 151.8,86.552 L149.16,86.552 L149.16,85.016 L152.472,85.016 C152.712,84.44 152.928,83.816 153.144,83.192 L154.8,83.504 C154.608,84.032 154.416,84.536 154.224,85.016 L160.512,85.016 L160.512,86.552 L153.552,86.552 C153.024,87.656 152.448,88.64 151.848,89.504 L154.944,89.504 L154.944,87.632 L156.648,87.632 L156.648,89.504 L160.296,89.504 L160.296,90.968 L156.648,90.968 L156.648,92.936 C157.968,92.792 159.216,92.648 160.392,92.504 Z" id="App-Store-下载" fill="#FFFFFF"></path>
                </g>
            </g>
        </g>
    </g>
</svg>