<?xml version="1.0" encoding="UTF-8"?>
<svg width="283px" height="66px" viewBox="0 0 283 66" version="1.1" xmlns="http://www.w3.org/2000/svg" xmlns:xlink="http://www.w3.org/1999/xlink">
    <!-- Generator: Sketch 51.3 (57544) - http://www.bohemiancoding.com/sketch -->
    <title>logo_en</title>
    <desc>Created with Sketch.</desc>
    <defs>
        <linearGradient x1="118.092734%" y1="6.53976164%" x2="-22.4203254%" y2="96.2416737%" id="linearGradient-1">
            <stop stop-color="#0993F0" offset="0%"></stop>
            <stop stop-color="#196BF0" offset="52%"></stop>
            <stop stop-color="#1654F0" offset="100%"></stop>
        </linearGradient>
    </defs>
    <g id="Page-1" stroke="none" stroke-width="1" fill="none" fill-rule="evenodd">
        <g id="download&amp;footer" transform="translate(-120.000000, -1671.000000)">
            <g id="logo_en" transform="translate(120.000000, 1671.000000)">
                <g id="logo">
                    <g id="logo_new02">
                        <path d="M7.65482667,19.607808 C2.89109333,15.9305143 8.34474667,10.3747474 11.8272,14.2312594 C14.665728,17.3576229 16.5909333,19.7073737 15.0139733,21.5924846 C13.7326933,23.1257966 9.993984,21.3999909 7.65482667,19.607808 Z" id="Shape" fill="#F4403B"></path>
                        <path d="M23.5689813,5.72170971 C21.3546667,0.106203429 28.8715093,-1.83200914 29.8965333,3.31885714 C30.731008,7.47406629 31.2106667,10.4942263 28.8649387,11.2841143 C26.985728,11.9014217 24.659712,8.47636114 23.5689813,5.72170971 Z" id="Shape" fill="#F75A2F"></path>
                        <path d="M44.6805333,3.38523429 C45.9223893,-2.51569371 53.2224,0.139392 51.2512,4.95837257 C49.6282453,8.86798629 48.333824,11.6292754 45.9946667,10.9721417 C44.0234667,10.4344869 44.0234667,6.28591543 44.6805333,3.38523429 Z" id="Shape" fill="#F9922D"></path>
                        <path d="M63.17696,13.4546469 C67.5398827,9.31271314 72.0736427,15.6716434 67.7238613,18.5125851 C64.201984,20.815872 61.5868587,22.349184 60.0098987,20.4574354 C58.7286187,18.9241234 61.0349227,15.4857874 63.17696,13.4546469 Z" id="Shape" fill="#FCB251"></path>
                        <path d="M39.207168,30.6264137 C40.84606,29.5395312 42.3853575,28.3066346 43.8066347,26.9424823 C41.2977099,24.2716574 38.4497648,21.9481795 35.3370453,20.0326217 C34.79168,20.3645074 34.220032,20.6963931 33.6155307,20.9751771 C33.2410027,21.1543954 32.8664747,21.3203383 32.4919467,21.4796434 L36.822016,32.0999863 C37.6170667,31.6353463 38.4121173,31.1972571 39.207168,30.6264137 Z M27.7019307,22.76736 C26.6366463,26.881315 26.1630831,31.1287516 26.295808,35.3790171 C29.2633172,35.1786442 32.1641795,34.3986902 34.8376747,33.082368 L30.179072,22.2828069 C29.367348,22.5102725 28.5390337,22.6722989 27.7019307,22.76736 Z M45.081344,25.6083017 C46.358992,24.2210961 47.4503349,22.6700376 48.3272533,20.9950903 C45.5651308,19.1659305 42.590262,17.6878415 39.4699947,16.5942857 C38.6858274,17.5285881 37.7871942,18.3583244 36.7957333,19.0635154 C39.797476,20.9160879 42.5777131,23.1121914 45.081344,25.6083017 Z M33.3067093,49.2651154 C35.8289013,48.5587564 38.2900601,47.6463831 40.665856,46.5370149 L35.7509973,35.1798857 C32.8195856,36.5791642 29.6168426,37.30243 26.374656,37.2973166 C26.4600747,38.7908023 26.6046293,40.2444617 26.7820373,41.6450194 C27.2607421,42.1742009 27.625448,42.7980412 27.853056,43.4770286 C28.1365449,44.5775205 28.062842,45.7408796 27.6427947,46.7958857 L27.6427947,46.8489874 C28.195812,46.6141508 28.780507,46.4642481 29.3774507,46.4042606 C30.3433387,46.2980571 32.4590933,46.464 33.3067093,49.2651154 Z M46.6517333,27.2876434 C49.5630024,30.4947301 52.0378681,34.0797228 54.01088,37.9478126 C56.0213056,36.230116 57.8212933,34.2758301 59.372544,32.1265371 C56.9291581,28.3017698 53.8111131,24.9629163 50.1736107,22.2761691 C49.2353732,24.1035593 48.0500544,25.7902151 46.6517333,27.2876434 Z M60.0558933,31.0910537 C60.7605992,29.9925154 61.2739542,28.7802194 61.5737173,27.506688 C59.3914443,22.5950941 55.7551311,18.4880081 51.1657813,15.751296 C51.5306181,17.2138925 51.4666983,18.7520898 50.9818027,20.1786514 C54.7930867,23.0669192 57.8974497,26.8001922 60.0558933,31.0910537 Z M47.7753173,57.894144 L47.4139307,58.0534491 C47.959296,59.380992 48.333824,60.2903589 48.4455253,60.5824183 C49.043456,62.1090926 47.5519147,62.4608914 47.2628053,61.7838446 C47.170816,61.5847131 46.6057387,60.2770834 45.8763947,58.5778286 C42.6252575,59.6748779 39.2404295,60.3158696 35.816704,60.4828526 C39.0926497,59.7726737 42.2939596,58.7480255 45.377024,57.4228663 L41.6054613,48.7141851 C39.0076341,49.8893635 36.3090334,50.8225156 33.5432533,51.5020251 C33.5065488,51.8009895 33.4450054,52.0963034 33.3592747,52.3848411 C34.7585844,53.300721 35.6847973,54.7953531 35.8889813,56.4670354 C36.0992427,58.77696 34.752256,61.2262766 31.9071573,63.7685211 C44.8554467,66.9298706 58.0627104,59.6382951 62.4213333,46.9220023 C58.685013,51.9257069 53.5999666,55.7351968 47.7753173,57.894144 Z M46.3691947,43.4969417 C48.5129525,42.201717 50.5696688,40.7648422 52.5259093,39.1957029 C50.5498787,35.4099847 48.1369704,31.8740068 45.3376,28.6616503 C43.8946539,30.0631671 42.3287957,31.3295249 40.6592853,32.4451474 C39.6649244,33.1000686 38.6705636,33.6930377 37.6762027,34.2240549 C39.1743147,37.9079863 40.8104107,41.9304411 42.361088,45.7073006 C43.701504,45.0435291 45.0353493,44.3067429 46.3691947,43.4969417 Z M62.9141333,31.1972571 C62.4511837,32.1257627 61.9127302,33.013841 61.30432,33.8523429 C62.1705897,35.9073924 62.8074933,38.053552 63.2032427,40.2510994 C62.5593364,38.2696544 61.7413159,36.3503487 60.7589547,34.5161143 C59.0930382,36.631902 57.2074391,38.56122 55.134464,40.2710126 C56.337778,42.9655816 57.3950287,45.7243128 58.3015253,48.5349669 C62.0796587,44.4726857 63.7354667,40.4900571 63.86688,38.1801326 C63.86688,37.9942766 63.86688,37.8084206 63.86688,37.6225646 C63.86688,37.4367086 63.86688,37.2574903 63.86688,37.1180983 C63.7738203,35.1142416 63.4541603,33.1277152 62.9141333,31.1972571 Z M24.600576,35.3192777 C24.5320658,31.1161942 24.9890544,26.9211853 25.960704,22.8337371 C24.0946347,22.7607223 22.6753707,22.1699657 22.1300053,20.9884526 C21.9863865,20.6801194 21.9038005,20.3464045 21.8868907,20.0060709 C23.4901333,21.9973851 28.030464,21.8978194 32.5379413,19.7073737 C36.6774613,17.7160594 39.443712,14.5565074 39.4699947,12.1337417 C30.703586,11.5888134 22.2608231,15.5676606 17.0414869,22.7036945 C11.8221507,29.8397285 10.5370473,39.1611138 13.6275627,47.4662949 C14.7791871,46.8410918 15.8570656,46.0862259 16.8406187,45.2161097 C20.4741973,42.1295726 22.8987733,40.7555657 24.7254187,40.7754789 C24.8305493,40.7754789 24.9225387,40.7754789 25.0210987,40.7754789 C24.856832,39.5143131 24.7451307,38.2796983 24.6859947,37.0915474 C22.9449137,36.8752678 21.3690457,35.9436299 20.3296427,34.5161143 C19.8649586,33.782592 19.5810621,32.9472491 19.5017387,32.0800731 C19.6094999,32.3605235 19.7483697,32.6277364 19.9156907,32.8765989 C20.8487253,34.3037074 22.5045333,35.1002331 24.600576,35.3192777 Z M49.1748693,18.9174857 C49.6487907,17.5799043 49.7083782,16.1282656 49.3457067,14.7556389 C46.6910446,13.4381303 43.8334956,12.587382 40.8958293,12.2399451 C41.1385015,13.2077422 40.9870323,14.2334201 40.4753067,15.0875246 C43.5483245,15.9178361 46.4807653,17.208836 49.1748693,18.9174857 Z M56.829696,50.0284526 C55.9262361,47.1229734 54.8623104,44.2709227 53.6429227,41.4857143 C51.8750447,42.8672811 50.0276362,44.1417458 48.1104213,45.3024 C46.500608,46.2715063 44.884224,47.1410469 43.2809813,47.9176594 C44.5951147,51.0772114 45.909248,54.4027063 46.894848,56.732544 C50.5305347,55.0317544 53.882216,52.770021 56.829696,50.0284526 Z" id="Shape" fill="url(#linearGradient-1)" fill-rule="nonzero"></path>
                        <path d="M25.3956267,47.950848 C26.394368,45.9595337 26.5060693,44.6319909 26.3418027,44.1673509 C25.980416,43.2181577 25.684736,42.607488 24.8042667,42.607488 C23.4901333,42.607488 21.249536,43.9350309 18.1087573,46.5901166 C14.350336,49.7828571 11.4855253,50.6192091 10.2239573,49.0062446 C9.39605333,47.950848 9.31063467,45.9794469 9.96113067,43.1252297 C10.1730164,41.8689794 10.3112413,40.6011794 10.3750827,39.3284571 L10.4407893,38.0009143 C10.5327787,36.2950217 10.5984853,35.0471314 10.64448,34.4696503 C10.4304306,34.4097433 10.2095186,34.3785001 9.98741333,34.3767223 C5.460224,34.5161143 2.37858133,35.2993646 1.20900267,36.6003566 C0.821977527,37.0036129 0.621532124,37.5532307 0.657066667,38.1137554 C0.781909333,40.237824 2.404864,41.2733074 5.61792,41.2733074 C6.051584,41.2733074 6.485248,41.2733074 6.93205333,41.2202057 L7.372288,41.2202057 C7.99559096,41.1326659 8.61815431,41.3852426 9.008384,41.8839771 C9.382912,42.4813714 9.23835733,43.3708251 8.535296,44.8576731 C6.761216,48.5947063 5.677056,53.4867017 7.22116267,56.035584 C8.21333333,57.6219977 10.1976747,58.0268983 13.0230613,57.2967497 C21.0261333,55.1660434 24.3114667,50.0550034 25.3956267,47.950848 Z" id="Shape" fill="#E2303D"></path>
                        <path d="M31.1909547,57.3564891 C28.9718747,60.2359435 26.1635457,62.5974565 22.9579093,64.2796251 C23.7351339,64.8451732 24.6677506,65.1514825 25.6256,65.1558034 C27.056225,65.0852691 28.4237022,64.5392304 29.5154347,63.6025783 C32.662784,61.1731749 34.2660267,58.9561783 34.279168,56.9980526 C34.2637545,56.0152577 33.8420396,55.0837944 33.11616,54.4292571 C32.5706526,55.4662081 31.925834,56.4466405 31.1909547,57.3564891 Z" id="Shape" fill="#E2303D"></path>
                        <path d="M29.883392,48.1898057 C28.9050983,48.2855997 27.9679805,48.6354598 27.163136,49.205376 C25.9278507,51.5219383 22.2417067,56.9383131 13.9298133,59.2747886 C14.6591573,61.9763383 16.1309867,63.3437074 18.312448,63.3437074 C21.7686187,63.3437074 26.1446827,60.0248503 28.937216,56.7059931 C30.9938347,54.2832274 32.1437013,51.9533897 31.9400107,50.6192091 C31.6837547,48.9929691 31.0135467,48.1898057 29.883392,48.1898057 Z" id="Shape" fill="#E2303D"></path>
                    </g>
                </g>
                <path d="M160.959235,21.0000773 L143,21 L143.000036,40.1461351 C142.993528,42.2247654 143.865182,44.2132144 145.407795,45.6388053 C146.861521,47.1515628 148.889214,48.0063465 151.008868,47.9999645 L169,48 L169,42.6012397 L153.953104,42.6012397 C152.486886,42.5490519 151.313501,41.3901571 151.27072,39.9519814 L151.27072,26.4301172 L158.091639,26.4301172 C158.817565,26.4109605 159.516373,26.7010635 160.007627,27.225521 C161.039237,28.2932552 161.039237,29.9657041 160.007627,31.0334383 C159.51298,31.5531573 158.816458,31.8423117 158.091639,31.8288421 L152.548045,31.8288421 L155.600854,37.2275669 L160.940075,37.2275669 C163.080358,37.2403039 165.129854,36.3805684 166.598628,34.8538816 C168.132973,33.4065875 168.994176,31.4050629 168.98084,29.3173703 L168.98084,28.8852218 C168.998477,26.7985191 168.136445,24.7973328 166.598628,23.3549735 C165.129329,21.8425019 163.089376,20.990659 160.959235,21.0000773 Z M132.658022,21.495646 L132.658022,40.8069126 C132.665775,41.5267254 132.374245,42.2181398 131.851572,42.7195504 C131.362539,43.2370737 130.677784,43.530376 129.961252,43.5292338 L127.580611,43.5292338 L127.580611,27.711719 C127.580611,20.7560927 119.193528,21.5147724 119.193528,21.5147724 L119.193528,43.5037319 L116.974177,43.5037319 C115.48272,43.4668264 114.282496,42.2807674 114.245149,40.8069126 L114.245149,28.4767741 C114.245149,21.3617614 107.180645,21.4637687 106.064518,21.5083969 L105.903228,21.5083969 L93.3419582,21.5083969 L93.3419582,16 L85,16 L85.0000366,40.9854255 C84.9934624,43.1013726 85.8739837,45.1255194 87.4322906,46.5767034 C88.9035059,48.1128016 90.9500731,48.9821857 93.0903457,48.9802516 L101.245171,48.9802516 L104.419359,43.4846056 L96.0709859,43.4846056 C94.5795287,43.4477001 93.3793045,42.261641 93.3419582,40.7877862 L93.3419582,27.0231693 L105.903228,27.0231693 L105.903228,41.0491801 C105.898439,43.1629128 106.778814,45.1844158 108.335482,46.6340825 C109.819904,48.1696626 111.883427,49.0264367 114.032247,48.999378 L132.935441,48.999378 C135.074105,49.0052935 137.118996,48.1323263 138.580593,46.5894543 C140.132503,45.1375844 141.008083,43.1163695 140.999944,41.0045518 L140.999944,28.0942465 C140.999944,20.5648289 132.658022,21.5147724 132.658022,21.5147724 L132.658022,21.495646 Z M218.023022,21.4989289 L212.27507,21.4989289 L209.439414,27.0297541 L215.072407,27.0297541 C216.536763,27.0536532 217.718084,28.2336157 217.742011,29.6962881 L217.742011,40.8025934 C217.749685,41.5228361 217.461092,42.2146636 216.943684,42.7163737 C216.459578,43.2342061 215.78172,43.5276837 215.072407,43.5265407 L208.257891,43.5265407 L208.257891,16 L200,16 L200,49 L217.965542,48.9999525 C220.092817,49.0074033 222.128771,48.1371741 223.592149,46.5949686 C225.139031,45.1326436 226.010655,43.0958056 225.999902,40.9684543 L225.999902,29.4857722 C226.006195,27.3749078 225.139579,25.3551292 223.604922,23.9039129 C222.15424,22.366316 220.131847,21.495956 218.016635,21.4989289 L218.023022,21.4989289 Z M189.935669,21.0000607 L172,21 L172.000036,40.1461473 C171.99353,42.2247807 172.864969,44.2132327 174.407204,45.6388257 C175.864769,47.1494195 177.892871,48.003613 180.013286,47.9999885 L198,48 L198,42.6012556 L182.924874,42.6012556 C181.454235,42.5526445 180.273551,41.3945255 180.223993,39.9519933 L180.223993,26.4301088 L187.043237,26.4301088 C187.768826,26.4117793 188.467127,26.7017437 188.958755,27.2255138 C189.990112,28.2932496 189.990112,29.965701 188.958755,31.0334368 C188.464229,31.5531565 187.767878,31.8423114 187.043237,31.8288418 L181.43077,31.8288418 L184.482828,37.2275747 L189.929284,37.2275747 C192.067389,37.2512763 194.118325,36.3975357 195.586447,34.872675 C197.121336,33.4285897 197.982669,31.4285323 197.968075,29.3424183 L197.968075,28.9102692 C197.982382,26.8216887 197.11582,24.8202194 195.573677,23.3800126 C194.109856,21.8535756 192.065727,20.9916709 189.929284,21.0000607 L189.935669,21.0000607 Z M246.997593,21.0000197 L229,21 L229.000243,26.4300784 L244.046999,26.4300784 C245.518525,26.4694565 246.701976,27.6300173 246.742131,29.0730827 L246.742131,42.6012565 L239.927662,42.6012565 C239.200579,42.6196501 238.501281,42.3270537 238.011691,41.799587 C236.980909,40.7339488 236.980909,39.0635578 238.011691,37.9979196 C238.501942,37.4720722 239.201422,37.1816865 239.927662,37.2025131 L245.541456,37.2025131 L242.488676,31.8037696 L237.040933,31.8037696 C234.903289,31.7784448 232.852015,32.6298557 231.382433,34.1524109 C229.84527,35.5952075 228.983369,37.5961166 229.000243,39.6826783 L229.000243,40.1148283 C229.07534,44.4388166 232.631663,47.9263558 237.040933,48 L255,48 L254.999964,28.8601392 C255.006472,26.7815018 254.134826,24.7930459 252.592227,23.3674501 C251.139621,21.8523773 249.111802,20.995262 246.991207,21.0000197 L246.997593,21.0000197 Z M280.592826,23.3674501 C279.140571,21.8523773 277.113243,20.995262 274.99316,21.0000197 L257,21 L257.000164,26.4300784 L272.04328,26.4300784 C273.514225,26.4723929 274.697524,27.6303421 274.744145,29.0730827 L274.744145,42.6012565 L267.931324,42.6012565 C267.205706,42.6131155 266.509206,42.3216195 266.015817,41.799587 C264.994841,40.7302275 264.994841,39.0672791 266.015817,37.9979196 C266.510341,37.4781988 267.206688,37.1890434 267.931324,37.2025131 L273.54376,37.2025131 L270.485334,31.8037696 L265.038909,31.8037696 C262.901782,31.7784448 260.851004,32.6298557 259.381778,34.1524109 C257.847533,35.5969276 256.986326,37.5967079 257.000164,39.6826783 L257.000164,40.1148283 C257.08183,44.4360728 260.633503,47.9198946 265.038909,48 L283,48 L282.99998,28.8601392 C283.00483,26.780559 282.131022,24.7919609 280.586441,23.3674501 L280.592826,23.3674501 Z" id="Shape" fill="#20242B" fill-rule="nonzero"></path>
            </g>
        </g>
    </g>
</svg>