<?xml version="1.0" encoding="UTF-8"?>
<svg width="200px" height="66px" viewBox="0 0 200 66" version="1.1" xmlns="http://www.w3.org/2000/svg" xmlns:xlink="http://www.w3.org/1999/xlink">
    <!-- Generator: Sketch 51.3 (57544) - http://www.bohemiancoding.com/sketch -->
    <title>Group 7</title>
    <desc>Created with Sketch.</desc>
    <defs>
        <linearGradient x1="118.092734%" y1="6.53976164%" x2="-22.4203254%" y2="96.2416737%" id="linearGradient-1">
            <stop stop-color="#0993F0" offset="0%"></stop>
            <stop stop-color="#196BF0" offset="52%"></stop>
            <stop stop-color="#1654F0" offset="100%"></stop>
        </linearGradient>
    </defs>
    <g id="Page-1" stroke="none" stroke-width="1" fill="none" fill-rule="evenodd">
        <g id="hero---2.0-copy" transform="translate(-120.000000, -67.000000)">
            <g id="Group-7" transform="translate(120.000000, 67.000000)">
                <g id="logo">
                    <g id="logo_new02">
                        <path d="M7.65482667,19.607808 C2.89109333,15.9305143 8.34474667,10.3747474 11.8272,14.2312594 C14.665728,17.3576229 16.5909333,19.7073737 15.0139733,21.5924846 C13.7326933,23.1257966 9.993984,21.3999909 7.65482667,19.607808 Z" id="Shape" fill="#F4403B"></path>
                        <path d="M23.5689813,5.72170971 C21.3546667,0.106203429 28.8715093,-1.83200914 29.8965333,3.31885714 C30.731008,7.47406629 31.2106667,10.4942263 28.8649387,11.2841143 C26.985728,11.9014217 24.659712,8.47636114 23.5689813,5.72170971 Z" id="Shape" fill="#F75A2F"></path>
                        <path d="M44.6805333,3.38523429 C45.9223893,-2.51569371 53.2224,0.139392 51.2512,4.95837257 C49.6282453,8.86798629 48.333824,11.6292754 45.9946667,10.9721417 C44.0234667,10.4344869 44.0234667,6.28591543 44.6805333,3.38523429 Z" id="Shape" fill="#F9922D"></path>
                        <path d="M63.17696,13.4546469 C67.5398827,9.31271314 72.0736427,15.6716434 67.7238613,18.5125851 C64.201984,20.815872 61.5868587,22.349184 60.0098987,20.4574354 C58.7286187,18.9241234 61.0349227,15.4857874 63.17696,13.4546469 Z" id="Shape" fill="#FCB251"></path>
                        <path d="M39.207168,30.6264137 C40.84606,29.5395312 42.3853575,28.3066346 43.8066347,26.9424823 C41.2977099,24.2716574 38.4497648,21.9481795 35.3370453,20.0326217 C34.79168,20.3645074 34.220032,20.6963931 33.6155307,20.9751771 C33.2410027,21.1543954 32.8664747,21.3203383 32.4919467,21.4796434 L36.822016,32.0999863 C37.6170667,31.6353463 38.4121173,31.1972571 39.207168,30.6264137 Z M27.7019307,22.76736 C26.6366463,26.881315 26.1630831,31.1287516 26.295808,35.3790171 C29.2633172,35.1786442 32.1641795,34.3986902 34.8376747,33.082368 L30.179072,22.2828069 C29.367348,22.5102725 28.5390337,22.6722989 27.7019307,22.76736 Z M45.081344,25.6083017 C46.358992,24.2210961 47.4503349,22.6700376 48.3272533,20.9950903 C45.5651308,19.1659305 42.590262,17.6878415 39.4699947,16.5942857 C38.6858274,17.5285881 37.7871942,18.3583244 36.7957333,19.0635154 C39.797476,20.9160879 42.5777131,23.1121914 45.081344,25.6083017 Z M33.3067093,49.2651154 C35.8289013,48.5587564 38.2900601,47.6463831 40.665856,46.5370149 L35.7509973,35.1798857 C32.8195856,36.5791642 29.6168426,37.30243 26.374656,37.2973166 C26.4600747,38.7908023 26.6046293,40.2444617 26.7820373,41.6450194 C27.2607421,42.1742009 27.625448,42.7980412 27.853056,43.4770286 C28.1365449,44.5775205 28.062842,45.7408796 27.6427947,46.7958857 L27.6427947,46.8489874 C28.195812,46.6141508 28.780507,46.4642481 29.3774507,46.4042606 C30.3433387,46.2980571 32.4590933,46.464 33.3067093,49.2651154 Z M46.6517333,27.2876434 C49.5630024,30.4947301 52.0378681,34.0797228 54.01088,37.9478126 C56.0213056,36.230116 57.8212933,34.2758301 59.372544,32.1265371 C56.9291581,28.3017698 53.8111131,24.9629163 50.1736107,22.2761691 C49.2353732,24.1035593 48.0500544,25.7902151 46.6517333,27.2876434 Z M60.0558933,31.0910537 C60.7605992,29.9925154 61.2739542,28.7802194 61.5737173,27.506688 C59.3914443,22.5950941 55.7551311,18.4880081 51.1657813,15.751296 C51.5306181,17.2138925 51.4666983,18.7520898 50.9818027,20.1786514 C54.7930867,23.0669192 57.8974497,26.8001922 60.0558933,31.0910537 Z M47.7753173,57.894144 L47.4139307,58.0534491 C47.959296,59.380992 48.333824,60.2903589 48.4455253,60.5824183 C49.043456,62.1090926 47.5519147,62.4608914 47.2628053,61.7838446 C47.170816,61.5847131 46.6057387,60.2770834 45.8763947,58.5778286 C42.6252575,59.6748779 39.2404295,60.3158696 35.816704,60.4828526 C39.0926497,59.7726737 42.2939596,58.7480255 45.377024,57.4228663 L41.6054613,48.7141851 C39.0076341,49.8893635 36.3090334,50.8225156 33.5432533,51.5020251 C33.5065488,51.8009895 33.4450054,52.0963034 33.3592747,52.3848411 C34.7585844,53.300721 35.6847973,54.7953531 35.8889813,56.4670354 C36.0992427,58.77696 34.752256,61.2262766 31.9071573,63.7685211 C44.8554467,66.9298706 58.0627104,59.6382951 62.4213333,46.9220023 C58.685013,51.9257069 53.5999666,55.7351968 47.7753173,57.894144 Z M46.3691947,43.4969417 C48.5129525,42.201717 50.5696688,40.7648422 52.5259093,39.1957029 C50.5498787,35.4099847 48.1369704,31.8740068 45.3376,28.6616503 C43.8946539,30.0631671 42.3287957,31.3295249 40.6592853,32.4451474 C39.6649244,33.1000686 38.6705636,33.6930377 37.6762027,34.2240549 C39.1743147,37.9079863 40.8104107,41.9304411 42.361088,45.7073006 C43.701504,45.0435291 45.0353493,44.3067429 46.3691947,43.4969417 Z M62.9141333,31.1972571 C62.4511837,32.1257627 61.9127302,33.013841 61.30432,33.8523429 C62.1705897,35.9073924 62.8074933,38.053552 63.2032427,40.2510994 C62.5593364,38.2696544 61.7413159,36.3503487 60.7589547,34.5161143 C59.0930382,36.631902 57.2074391,38.56122 55.134464,40.2710126 C56.337778,42.9655816 57.3950287,45.7243128 58.3015253,48.5349669 C62.0796587,44.4726857 63.7354667,40.4900571 63.86688,38.1801326 C63.86688,37.9942766 63.86688,37.8084206 63.86688,37.6225646 C63.86688,37.4367086 63.86688,37.2574903 63.86688,37.1180983 C63.7738203,35.1142416 63.4541603,33.1277152 62.9141333,31.1972571 Z M24.600576,35.3192777 C24.5320658,31.1161942 24.9890544,26.9211853 25.960704,22.8337371 C24.0946347,22.7607223 22.6753707,22.1699657 22.1300053,20.9884526 C21.9863865,20.6801194 21.9038005,20.3464045 21.8868907,20.0060709 C23.4901333,21.9973851 28.030464,21.8978194 32.5379413,19.7073737 C36.6774613,17.7160594 39.443712,14.5565074 39.4699947,12.1337417 C30.703586,11.5888134 22.2608231,15.5676606 17.0414869,22.7036945 C11.8221507,29.8397285 10.5370473,39.1611138 13.6275627,47.4662949 C14.7791871,46.8410918 15.8570656,46.0862259 16.8406187,45.2161097 C20.4741973,42.1295726 22.8987733,40.7555657 24.7254187,40.7754789 C24.8305493,40.7754789 24.9225387,40.7754789 25.0210987,40.7754789 C24.856832,39.5143131 24.7451307,38.2796983 24.6859947,37.0915474 C22.9449137,36.8752678 21.3690457,35.9436299 20.3296427,34.5161143 C19.8649586,33.782592 19.5810621,32.9472491 19.5017387,32.0800731 C19.6094999,32.3605235 19.7483697,32.6277364 19.9156907,32.8765989 C20.8487253,34.3037074 22.5045333,35.1002331 24.600576,35.3192777 Z M49.1748693,18.9174857 C49.6487907,17.5799043 49.7083782,16.1282656 49.3457067,14.7556389 C46.6910446,13.4381303 43.8334956,12.587382 40.8958293,12.2399451 C41.1385015,13.2077422 40.9870323,14.2334201 40.4753067,15.0875246 C43.5483245,15.9178361 46.4807653,17.208836 49.1748693,18.9174857 Z M56.829696,50.0284526 C55.9262361,47.1229734 54.8623104,44.2709227 53.6429227,41.4857143 C51.8750447,42.8672811 50.0276362,44.1417458 48.1104213,45.3024 C46.500608,46.2715063 44.884224,47.1410469 43.2809813,47.9176594 C44.5951147,51.0772114 45.909248,54.4027063 46.894848,56.732544 C50.5305347,55.0317544 53.882216,52.770021 56.829696,50.0284526 Z" id="Shape" fill="url(#linearGradient-1)" fill-rule="nonzero"></path>
                        <path d="M25.3956267,47.950848 C26.394368,45.9595337 26.5060693,44.6319909 26.3418027,44.1673509 C25.980416,43.2181577 25.684736,42.607488 24.8042667,42.607488 C23.4901333,42.607488 21.249536,43.9350309 18.1087573,46.5901166 C14.350336,49.7828571 11.4855253,50.6192091 10.2239573,49.0062446 C9.39605333,47.950848 9.31063467,45.9794469 9.96113067,43.1252297 C10.1730164,41.8689794 10.3112413,40.6011794 10.3750827,39.3284571 L10.4407893,38.0009143 C10.5327787,36.2950217 10.5984853,35.0471314 10.64448,34.4696503 C10.4304306,34.4097433 10.2095186,34.3785001 9.98741333,34.3767223 C5.460224,34.5161143 2.37858133,35.2993646 1.20900267,36.6003566 C0.821977527,37.0036129 0.621532124,37.5532307 0.657066667,38.1137554 C0.781909333,40.237824 2.404864,41.2733074 5.61792,41.2733074 C6.051584,41.2733074 6.485248,41.2733074 6.93205333,41.2202057 L7.372288,41.2202057 C7.99559096,41.1326659 8.61815431,41.3852426 9.008384,41.8839771 C9.382912,42.4813714 9.23835733,43.3708251 8.535296,44.8576731 C6.761216,48.5947063 5.677056,53.4867017 7.22116267,56.035584 C8.21333333,57.6219977 10.1976747,58.0268983 13.0230613,57.2967497 C21.0261333,55.1660434 24.3114667,50.0550034 25.3956267,47.950848 Z" id="Shape" fill="#E2303D"></path>
                        <path d="M31.1909547,57.3564891 C28.9718747,60.2359435 26.1635457,62.5974565 22.9579093,64.2796251 C23.7351339,64.8451732 24.6677506,65.1514825 25.6256,65.1558034 C27.056225,65.0852691 28.4237022,64.5392304 29.5154347,63.6025783 C32.662784,61.1731749 34.2660267,58.9561783 34.279168,56.9980526 C34.2637545,56.0152577 33.8420396,55.0837944 33.11616,54.4292571 C32.5706526,55.4662081 31.925834,56.4466405 31.1909547,57.3564891 Z" id="Shape" fill="#E2303D"></path>
                        <path d="M29.883392,48.1898057 C28.9050983,48.2855997 27.9679805,48.6354598 27.163136,49.205376 C25.9278507,51.5219383 22.2417067,56.9383131 13.9298133,59.2747886 C14.6591573,61.9763383 16.1309867,63.3437074 18.312448,63.3437074 C21.7686187,63.3437074 26.1446827,60.0248503 28.937216,56.7059931 C30.9938347,54.2832274 32.1437013,51.9533897 31.9400107,50.6192091 C31.6837547,48.9929691 31.0135467,48.1898057 29.883392,48.1898057 Z" id="Shape" fill="#E2303D"></path>
                    </g>
                </g>
                <path d="M115.265216,48.590336 C115.646317,48.590336 115.966164,48.719636 116.224768,48.97824 C116.483372,49.236844 116.612672,49.5566914 116.612672,49.937792 L116.612672,50.019456 C116.612672,50.4005566 116.483372,50.720404 116.224768,50.979008 C115.966164,51.237612 115.646317,51.366912 115.265216,51.366912 L97.258304,51.366912 C97.0677537,52.0474487 96.6322167,52.387712 95.95168,52.387712 L95.870016,52.387712 C95.5161369,52.387712 95.2098999,52.258412 94.951296,51.999808 C94.692692,51.741204 94.563392,51.4213566 94.563392,51.040256 L94.563392,23.478656 L92.766784,26.173568 C92.5490122,26.4730042 92.2631911,26.6635516 91.909312,26.745216 C91.5554329,26.8268804 91.2151696,26.7588278 90.888512,26.541056 L90.888512,26.500224 C90.5618544,26.3096737 90.3508911,26.0306578 90.255616,25.663168 C90.1603408,25.2956782 90.2215882,24.9622202 90.43936,24.662784 L94.849216,17.966336 C95.0125448,17.7213428 95.2303133,17.5512111 95.502528,17.455936 C95.7747427,17.3606609 96.0469533,17.3402451 96.319168,17.394688 C96.6186042,17.5035739 96.8567884,17.6737055 97.033728,17.905088 C97.2106675,18.1364705 97.299136,18.4018758 97.299136,18.701312 L97.299136,19.191296 L105.506368,19.191296 L105.506368,16.741376 C105.506368,16.3602754 105.635668,16.040428 105.894272,15.781824 C106.152876,15.52322 106.472723,15.39392 106.853824,15.39392 L106.935488,15.39392 C107.289367,15.39392 107.595604,15.52322 107.854208,15.781824 C108.112812,16.040428 108.242112,16.3602754 108.242112,16.741376 L108.242112,19.191296 L115.265216,19.191296 C115.646317,19.191296 115.966164,19.320596 116.224768,19.5792 C116.483372,19.837804 116.612672,20.1576514 116.612672,20.538752 L116.612672,20.579584 C116.612672,20.9606846 116.483372,21.280532 116.224768,21.539136 C115.966164,21.79774 115.646317,21.92704 115.265216,21.92704 L108.242112,21.92704 L108.242112,29.113472 L115.265216,29.113472 C115.646317,29.113472 115.966164,29.242772 116.224768,29.501376 C116.483372,29.75998 116.612672,30.0798274 116.612672,30.460928 L116.612672,30.542592 C116.612672,30.9236926 116.483372,31.24354 116.224768,31.502144 C115.966164,31.760748 115.646317,31.890048 115.265216,31.890048 L108.242112,31.890048 L108.242112,38.87232 L115.265216,38.87232 C115.646317,38.87232 115.966164,39.00162 116.224768,39.260224 C116.483372,39.518828 116.612672,39.8386754 116.612672,40.219776 L116.612672,40.30144 C116.612672,40.6825406 116.483372,41.002388 116.224768,41.260992 C115.966164,41.519596 115.646317,41.648896 115.265216,41.648896 L108.242112,41.648896 L108.242112,48.590336 L115.265216,48.590336 Z M81.537984,23.478656 C81.1568834,23.478656 80.8370359,23.349356 80.578432,23.090752 C80.319828,22.832148 80.190528,22.5123006 80.190528,22.1312 L80.190528,22.090368 C80.190528,21.7092674 80.319828,21.38942 80.578432,21.130816 C80.8370359,20.872212 81.1568834,20.742912 81.537984,20.742912 L85.172032,20.742912 L85.172032,16.741376 C85.172032,16.3602754 85.301332,16.040428 85.559936,15.781824 C85.8185399,15.52322 86.1383874,15.39392 86.519488,15.39392 L86.601152,15.39392 C86.9822526,15.39392 87.3021,15.52322 87.560704,15.781824 C87.8193079,16.040428 87.948608,16.3602754 87.948608,16.741376 L87.948608,20.742912 L89.663552,20.742912 C90.0446526,20.742912 90.3645,20.872212 90.623104,21.130816 C90.8817079,21.38942 91.011008,21.7092674 91.011008,22.090368 L91.011008,22.1312 C91.011008,22.5123006 90.8817079,22.832148 90.623104,23.090752 C90.3645,23.349356 90.0446526,23.478656 89.663552,23.478656 L87.948608,23.478656 L87.948608,34.58496 L89.990208,33.400832 C90.3440871,33.2375032 90.6911556,33.2034769 91.031424,33.298752 C91.3716924,33.3940271 91.6370977,33.6049904 91.827648,33.931648 L91.86848,33.97248 C92.0590303,34.2991376 92.0998619,34.6394009 91.990976,34.99328 C91.8820901,35.3471591 91.6643216,35.6193697 91.337664,35.80992 L87.948608,37.769856 L87.948608,47.120384 C87.948608,47.5014846 87.9145817,47.8553584 87.846528,48.182016 C87.7784743,48.5086736 87.6763953,48.8217158 87.540288,49.121152 C86.9958586,50.3733396 86.1111741,51.2852451 84.886208,51.856896 C84.5595504,51.9930033 84.2397029,52.0950823 83.926656,52.163136 C83.6136091,52.2311897 83.2801511,52.265216 82.926272,52.265216 L82.191296,52.265216 C81.8374169,52.265216 81.5243747,52.1291107 81.25216,51.856896 C80.9799453,51.5846813 80.84384,51.2716391 80.84384,50.91776 L80.84384,50.836096 C80.84384,50.4549954 80.9799453,50.135148 81.25216,49.876544 C81.5243747,49.61794 81.8374169,49.48864 82.191296,49.48864 L82.926272,49.48864 C83.5795873,49.48864 84.1103979,49.257261 84.51872,48.794496 C84.9542635,48.3589525 85.172032,47.8009207 85.172032,47.120384 L85.172032,39.321472 L82.0688,41.077248 C81.7693638,41.2677983 81.4427111,41.3154351 81.088832,41.22016 C80.7349529,41.1248849 80.4491317,40.9003111 80.23136,40.546432 L80.190528,40.5056 C80.0271992,40.2061638 79.9999781,39.8727058 80.108864,39.505216 C80.2177499,39.1377262 80.4219078,38.8587103 80.721344,38.66816 L85.172032,36.136576 L85.172032,23.478656 L81.537984,23.478656 Z M97.299136,29.113472 L105.506368,29.113472 L105.506368,21.92704 L97.299136,21.92704 L97.299136,29.113472 Z M97.299136,38.87232 L105.506368,38.87232 L105.506368,31.890048 L97.299136,31.890048 L97.299136,38.87232 Z M105.506368,48.590336 L105.506368,41.648896 L97.299136,41.648896 L97.299136,48.590336 L105.506368,48.590336 Z M131.557184,31.195904 C130.849426,31.195904 130.19612,31.0734092 129.597248,30.828416 C128.34506,30.2567651 127.433155,29.3448596 126.861504,28.092672 C126.725397,27.7660144 126.623318,27.4461669 126.555264,27.13312 C126.48721,26.8200731 126.453184,26.4730046 126.453184,26.091904 L126.453184,20.579584 C126.453184,19.9534902 126.589289,19.3001847 126.861504,18.619648 C127.405933,17.3946819 128.317839,16.4827763 129.597248,15.883904 C130.277785,15.6116893 130.93109,15.475584 131.557184,15.475584 L149.155776,15.475584 C149.809091,15.475584 150.476007,15.6116893 151.156544,15.883904 C152.435953,16.4827763 153.334248,17.3946819 153.851456,18.619648 C154.123671,19.1912989 154.259776,19.8446043 154.259776,20.579584 L154.259776,26.091904 C154.259776,26.7996622 154.123671,27.4665782 153.851456,28.092672 C153.307027,29.3176381 152.408732,30.2295437 151.156544,30.828416 C150.53045,31.0734092 149.863534,31.195904 149.155776,31.195904 L131.557184,31.195904 Z M135.027904,36.953216 C133.830159,43.0780466 130.495579,47.9914482 125.024064,51.693568 C124.697406,51.8841183 124.343533,51.9385604 123.962432,51.856896 C123.581331,51.7752316 123.29551,51.5710736 123.10496,51.244416 L123.10496,51.162752 C122.887188,50.8633158 122.825941,50.5434684 122.921216,50.2032 C123.016491,49.8629316 123.213844,49.5839158 123.51328,49.366144 C128.277037,46.2628965 131.17608,42.0572425 132.210496,36.749056 L125.064896,36.749056 C124.547688,36.749056 124.180204,36.5585086 123.962432,36.177408 C123.662996,35.7963074 123.608554,35.3879915 123.799104,34.952448 L124.819904,32.053376 C124.956011,31.6994969 125.180585,31.4408968 125.493632,31.277568 C125.806679,31.1142392 126.153747,31.1006287 126.534848,31.236736 L126.616512,31.277568 C126.94317,31.3864539 127.188159,31.5974171 127.351488,31.910464 C127.514817,32.2235109 127.542038,32.5705794 127.433152,32.95168 L127.106496,33.97248 L151.564864,33.97248 C152.653723,33.97248 153.626876,34.2514959 154.484352,34.809536 C155.341828,35.3675761 155.988328,36.1229606 156.423872,37.075712 C156.723308,37.7290273 156.873024,38.3959433 156.873024,39.07648 L156.873024,46.957056 C156.873024,47.3381566 156.832192,47.6852251 156.750528,47.998272 C156.668864,48.3113189 156.559979,48.6175558 156.423872,48.916992 C155.852221,50.1419581 154.926705,51.0266426 153.647296,51.571072 C153.021202,51.8432867 152.327065,51.979392 151.564864,51.979392 L149.727424,51.979392 C149.346323,51.979392 149.026476,51.850092 148.767872,51.591488 C148.509268,51.332884 148.379968,51.0130366 148.379968,50.631936 L148.379968,50.550272 C148.379968,50.1963929 148.509268,49.8833507 148.767872,49.611136 C149.026476,49.3389213 149.346323,49.202816 149.727424,49.202816 L151.564864,49.202816 C152.354287,49.202816 152.95315,48.998658 153.361472,48.590336 C153.851458,48.1547925 154.096448,47.6103713 154.096448,46.957056 L154.096448,39.07648 C154.096448,38.4776077 153.851458,37.9331864 153.361472,37.4432 C152.898707,36.980435 152.299844,36.749056 151.564864,36.749056 L145.15424,36.749056 L145.15424,36.871552 C144.882025,39.7298063 144.201499,42.3974703 143.11264,44.874624 C142.105446,47.2973348 140.540235,49.4614091 138.41696,51.366912 C138.171967,51.6391267 137.831704,51.775232 137.39616,51.775232 C137.042281,51.7480105 136.729239,51.5710736 136.457024,51.244416 L136.416192,51.162752 C136.19842,50.8905373 136.096341,50.5843004 136.109952,50.244032 C136.123563,49.9037636 136.266473,49.6111372 136.538688,49.366144 C137.464218,48.5222784 138.267239,47.6239834 138.947776,46.671232 C139.628313,45.7184806 140.199955,44.7113013 140.66272,43.649664 C141.533807,41.5536109 142.105449,39.2534312 142.377664,36.749056 L135.027904,36.749056 L135.027904,36.953216 Z M151.524032,20.579584 C151.524032,19.9534902 151.279042,19.3954584 150.789056,18.905472 C150.353512,18.4699285 149.809091,18.25216 149.155776,18.25216 L131.557184,18.25216 C130.903869,18.25216 130.359448,18.4699285 129.923904,18.905472 C129.461139,19.368237 129.22976,19.9262687 129.22976,20.579584 L129.22976,22.049536 L151.524032,22.049536 L151.524032,20.579584 Z M149.155776,28.46016 C149.78187,28.46016 150.326291,28.2151704 150.789056,27.725184 C151.279042,27.2896405 151.524032,26.7452193 151.524032,26.091904 L151.524032,24.78528 L129.22976,24.78528 L129.22976,26.091904 C129.22976,26.7452193 129.461139,27.2896405 129.923904,27.725184 C130.359448,28.2151704 130.903869,28.46016 131.557184,28.46016 L149.155776,28.46016 Z M183.822144,52.591872 C182.760507,52.591872 181.80777,52.2992456 180.963904,51.713984 C180.120038,51.1287224 179.493954,50.3597274 179.085632,49.406976 C178.949525,49.0803184 178.847446,48.7604709 178.779392,48.447424 C178.711338,48.1343771 178.677312,47.7873086 178.677312,47.406208 L178.677312,20.865408 C178.677312,20.5115289 178.711338,20.1712656 178.779392,19.844608 C178.847446,19.5179504 178.949525,19.1912976 179.085632,18.86464 C179.493954,17.93911 180.120038,17.1837256 180.963904,16.598464 C181.80777,16.0132024 182.760507,15.720576 183.822144,15.720576 L193.94848,15.720576 C194.982896,15.720576 195.915217,16.0132024 196.745472,16.598464 C197.575727,17.1837256 198.195006,17.93911 198.603328,18.86464 C198.902764,19.4635123 199.05248,20.1304283 199.05248,20.865408 L199.05248,32.420864 C199.05248,32.7747431 199.018454,33.1150064 198.9504,33.441664 C198.882346,33.7683216 198.766657,34.0813638 198.603328,34.3808 C198.140563,35.6602091 197.242268,36.5721146 195.908416,37.116544 C195.60898,37.2526513 195.289132,37.3547303 194.948864,37.422784 C194.608596,37.4908377 194.275138,37.524864 193.94848,37.524864 L181.453888,37.524864 L181.453888,47.406208 C181.453888,48.0867447 181.671656,48.6447765 182.1072,49.08032 C182.624408,49.543085 183.19605,49.774464 183.822144,49.774464 L198.113344,49.774464 C198.494445,49.774464 198.814292,49.903764 199.072896,50.162368 C199.3315,50.420972 199.4608,50.7408194 199.4608,51.12192 L199.4608,51.244416 C199.4608,51.5982951 199.3315,51.9113373 199.072896,52.183552 C198.814292,52.4557667 198.494445,52.591872 198.113344,52.591872 L183.822144,52.591872 Z M167.693504,51.7344 C166.931303,51.7344 166.264387,51.5982947 165.692736,51.32608 C164.46777,50.863315 163.555864,49.96502 162.956992,48.631168 C162.684777,47.9506313 162.548672,47.2837153 162.548672,46.6304 L162.548672,22.253696 C162.548672,21.8998169 162.582698,21.5595536 162.650752,21.232896 C162.718806,20.9062384 162.820885,20.5795856 162.956992,20.252928 C163.555864,18.9735189 164.46777,18.0752239 165.692736,17.558016 C166.264387,17.2858013 166.931303,17.149696 167.693504,17.149696 L171.164224,17.149696 C171.871982,17.149696 172.538898,17.2858013 173.164992,17.558016 C174.389958,18.1024454 175.301864,19.0007404 175.900736,20.252928 C176.145729,20.9062433 176.268224,21.5731593 176.268224,22.253696 L176.268224,46.6304 C176.268224,47.3653797 176.145729,48.0322957 175.900736,48.631168 C175.301864,49.9377985 174.389958,50.8360936 173.164992,51.32608 C172.538898,51.5982947 171.871982,51.7344 171.164224,51.7344 L167.693504,51.7344 Z M171.164224,48.998656 C171.790318,48.998656 172.334739,48.767277 172.797504,48.304512 C173.28749,47.8689685 173.53248,47.3109367 173.53248,46.6304 L173.53248,22.253696 C173.53248,21.6003807 173.28749,21.042349 172.797504,20.579584 C172.334739,20.171262 171.790318,19.967104 171.164224,19.967104 L167.693504,19.967104 C167.012967,19.967104 166.454936,20.171262 166.019392,20.579584 C165.556627,21.042349 165.325248,21.6003807 165.325248,22.253696 L165.325248,46.6304 C165.325248,47.2837153 165.556627,47.841747 166.019392,48.304512 C166.482157,48.767277 167.040189,48.998656 167.693504,48.998656 L171.164224,48.998656 Z M190.110272,18.537984 L190.110272,34.78912 L193.94848,34.78912 C194.574574,34.78912 195.118995,34.557741 195.58176,34.094976 C196.044525,33.5777681 196.275904,33.0197363 196.275904,32.420864 L196.275904,20.865408 C196.275904,20.1848713 196.044525,19.64045 195.58176,19.232128 C195.118995,18.769363 194.574574,18.537984 193.94848,18.537984 L190.110272,18.537984 Z M187.333696,18.537984 L183.822144,18.537984 C183.19605,18.537984 182.624408,18.769363 182.1072,19.232128 C181.671656,19.64045 181.453888,20.1848713 181.453888,20.865408 L181.453888,34.78912 L187.333696,34.78912 L187.333696,18.537984 Z" id="推易吧" fill="#F6F9FF"></path>
            </g>
        </g>
    </g>
</svg>