<?xml version="1.0" encoding="UTF-8"?>
<svg width="32px" height="32px" viewBox="0 0 32 32" version="1.1" xmlns="http://www.w3.org/2000/svg" xmlns:xlink="http://www.w3.org/1999/xlink">
    <!-- Generator: Sketch 51.3 (57544) - http://www.bohemiancoding.com/sketch -->
    <title>中文</title>
    <desc>Created with Sketch.</desc>
    <defs></defs>
    <g id="Page-1" stroke="none" stroke-width="1" fill="none" fill-rule="evenodd">
        <g id="hero---2.0-copy-2" transform="translate(-2256.000000, -84.000000)" fill-rule="nonzero">
            <g id="top_nav_en" transform="translate(1096.000000, 60.000000)">
                <g id="Group-9" transform="translate(0.000000, 20.000000)">
                    <g id="cn" transform="translate(1160.000000, 0.000000)">
                        <g id="中文" transform="translate(0.000000, 4.000000)">
                            <path d="M0,16 C1.082166e-15,24.836556 7.163444,32 16,32 C24.836556,32 32,24.836556 32,16 C32,7.163444 24.836556,5.41083001e-16 16,0 C7.163444,-5.41083001e-16 1.082166e-15,7.163444 0,16 Z" id="Shape" fill="#DE2910"></path>
                            <path d="M11.664,9.896 L12.844,13.5253333 L16.66,13.5253333 L13.572,15.7706667 L14.7493333,19.4 L11.664,17.1573333 L8.57733334,19.4 L9.75333334,15.7706667 L6.66666666,13.5253333 L10.4826667,13.5253333 L11.664,9.896 Z M21.6106667,8 L21.5333333,9.25333334 L22.6986667,9.71866666 L21.48,10.028 L21.4,11.2813333 L20.7293333,10.2213333 L19.5106667,10.5306667 L20.312,9.564 L19.6453333,8.50533334 L20.8093333,8.96933334 L21.6133333,8 L21.6106667,8 Z M25.8973333,12.0666667 L25.324,13.1853333 L26.2106667,14.076 L24.9733333,13.876 L24.3973333,14.996 L24.208,13.756 L22.964,13.5546667 L24.084,12.9866667 L23.892,11.7466667 L24.7773333,12.6373333 L25.8973333,12.068 L25.8973333,12.0666667 Z M24.6093333,17.1586667 L24.996,18.3546667 L26.252,18.3546667 L25.236,19.092 L25.6213333,20.2866667 L24.608,19.5466667 L23.5906667,20.2866667 L23.9773333,19.092 L22.964,18.3546667 L24.2186667,18.3546667 L24.6093333,17.1586667 Z M21.6026667,20.992 L21.5226667,22.2453333 L22.6893333,22.7093333 L21.4693333,23.02 L21.3906667,24.2733333 L20.72,23.212 L19.5,23.5226667 L20.3013333,22.556 L19.6346667,21.4946667 L20.8013333,21.9613333 L21.6026667,20.992 Z" id="Shape" fill="#FFDE00"></path>
                        </g>
                    </g>
                </g>
            </g>
        </g>
    </g>
</svg>