<?xml version="1.0" encoding="UTF-8"?>
<svg width="62px" height="54px" viewBox="0 0 62 54" version="1.1" xmlns="http://www.w3.org/2000/svg" xmlns:xlink="http://www.w3.org/1999/xlink">
    <!-- Generator: Sketch 51.3 (57544) - http://www.bohemiancoding.com/sketch -->
    <title>分享 (5)</title>
    <desc>Created with Sketch.</desc>
    <defs></defs>
    <g id="Page-1" stroke="none" stroke-width="1" fill="none" fill-rule="evenodd">
        <g id="APP" transform="translate(-2299.000000, -1008.000000)" fill="#677382" fill-rule="nonzero">
            <g id="wall" transform="translate(659.000000, 558.000000)">
                <g id="Group-9" transform="translate(1621.000000, 7.000000)">
                    <g id="Group-8" transform="translate(0.000000, 420.000000)">
                        <g id="分享-(5)" transform="translate(19.000000, 23.000000)">
                            <path d="M34.8825832,2.97809396 L59.0108963,27 L34.8845245,51.021906 L34.8845245,38.0213154 C34.1080078,37.9768591 33.230544,37.9459329 32.2676634,37.9459329 C25.2537769,37.9459329 13.67009,39.5579597 2.99104501,48.4434362 C2.99104501,48.4434362 6.67949902,22.8752215 34.8845245,17.6293691 L34.8845245,2.97809396 L34.8825832,2.97809396 Z M34.8825832,0.00531543624 C33.2340668,0.00638161288 31.8979475,1.33671554 31.8968767,2.97809396 L31.8968767,15.2209933 C17.810865,18.5532886 9.97581213,26.8569664 5.83309589,33.4229799 C1.1021683,40.9167785 0.0752250489,47.7340671 0.0344579256,48.0220671 C-0.141785557,49.2416245 0.455820795,50.4430342 1.53691838,51.0425681 C2.61801597,51.6421021 3.9585117,51.5154872 4.9070998,50.7242416 C14.4776673,42.7607517 24.7975734,40.9786309 31.8968767,40.9206443 L31.8968767,51.0199732 C31.8961383,52.2229142 32.6235909,53.3077325 33.7397555,53.7681776 C34.8559201,54.2286227 36.1407708,53.9739286 36.9947084,53.122953 L61.1210802,29.101047 C61.681449,28.5437993 61.9963197,27.7875922 61.9963197,26.9990336 C61.9963197,26.2104749 61.681449,25.4542678 61.1210802,24.8970201 L36.9947084,0.87704698 C36.4344071,0.319653278 35.6746268,0.00676661267 34.8825832,0.00724832215 L34.8825832,0.00531543624 Z" id="Shape"></path>
                        </g>
                    </g>
                </g>
            </g>
        </g>
    </g>
</svg>