<?xml version="1.0" encoding="UTF-8"?>
<svg width="54px" height="54px" viewBox="0 0 54 54" version="1.1" xmlns="http://www.w3.org/2000/svg" xmlns:xlink="http://www.w3.org/1999/xlink">
    <!-- Generator: Sketch 51.3 (57544) - http://www.bohemiancoding.com/sketch -->
    <title>发布产品</title>
    <desc>Created with Sketch.</desc>
    <defs></defs>
    <g id="Page-1" stroke="none" stroke-width="1" fill="none" fill-rule="evenodd">
        <g id="APP" transform="translate(-2303.000000, -1008.000000)" fill="#1652F0" fill-rule="nonzero">
            <g id="me" transform="translate(659.000000, 558.000000)">
                <g id="Group-17" transform="translate(1621.000000, 427.000000)">
                    <g id="发布产品" transform="translate(23.000000, 23.000000)">
                        <path d="M45.5374101,21.3987981 C45.5374101,24.8581731 45.5374101,28.3175481 45.5438849,31.7834135 C45.5438849,32.0235577 45.4856115,32.1663462 45.2654676,32.2961538 C39.3021583,35.7425481 33.3388489,39.1954327 27.3820144,42.6548077 C27.0906475,42.8235577 26.8834532,42.8170673 26.5985612,42.6483173 C20.6482014,39.1954327 14.6978417,35.7490385 8.74100719,32.3026442 C8.51438849,32.1728365 8.43669065,32.0300481 8.43669065,31.7704327 C8.44316547,24.8516827 8.44316547,17.9264423 8.43669065,11.0076923 C8.43669065,10.7480769 8.51438849,10.6052885 8.74100719,10.4754808 C14.7302158,7.02259615 20.7129496,3.56322115 26.6892086,0.0973557692 C26.9158273,-0.0324519231 27.071223,-0.0259615385 27.2978417,0.103846154 C33.2741007,3.56971154 39.2568345,7.02908654 45.2460432,10.4819712 C45.4791367,10.6182692 45.5438849,10.7610577 45.5438849,11.0141827 C45.5374101,14.4735577 45.5374101,17.9329327 45.5374101,21.3987981 Z M10.3726619,12.9807692 C10.3661871,13.0716346 10.3597122,13.1170673 10.3597122,13.1625 C10.3597122,19.0362981 10.3597122,24.9100962 10.3532374,30.7774038 C10.3532374,30.9721154 10.4309353,31.0629808 10.5863309,31.1473558 C15.5978417,34.0420673 20.6093525,36.9432692 25.6208633,39.8444712 C25.7179856,39.9028846 25.8151079,39.9483173 25.9381295,40.0132212 C25.9446043,39.9223558 25.9510791,39.8769231 25.9510791,39.8314904 C25.9510791,33.9576923 25.9510791,28.0838942 25.957554,22.2165865 C25.957554,22.021875 25.8863309,21.9310096 25.7309353,21.8401442 C20.7064748,18.9389423 15.6884892,16.03125 10.6705036,13.1235577 C10.5798561,13.0846154 10.4956835,13.0456731 10.3726619,12.9807692 Z M28.0230216,40.0262019 C28.1848921,39.9418269 28.294964,39.8834135 28.405036,39.8185096 C33.3776978,36.9367788 38.3503597,34.0615385 43.3294964,31.1862981 C43.5496403,31.0629808 43.6208633,30.9266827 43.6208633,30.6800481 C43.6143885,24.890625 43.6143885,19.1076923 43.6143885,13.3182692 C43.6143885,13.2144231 43.6079137,13.1170673 43.594964,12.9742788 C43.4654676,13.0456731 43.3683453,13.0911058 43.2776978,13.1430288 C38.2856115,16.03125 33.2935252,18.9259615 28.294964,21.8076923 C28.0748201,21.9375 28.0100719,22.0737981 28.0100719,22.3139423 C28.0165468,28.0903846 28.0165468,33.8668269 28.0165468,39.6432692 C28.0230216,39.7536058 28.0230216,39.8639423 28.0230216,40.0262019 Z M42.5589928,11.1634615 C42.4618705,11.0985577 42.4035971,11.0596154 42.3388489,11.0206731 C37.3014388,8.1 32.257554,5.18581731 27.2266187,2.26514423 C27.0582734,2.16778846 26.928777,2.16129808 26.7539568,2.25865385 C21.7100719,5.19230769 16.6597122,8.11298077 11.6158273,11.0336538 C11.557554,11.0661058 11.5057554,11.1180288 11.4410072,11.1699519 C11.4992806,11.2088942 11.5316547,11.2348558 11.5705036,11.2543269 C16.6338129,14.1879808 21.7035971,17.128125 26.7669065,20.0682692 C26.9417266,20.1721154 27.0647482,20.1526442 27.2330935,20.0552885 L40.8884892,12.1305288 C41.4323741,11.8189904 41.976259,11.5009615 42.5589928,11.1634615 Z" id="Shape"></path>
                        <path d="M6.3647482,26.6689904 C6.3647482,27.4283654 6.3323741,28.1098558 6.37769784,28.7848558 C6.41654676,29.4014423 6.2352518,29.8752404 5.85971223,30.375 C3.14028777,34.0225962 3.26978417,38.8709135 6.1381295,42.4146635 C7.75683453,44.4137019 9.8028777,45.8675481 12.0496403,47.0682692 C14.8273381,48.5545673 17.7928058,49.4632212 20.8877698,49.9564904 C24.0733813,50.4692308 27.2848921,50.5665865 30.4964029,50.2810096 C34.5172662,49.9240385 38.376259,48.9504808 41.9568345,47.0423077 C44.281295,45.8026442 46.3985612,44.2903846 48.0043165,42.1615385 C50.794964,38.4620192 50.7625899,33.7824519 47.9330935,30.121875 C47.6935252,29.8103365 47.5899281,29.5117788 47.6028777,29.1223558 C47.6223022,28.3370192 47.6093525,27.5516827 47.6093525,26.6625 C48.1143885,27.0649038 48.5676259,27.4088942 48.994964,27.7723558 C50.4906475,29.0379808 51.8115108,30.4658654 52.6726619,32.2442308 C54.6733813,36.3786058 54.3043165,40.3507212 51.6884892,44.0956731 C50.2769784,46.1206731 48.3733813,47.6394231 46.3014388,48.9375 C42.7143885,51.1896635 38.8035971,52.5980769 34.6402878,53.3314904 C31.7071942,53.8507212 28.7546763,54.0519231 25.7827338,53.9740385 C21.0690647,53.8507212 16.4719424,53.0913462 12.1014388,51.2545673 C9.10359712,49.9954327 6.3323741,48.3728365 3.98201439,46.0947115 C1.92302158,44.1021635 0.498561151,41.7526442 0.135971223,38.8579327 C-0.239568345,35.8528846 0.46618705,33.1139423 2.23381295,30.6475962 C3.36043165,29.1028846 4.74604317,27.8372596 6.3647482,26.6689904 Z" id="Shape"></path>
                    </g>
                </g>
            </g>
        </g>
    </g>
</svg>