<?xml version="1.0" encoding="UTF-8"?>
<svg width="54px" height="54px" viewBox="0 0 54 54" version="1.1" xmlns="http://www.w3.org/2000/svg" xmlns:xlink="http://www.w3.org/1999/xlink">
    <!-- Generator: Sketch 51.3 (57544) - http://www.bohemiancoding.com/sketch -->
    <title>好友列表</title>
    <desc>Created with Sketch.</desc>
    <defs></defs>
    <g id="Page-1" stroke="none" stroke-width="1" fill="none" fill-rule="evenodd">
        <g id="APP" transform="translate(-2303.000000, -728.000000)" fill="#1652F0" fill-rule="nonzero">
            <g id="connect" transform="translate(659.000000, 558.000000)">
                <g id="好友列表" transform="translate(1644.000000, 170.000000)">
                    <path d="M41.1441159,35.1458541 C41.3246547,34.7919111 41.357135,34.3807296 41.2344064,34.0028306 C41.1116777,33.6249316 40.8438015,33.3112956 40.4897502,33.130969 C38.687289,32.2203671 36.7932353,31.5037225 34.8394406,30.9930869 C39.9977622,28.2046154 43.5101898,22.7474326 43.5101898,16.4815984 C43.5107293,7.39438561 36.1158042,0 27.026973,0 C17.9381419,0 10.5437562,7.39438561 10.5437562,16.4837562 C10.5437562,22.7231568 14.0292108,28.1625375 19.1540859,30.9612587 C8.77972028,33.6574825 1.30819181,41.6706294 0.0641958042,52.2737263 C-0.0319886655,53.0957174 0.556341456,53.8400661 1.37832168,53.9363437 C1.4366729,53.9434137 1.49540834,53.9468369 1.55418581,53.9465934 C2.3137942,53.9457297 2.9526193,53.3766747 3.04093906,52.6222178 C4.39876124,41.0491708 14.2633367,32.966973 27.026973,32.966973 C31.3086713,32.966973 35.4965035,33.9471728 39.1292308,35.8002198 C39.8664038,36.1749005 40.767757,35.8821719 41.1441159,35.1458541 Z M13.5404595,16.4837562 C13.5404595,9.04675325 19.58997,2.99724276 27.026973,2.99724276 C34.463976,2.99724276 40.5134865,9.04675325 40.5134865,16.4837562 C40.5134865,23.9207592 34.463976,29.9702697 27.026973,29.9702697 C19.58997,29.9702697 13.5404595,23.9202198 13.5404595,16.4837562 Z M33.0209191,40.4595405 C33.0206326,40.8570873 33.1784306,41.238434 33.4595387,41.5195422 C33.7406469,41.8006504 34.1219936,41.9584484 34.5195405,41.9581618 L52.5013786,41.9581618 C53.3290444,41.9581618 54,41.2872062 54,40.4595405 C54,39.6318747 53.3290444,38.9609191 52.5013786,38.9609191 L34.5195405,38.9609191 C34.1219936,38.9606326 33.7406469,39.1184306 33.4595387,39.3995387 C33.1784306,39.6806469 33.0206326,40.0619936 33.0209191,40.4595405 Z M52.5013786,44.9548651 L34.5195405,44.9548651 C33.6918747,44.9548651 33.0209191,45.6258208 33.0209191,46.4534865 C33.0209191,47.2811522 33.6918747,47.9521079 34.5195405,47.9521079 L52.5013786,47.9521079 C53.0367845,47.9521079 53.5315199,47.6664723 53.7992229,47.2027972 C54.0669258,46.7391221 54.0669258,46.1678509 53.7992229,45.7041758 C53.5315199,45.2405007 53.0367845,44.9548651 52.5013786,44.9548651 Z M52.5013786,50.9488112 L34.5195405,50.9488112 C33.6918747,50.9488112 33.0209191,51.6197668 33.0209191,52.4474326 C33.0209191,53.2750983 33.6918747,53.9460539 34.5195405,53.9460539 L52.5013786,53.9460539 C53.3290444,53.9460539 54,53.2750983 54,52.4474326 C54,51.6197668 53.3290444,50.9488112 52.5013786,50.9488112 Z" id="Shape"></path>
                </g>
            </g>
        </g>
    </g>
</svg>