<?xml version="1.0" encoding="UTF-8"?>
<svg width="65px" height="80px" viewBox="0 0 65 80" version="1.1" xmlns="http://www.w3.org/2000/svg" xmlns:xlink="http://www.w3.org/1999/xlink">
    <!-- Generator: Sketch 51.3 (57544) - http://www.bohemiancoding.com/sketch -->
    <title>影响力_上升</title>
    <desc>Created with Sketch.</desc>
    <defs></defs>
    <g id="Page-1" stroke="none" stroke-width="1" fill="none" fill-rule="evenodd">
        <g id="一切皆有可能" transform="translate(-1190.000000, -585.000000)" fill="#1652F0" fill-rule="nonzero">
            <g id="Group-10" transform="translate(340.000000, 585.000000)">
                <g id="Group-6" transform="translate(850.000000, 0.000000)">
                    <g id="Group-3">
                        <g id="影响力_上升">
                            <path d="M18.3844254,80 C16.8333651,80 15.5785691,78.7895137 15.5785691,77.2939535 C15.5785691,75.7976321 16.8334496,74.5875687 18.3844254,74.5875687 L46.4476327,74.5875687 C47.9996217,74.5875687 49.2544178,75.7976321 49.2544178,77.2939535 C49.2544178,78.7895137 47.9995373,80 46.4476327,80 L18.3847632,80 L18.3844254,80 Z M18.3844254,69.1751374 L46.4476327,69.1751374 C47.9932895,69.1751374 49.2544178,67.9590698 49.2544178,66.4687526 L49.2544178,39.4060888 C49.2544178,37.9157717 50.5147018,36.699704 52.0602741,36.699704 L63.2857259,36.699704 C64.8309605,36.699704 65.2704178,35.7747146 64.2668004,34.6488795 L34.2413596,0.863002114 C33.7426327,0.302917548 33.0791831,0.0174207188 32.4160713,0.0174207188 C31.7526217,0.0174207188 31.0894254,0.302917548 30.5906985,0.863002114 L0.565004386,34.6488795 C-0.43785307,35.7747146 0.000422149123,36.699704 1.5456568,36.699704 L12.7714463,36.699704 C14.3171875,36.699704 15.5783158,37.9157717 15.5783158,39.4060888 L15.5783158,66.4687526 C15.5783158,67.9590698 16.8380932,69.1751374 18.3841721,69.1751374 L18.3844254,69.1751374 Z M21.1899441,63.7622833 L21.1899441,39.4060888 C21.1899441,34.9291332 17.41458,31.2871882 12.7716151,31.2871882 L10.9409232,31.2871882 L32.4162401,7.13192389 L53.8907127,31.2871882 L52.0603586,31.2871882 C47.4184068,31.2871882 43.6413542,34.9291332 43.6413542,39.4060888 L43.6413542,63.7622833 L21.1899441,63.7622833 Z" id="Shape"></path>
                        </g>
                    </g>
                </g>
            </g>
        </g>
    </g>
</svg>