<?xml version="1.0" encoding="UTF-8"?>
<svg width="57px" height="57px" viewBox="0 0 57 57" version="1.1" xmlns="http://www.w3.org/2000/svg" xmlns:xlink="http://www.w3.org/1999/xlink">
    <!-- Generator: Sketch 51.3 (57544) - http://www.bohemiancoding.com/sketch -->
    <title>我的COIN</title>
    <desc>Created with Sketch.</desc>
    <defs></defs>
    <g id="Page-1" stroke="none" stroke-width="1" fill="none" fill-rule="evenodd">
        <g id="APP" transform="translate(-2302.000000, -797.000000)" fill="#0ACBF8" fill-rule="nonzero">
            <g id="products" transform="translate(659.000000, 558.000000)">
                <g id="Group-5" transform="translate(1621.000000, 217.000000)">
                    <g id="我的COIN" transform="translate(22.000000, 22.000000)">
                        <path d="M7.22593037,16.3140288 C3.87983193,22.3557554 3.25714286,28.6913669 4.98151261,35.252518 C6.28163265,40.207554 9.18979592,44.1647482 13.0764706,47.4248201 C16.3541417,50.1723022 20.1176471,51.8741007 24.3943577,52.557554 L24.3943577,42.7294964 L32.5440576,42.7294964 L32.5440576,52.6053957 C40.8442977,50.9651079 46.770108,46.3381295 50.5951981,38.9294964 C53.9481393,31.2679856 53.6265306,23.75 49.7740696,16.3345324 C49.8288115,16.3276978 49.9246098,16.3140288 50.0204082,16.3140288 C51.3410564,16.3140288 52.6685474,16.3208633 53.9891957,16.3071942 C54.2355342,16.3071942 54.345018,16.3960432 54.4408163,16.6079137 C55.6109244,19.1366906 56.3362545,21.7884892 56.6852341,24.5496403 C57.2463385,28.923741 56.9110444,33.2226619 55.5698679,37.4327338 C54.502401,40.7816547 52.7643457,43.7615108 50.519928,46.4679856 C47.9196879,49.605036 44.8472989,52.1543165 41.2138055,54.0064748 C38.312485,55.4827338 35.2264106,56.357554 31.9966387,56.7334532 C29.1021609,57.0683453 26.2145258,57.0068345 23.347419,56.5079137 C18.5438175,55.6741007 14.2602641,53.7194245 10.5309724,50.5892086 C7.80072029,48.2996403 5.46734694,45.6751799 3.66770708,42.5928058 C1.9364946,39.6334532 0.827971188,36.4485612 0.342136855,33.0517986 C-0.301080432,28.5341727 -0.0684273709,24.0848921 1.32064826,19.7176259 C1.66278511,18.6377698 2.12809124,17.5989209 2.55234094,16.5395683 C2.59339736,16.4370504 2.73709484,16.3140288 2.82605042,16.3140288 C4.27671068,16.3071942 5.72052821,16.3140288 7.22593037,16.3140288 Z" id="Shape"></path>
                        <path d="M18.3316927,16.3140288 L18.6943577,16.3140288 C22.7794718,16.3140288 26.8577431,16.3003597 30.9428571,16.3208633 C31.962425,16.3276978 32.9956783,16.3960432 34.0015606,16.5464029 C35.8490996,16.8197842 37.1492197,17.8928058 37.9087635,19.5672662 C39.0788715,22.1643885 38.8804322,24.6589928 37.2039616,26.9895683 C36.7318127,27.6456835 36.1159664,28.1446043 35.4180072,28.4726619 C35.9380552,28.8758993 36.4923169,29.231295 36.9713085,29.6755396 C37.7719088,30.4205036 38.2235294,31.3773381 38.4493397,32.4366906 C38.7367347,33.7694245 38.7093637,35.1089928 38.3740696,36.4280576 C37.7719088,38.7723022 36.0954382,40.2348921 33.6731092,40.5014388 C32.8246098,40.5971223 31.9692677,40.6517986 31.1207683,40.6517986 C27.0014406,40.6654676 22.8889556,40.6586331 18.7696279,40.6586331 L18.3385354,40.6586331 C18.3316927,32.5460432 18.3316927,24.4539568 18.3316927,16.3140288 Z M23.1831933,36.3118705 C23.2721489,36.3255396 23.3268908,36.3323741 23.3816327,36.3323741 C25.7286915,36.3323741 28.082593,36.3460432 30.4296519,36.3255396 C31.0454982,36.318705 31.6339736,36.2093525 32.1471789,35.778777 C33.0709484,35.0064748 33.3651861,34.0154676 33.2351741,32.8741007 C33.1188475,31.8625899 32.5987995,31.1244604 31.572389,30.8510791 C31.154982,30.7417266 30.7170468,30.6802158 30.2927971,30.6733813 C28.0483794,30.6528777 25.8039616,30.6597122 23.5527011,30.6528777 L23.1831933,30.6528777 L23.1831933,36.3118705 Z M23.1968788,20.6402878 L23.1968788,26.2856115 C23.2584634,26.2992806 23.2926771,26.3061151 23.3268908,26.3061151 C25.7218487,26.3061151 28.1168067,26.3129496 30.5117647,26.2992806 C31.02497,26.2992806 31.5244898,26.2104317 31.9761104,25.9028777 C32.7698679,25.3629496 33.159904,24.6043165 33.2557023,23.6748201 C33.4130852,22.157554 32.7014406,21.0571942 31.3397359,20.7838129 C30.7717887,20.6676259 30.1833133,20.6402878 29.6085234,20.6402878 C27.589916,20.6266187 25.5713085,20.6334532 23.5527011,20.6334532 C23.4295318,20.6402878 23.320048,20.6402878 23.1968788,20.6402878 Z M51.7995198,12.2338129 C50.4788715,12.2338129 49.1513806,12.1791367 47.837575,12.2543165 C46.9685474,12.3089928 46.4211285,11.9946043 45.8258103,11.3863309 C42.2128451,7.66151079 37.8745498,5.27625899 32.7082833,4.46978417 C32.6740696,4.46294964 32.6398559,4.46294964 32.5577431,4.45611511 L32.5577431,14.2568345 L24.3943577,14.2568345 L24.3943577,4.44244604 C22.7247299,4.68848921 21.1509004,5.09172662 19.6318127,5.67266187 C16.1967587,6.99172662 13.2543818,9.02841727 10.7704682,11.7280576 C10.4351741,12.0902878 10.1135654,12.2611511 9.60720288,12.247482 C8.23865546,12.2064748 6.87010804,12.2338129 5.50156062,12.2338129 L5.02941176,12.2338129 C10.4693878,5.00971223 17.4079232,0.656115108 26.5087635,0.123021583 C37.1629052,-0.498920863 45.4905162,3.74532374 51.8405762,12.131295 L51.7995198,12.2338129 Z" id="Shape"></path>
                    </g>
                </g>
            </g>
        </g>
    </g>
</svg>