<?xml version="1.0" encoding="UTF-8"?>
<svg width="57px" height="54px" viewBox="0 0 57 54" version="1.1" xmlns="http://www.w3.org/2000/svg" xmlns:xlink="http://www.w3.org/1999/xlink">
    <!-- Generator: Sketch 51.3 (57544) - http://www.bohemiancoding.com/sketch -->
    <title>收 藏</title>
    <desc>Created with Sketch.</desc>
    <defs></defs>
    <g id="Page-1" stroke="none" stroke-width="1" fill="none" fill-rule="evenodd">
        <g id="APP" transform="translate(-2302.000000, -588.000000)" fill="#FAD822" fill-rule="nonzero">
            <g id="wall" transform="translate(659.000000, 558.000000)">
                <g id="Group-9" transform="translate(1621.000000, 7.000000)">
                    <g id="Group-5">
                        <g id="广场/收藏" transform="translate(22.000000, 23.000000)">
                            <g id="收-藏">
                                <path d="M42.6158135,53.9613347 C41.820447,53.9613347 40.9264534,53.7350385 40.0977326,53.3239594 L28.2640389,47.4539513 L16.3570652,53.31443 C15.6030049,53.7125842 14.7398254,53.9217931 13.8596374,53.9217931 C12.715899,53.9262093 11.6012872,53.564287 10.6816501,52.8898783 C9.01520726,51.6499594 8.16130508,49.5025558 8.55548175,47.5467809 L10.9907293,35.0176856 L1.65667222,26.3898986 C0.214931289,24.9411938 -0.338261807,22.8398638 0.205375371,20.8770791 L0.224040503,20.8134402 C0.902611932,18.7964909 2.58600804,17.3832353 4.62713411,17.1120852 L17.5954801,14.7735456 L23.416185,3.04913793 C24.3512087,1.19281947 26.2529537,0 28.2640389,0 C30.3619335,0 32.3128263,1.23772819 33.1307788,3.08281947 L38.9328737,14.7700406 L51.9032078,17.0189817 C53.9614191,17.3147469 55.6531962,18.780525 56.2251246,20.7635477 C56.8655258,22.7125109 56.3425373,24.8530324 54.8736144,26.2950974 L54.8416959,26.3268073 L45.5339799,35.0193834 L47.8863388,47.5708783 C48.2651637,49.5780243 47.4602437,51.6056531 45.7844682,52.8691217 C44.8868843,53.5847446 43.7674387,53.9706096 42.6158135,53.9613347 Z M28.2685119,43.2240426 L40.8408037,49.4593996 C41.2100199,49.6439635 41.6355628,49.7600142 41.9267499,49.7600142 C42.3749339,49.7600142 42.7910891,49.6231521 43.0967444,49.3702394 L43.1536234,49.3236876 C43.8680341,48.7920669 44.2163762,47.9471805 44.0600419,47.1199838 L41.5300882,33.6033347 L51.5370288,24.2573915 C52.1514319,23.6396227 52.3614975,22.7549757 52.0889755,21.9415254 L52.06153,21.8559797 C51.8411451,21.0680484 51.1683446,20.486286 50.3512407,20.3771136 L50.2941408,20.3681866 L36.4475948,17.9675416 L30.2157601,5.41391075 C29.9132524,4.71262272 29.0921522,4.20367546 28.2631553,4.20367546 C27.4486266,4.20367546 26.669385,4.70950101 26.2746561,5.49047465 L20.0826918,17.9620101 L6.16325239,20.4696694 C5.31779922,20.5748215 4.6610406,21.1316897 4.35764937,22.0001258 C4.14222724,22.7936957 4.39751986,23.7498682 4.98563718,24.3460041 L15.0041744,33.6047039 L12.3750415,47.1284178 C12.2169401,47.9104868 12.5904084,48.8105233 13.2811839,49.3245639 C13.6275381,49.582789 14.0762192,49.7252373 14.546713,49.7252373 C14.9094682,49.7252373 15.2572029,49.6413895 15.5569495,49.4815254 L15.6001885,49.4563327 L28.2685671,43.2240426 L28.2685119,43.2240426 Z" id="Shape"></path>
                            </g>
                        </g>
                    </g>
                </g>
            </g>
        </g>
    </g>
</svg>