<?xml version="1.0" encoding="UTF-8"?>
<svg width="54px" height="54px" viewBox="0 0 54 54" version="1.1" xmlns="http://www.w3.org/2000/svg" xmlns:xlink="http://www.w3.org/1999/xlink">
    <!-- Generator: Sketch 51.3 (57544) - http://www.bohemiancoding.com/sketch -->
    <title>数据分析 (1)</title>
    <desc>Created with Sketch.</desc>
    <defs></defs>
    <g id="Page-1" stroke="none" stroke-width="1" fill="none" fill-rule="evenodd">
        <g id="APP" transform="translate(-2303.000000, -868.000000)" fill="#1652F0" fill-rule="nonzero">
            <g id="me" transform="translate(659.000000, 558.000000)">
                <g id="Group-16" transform="translate(1621.000000, 287.000000)">
                    <g id="数据分析-(1)" transform="translate(23.000000, 23.000000)">
                        <path d="M0.0396444667,1.69718649 L0.0396444667,47.7196584 C0.0396444667,51.1700853 2.80568898,53.967209 6.2177778,53.967209 L52.3125689,53.967209 C53.2111484,53.967209 53.9395911,53.2305816 53.9395911,52.3219056 C53.9395911,51.4132296 53.2111484,50.6766022 52.3125689,50.6766022 L6.2177778,50.6766022 C5.4422612,50.6766022 4.69850774,50.365068 4.15013469,49.8105335 C3.60176164,49.2559989 3.29368887,48.5038887 3.29368887,47.7196584 L3.29368887,1.69718649 C3.29368887,0.788510546 2.56524622,0.0518831461 1.66666667,0.0518831461 C0.768087118,0.0518831461 0.0396444667,0.788510546 0.0396444667,1.69718649 Z" id="Shape"></path>
                        <path d="M10.1021511,30.7523236 C10.1021511,29.9411776 10.8155378,29.2853573 11.69504,29.2853573 C12.5734045,29.2853573 13.2856533,29.9411776 13.2856533,30.7523236 L13.2856533,44.7005843 C13.2856533,45.5117304 12.5734045,46.1675506 11.6939022,46.1675506 C10.8155377,46.1675506 10.1021511,45.5117304 10.1021511,44.7005843 L10.1021511,30.7523236 Z M21.3502222,25.2020135 C21.3502222,24.3482966 22.0624711,23.656809 22.9419733,23.656809 C23.8203378,23.656809 24.5337245,24.3482966 24.5337245,25.2020135 L24.5337245,44.6234966 C24.5337245,45.4760629 23.8203378,46.1675506 22.9408355,46.1675506 C22.0624711,46.1675506 21.3502222,45.4772135 21.3502222,44.6234966 L21.3502222,25.2020135 Z M32.5971555,28.1831191 C32.5971555,27.2373573 33.3105422,26.4710831 34.1900445,26.4710831 C35.0684089,26.4710831 35.7806578,27.2373573 35.7806578,28.1831191 L35.7806578,44.4566651 C35.7806578,45.4012764 35.0684089,46.1675505 34.1889067,46.1675506 C33.3105422,46.1675506 32.5971555,45.4012764 32.5971555,44.4566651 L32.5971555,28.1831191 Z M43.8440889,19.6494022 C43.8440889,18.7542651 44.5574755,18.0294112 45.4369778,18.0294113 C46.3153423,18.0294113 47.0287289,18.7542652 47.0287289,19.6494022 L47.0287289,44.5475596 C47.0287289,45.4426967 46.3153422,46.1675506 45.43584,46.1675506 C44.5574755,46.1675506 43.8452267,45.4426967 43.8452267,44.5475596 L43.8452267,19.6494022 L43.8440889,19.6494022 Z M23.0750933,15.1748674 L33.4641422,20.5940135 C34.0568947,20.9031046 34.7761561,20.8150938 35.2788978,20.3719551 L46.5542755,10.4403056 C47.222369,9.84105112 47.2879427,8.80924452 46.7011998,8.12844021 C46.1144569,7.4476359 45.094726,7.3723231 44.4163911,7.95969438 L33.9738667,17.1572854 L23.5814045,11.7358382 C22.986513,11.4250393 22.2640748,11.5145324 21.76096,11.9613483 L10.5219911,21.9390202 C9.84648553,22.5385557 9.77949937,23.5783336 10.3723734,24.2614292 C10.9652474,24.9445248 11.9934722,25.0122636 12.6689778,24.4127281 L23.0750933,15.1737169 L23.0750933,15.1748674 Z" id="Shape"></path>
                    </g>
                </g>
            </g>
        </g>
    </g>
</svg>