<?xml version="1.0" encoding="UTF-8"?>
<svg width="53px" height="54px" viewBox="0 0 53 54" version="1.1" xmlns="http://www.w3.org/2000/svg" xmlns:xlink="http://www.w3.org/1999/xlink">
    <!-- Generator: Sketch 51.3 (57544) - http://www.bohemiancoding.com/sketch -->
    <title>点赞</title>
    <desc>Created with Sketch.</desc>
    <defs></defs>
    <g id="Page-1" stroke="none" stroke-width="1" fill="none" fill-rule="evenodd">
        <g id="APP" transform="translate(-2304.000000, -868.000000)" fill="#F05A48" fill-rule="nonzero">
            <g id="wall" transform="translate(659.000000, 558.000000)">
                <g id="Group-9" transform="translate(1621.000000, 7.000000)">
                    <g id="Group-7" transform="translate(0.000000, 280.000000)">
                        <g id="广场/点赞" transform="translate(24.000000, 23.000000)">
                            <g id="点赞">
                                <path d="M50.8348173,21.2041377 C49.491632,19.5073325 47.4810799,18.5341935 45.3190457,18.5341935 L33.0093311,18.5341935 C33.6815739,16.6563089 34.1262684,14.6152574 34.284577,12.6406452 C34.5306543,9.56965571 34.0593042,6.84219603 32.9222126,4.75294355 C31.5224653,2.18265819 29.1397092,0.579519231 26.0309439,0.116724566 C24.6226148,-0.0930148883 23.4114076,0.178278536 22.4306743,0.922593052 C20.4480781,2.42737593 20.0841959,5.29097084 19.6627113,8.60674318 C19.3258098,11.2572767 18.9439837,14.2616967 17.6609362,16.4151086 C16.8045743,17.8523449 15.1379453,19.762928 10.5684497,19.762928 L5.80001192,19.762928 C2.62460746,19.762928 0.0410887272,22.3502792 0.0410887272,25.5304373 L0.0410887272,47.3351334 C0.0410887272,50.5150962 2.62454245,53.1026427 5.80001192,53.1026427 L40.5392305,53.1026427 C42.1210165,53.1026427 43.6741964,52.5603815 44.9130345,51.576495 C46.1521977,50.5922829 47.0328097,49.2006421 47.3929862,47.6582103 L52.1728014,27.1881607 C52.664956,25.0810608 52.1770273,22.8999659 50.8348173,21.2041377 Z M3.879504,47.3351985 L3.879504,25.5306328 C3.879504,24.4708623 4.741067,23.608781 5.79981687,23.608781 L9.84575623,23.608781 L9.84575623,49.2570502 L5.79981687,49.2570502 C4.74113201,49.2570502 3.879504,48.394969 3.879504,47.3351985 Z M48.4351576,26.3122705 L43.6553423,46.7828412 C43.3153201,48.2392928 42.033898,49.2570502 40.5392305,49.2570502 L13.6843665,49.2570502 L13.6843665,23.3298666 C16.9270603,22.7097674 19.3665734,21.0553009 20.9568112,18.3863337 C22.6504209,15.5437779 23.0860134,12.1164919 23.4703751,9.09266129 C23.643962,7.72629342 23.8079918,6.43574442 24.0685021,5.44566998 C24.3478665,4.38381514 24.6370479,4.07259305 24.7483515,3.98811104 C24.8757786,3.89138337 25.1174349,3.86858561 25.4667541,3.92069479 C27.3921381,4.20729529 28.728822,5.08207816 29.5522219,6.59467742 C31.2419308,9.69790943 30.4952472,14.9355335 28.8848551,18.5055335 C28.4993232,19.36058 28.5708384,20.3402326 29.077296,21.1261042 C29.5831034,21.911129 30.4432361,22.379786 31.3784598,22.379786 L45.3189807,22.379786 C46.3023146,22.379786 47.2164087,22.8221929 47.8272134,23.5937345 C48.437108,24.3642339 48.6588051,25.35509 48.4351576,26.3122705 Z" id="Shape"></path>
                            </g>
                        </g>
                    </g>
                </g>
            </g>
        </g>
    </g>
</svg>