<?xml version="1.0" encoding="UTF-8"?>
<svg width="62px" height="54px" viewBox="0 0 62 54" version="1.1" xmlns="http://www.w3.org/2000/svg" xmlns:xlink="http://www.w3.org/1999/xlink">
    <!-- Generator: Sketch 51.3 (57544) - http://www.bohemiancoding.com/sketch -->
    <title>群</title>
    <desc>Created with Sketch.</desc>
    <defs></defs>
    <g id="Page-1" stroke="none" stroke-width="1" fill="none" fill-rule="evenodd">
        <g id="APP" transform="translate(-2299.000000, -868.000000)" fill="#1652F0" fill-rule="nonzero">
            <g id="connect" transform="translate(659.000000, 558.000000)">
                <g id="群" transform="translate(1640.000000, 310.000000)">
                    <path d="M24.7670127,0.00743337 C33.2867005,0.00743337 40.2165737,6.90421925 40.2165737,15.3811267 C40.2165737,21.2398891 36.904603,26.3393723 32.0475044,28.9335761 C42.1604444,32.0339661 49.5320283,41.4189304 49.5320283,52.4866215 C49.5320283,53.2989134 48.8720403,53.9538773 48.0573677,53.9538773 C47.2426951,53.9538773 46.5827072,53.2989134 46.5827072,52.4866215 C46.5827072,40.5177138 36.7946051,30.7821814 24.8752919,30.7753411 C24.7120137,30.7907319 24.5521729,30.7787612 24.4009256,30.7428495 C16.0513909,30.5478994 9.31745168,23.7349078 9.31745168,15.3811267 C9.31745168,6.90250918 16.2490435,0.00743337 24.7670127,0.00743337 Z M24.7670127,27.8151783 C31.6590741,27.8151783 37.2672527,22.2368705 37.2672527,15.3811267 C37.2672527,8.52025268 31.6607928,2.94365491 24.7670127,2.94365491 C17.8749514,2.94365491 12.2684914,8.52196275 12.2684914,15.3811267 C12.2684914,22.2385806 17.8749514,27.8151783 24.7670127,27.8151783 Z M7.23092744,35.0898937 C7.80669811,34.5153041 8.7399623,34.5153041 9.31745168,35.0864735 C9.89322236,35.6593531 9.89494117,36.587931 9.3208891,37.1625208 C5.21315187,41.2598922 2.95303695,46.7048131 2.95303695,52.4866215 C2.95303695,53.2989134 2.29304894,53.9538773 1.47837637,53.9538773 C0.663703805,53.9538773 0.0037158523,53.2989134 0.0037158523,52.4866215 C0.00199719722,45.9215928 2.56804399,39.7396237 7.23092744,35.0898937 Z M40.3729771,28.1913978 L40.3729771,28.1862675 L40.3729771,28.1828473 C40.3729771,27.3705555 41.032965,26.7138815 41.8476376,26.7138815 C47.1997272,26.7138815 51.5532412,22.0846727 51.5532412,16.3969191 C51.5532412,10.7091656 47.1997272,6.07995671 41.8476376,6.07995671 C41.032965,6.07995671 40.3729771,5.42157273 40.3729771,4.61270101 C40.3729771,3.80211921 41.032965,3.1454453 41.8476376,3.1454453 C48.8256349,3.1454453 54.5025623,9.09142213 54.5025623,16.3986292 C54.5025623,21.2638303 51.9846396,25.5236601 48.2412706,27.827149 C56.2023749,30.638534 61.9549259,38.5425619 61.9549259,47.8351814 C61.9549259,48.6457633 61.2949379,49.3024372 60.4802654,49.3024372 C59.6655928,49.3024372 59.0056049,48.6457633 59.0056049,47.8351814 C59.0056049,37.8140643 51.3091832,29.6637838 41.8459188,29.6637838 C41.032965,29.6603636 40.3746958,29.0036897 40.3729771,28.1913978 Z" id="Shape"></path>
                </g>
            </g>
        </g>
    </g>
</svg>