<?xml version="1.0" encoding="UTF-8"?>
<svg width="61px" height="80px" viewBox="0 0 61 80" version="1.1" xmlns="http://www.w3.org/2000/svg" xmlns:xlink="http://www.w3.org/1999/xlink">
    <!-- Generator: Sketch 51.3 (57544) - http://www.bohemiancoding.com/sketch -->
    <title>能量 (1)</title>
    <desc>Created with Sketch.</desc>
    <defs></defs>
    <g id="Page-1" stroke="none" stroke-width="1" fill="none" fill-rule="evenodd">
        <g id="一切皆有可能" transform="translate(-340.000000, -585.000000)" fill="#1652F0" fill-rule="nonzero">
            <g id="Group-10" transform="translate(340.000000, 585.000000)">
                <g id="Group-5">
                    <g id="Group-2">
                        <g id="能量-(1)">
                            <path d="M57.2793694,27.0600609 L42.2842099,26.912061 L52.6472728,4.33608703 C52.8370925,3.90216088 52.9340725,3.43351356 52.9320164,2.96008859 C52.8844414,2.1504382 52.5337742,1.3881237 51.9494504,0.824091016 C51.3536926,0.287985774 50.5781495,-0.00600768327 49.7757739,9.203125e-05 L20.9244293,0.080091875 C19.7385952,0.124358886 18.6866542,0.851924097 18.2293913,1.94408977 L18.1852762,2.08008961 L18.1852762,2.11208961 L0.318617818,43.7120417 C0.107259768,44.1354594 0.0170601515,44.6088083 0.0579370708,45.0800402 C0.0880861137,45.8876605 0.440683717,46.6497471 1.03724648,47.1966702 C1.63380924,47.7435932 2.42482766,48.0299627 3.23423186,47.9920368 L21.4698537,47.9920368 L14.7563215,77.0040034 L14.8325205,77.0040034 L14.8325205,77.0600034 C14.8821243,78.6907624 16.2166547,79.9899884 17.8524069,80 L18.0208467,80 C18.8810504,79.9635737 19.6829947,79.5563513 20.2185861,78.8840012 L59.4931506,32.2640549 C59.5835554,32.1771431 59.6522394,32.070276 59.6936743,31.9520552 C60.1111205,31.3873851 60.3309422,30.7015343 60.3193081,30.0000575 C60.2591772,28.3661022 58.9186796,27.0696752 57.2793694,27.0600609 Z M28.403962,44.8640404 L28.3317735,44.8640404 L28.3317735,44.8080405 C28.3089452,43.9962135 27.9601004,43.2275617 27.3635941,42.674734 C26.7670877,42.1219063 25.9729265,41.8312477 25.1594891,41.8680438 L7.75002476,41.8680438 L23.0780535,6.18408492 L45.183782,6.18408492 L34.8207191,28.712059 C34.6315834,29.1407183 34.5332775,29.6037277 34.5319651,30.0720574 C34.5746049,31.6849136 35.8823408,32.9786573 37.4997153,33.0080541 C37.5998766,33.0321599 37.70435,33.0321599 37.8045113,33.0080541 L50.8064656,33.1520539 L23.6956664,65.2960169 L28.403962,44.8640404 Z" id="Shape"></path>
                        </g>
                    </g>
                </g>
            </g>
        </g>
    </g>
</svg>