<?xml version="1.0" standalone="no"?><!DOCTYPE svg PUBLIC "-//W3C//DTD SVG 1.1//EN" "http://www.w3.org/Graphics/SVG/1.1/DTD/svg11.dtd"><svg t="1575735648495" class="icon" viewBox="0 0 1024 1024" version="1.1" xmlns="http://www.w3.org/2000/svg" p-id="1764" xmlns:xlink="http://www.w3.org/1999/xlink" width="200" height="200"><defs><style type="text/css"></style></defs><path d="M39.019488 708.352263h946.004544c-11.434657 27.519977-25.173312 53.845288-41.087965 78.677268H80.107453c-15.871987-24.831979-29.653309-51.157291-41.087965-78.677268z m102.82658 157.354536h740.351384a514.474238 514.474238 0 0 1-95.871921 78.719934H237.675322a514.474238 514.474238 0 0 1-95.87192-78.719934z m-140.373216-314.879738h1021.097816c-2.005332 26.879978-6.101328 53.119956-12.074657 78.677268H13.547509a511.188907 511.188907 0 0 1-12.074657-78.677268zM239.424654 78.507455H784.661533a514.431571 514.431571 0 0 1 96.554586 78.677267H142.870068A514.431571 514.431571 0 0 1 239.424654 78.507455zM80.790119 235.947323h862.463282c15.999987 24.874646 29.866642 51.242624 41.386632 78.847935H39.403487c11.51999-27.60531 25.386646-53.973288 41.386632-78.847935zM13.846175 393.259192h996.35117c6.058662 25.557312 10.239991 51.839957 12.28799 78.677268H1.558185c2.090665-26.879978 6.229328-53.119956 12.28799-78.677268z" fill="#FFFFFF" p-id="1765"></path><path d="M13.590175 629.674995h996.86317c-6.399995 27.093311-14.933321 53.418622-25.429313 78.677268H39.019488a508.074243 508.074243 0 0 1-25.429313-78.677268z m224.127814 314.751738H786.368198a509.098242 509.098242 0 0 1-243.626464 78.677268h-61.354615a509.098242 509.098242 0 0 1-243.626464-78.677268z m-157.738536-157.567869h864.084614c-18.005318 28.24531-38.698634 54.613288-61.695949 78.677268H141.675402a514.218238 514.218238 0 0 1-61.695949-78.677268zM39.403487 314.752591h945.236546c10.581325 25.258646 19.157317 51.54129 25.599978 78.677268H13.803509c6.442661-27.135977 15.018654-53.418622 25.599978-78.677268z m103.466581-157.567869h738.303384c23.167981 24.106647 43.94663 50.474625 62.079949 78.719935H80.790119c18.090652-28.24531 38.911968-54.613288 62.079949-78.719935zM1.558185 472.107127h1020.92715a519.124901 519.124901 0 0 1 0.085333 78.719934H1.472852a519.252901 519.252901 0 0 1 0.085333-78.719934zM784.618866 78.507455H239.381987A509.610242 509.610242 0 0 1 512.02176 0.000853c100.18125 0 193.663839 28.757309 272.597106 78.506602z" fill="#BF0A30" p-id="1766"></path><path d="M1.515519 551.680394A519.124901 519.124901 0 0 1 0.022187 512.000427C0.022187 229.248662 229.269996 0.000853 512.02176 0.000853c17.279986 0 34.346638 0.853333 51.199957 2.559998v549.119543H1.515519z" fill="#002868" p-id="1767"></path><path d="M0.064853 518.699088a522.452898 522.452898 0 0 1 0-9.642659v-0.128c0-2.773331 0-5.546662 0.085334-8.277326H2.582185l4.394663-12.79999 4.053329 12.79999h13.653322l-11.13599 8.277326 4.223996 12.79999-10.794657-8.10666-6.954661 5.119995z m11.093324-113.493239c1.151999-5.418662 2.389331-10.794658 3.711997-16.170653H24.768833l-11.135991 7.935993 4.223996 13.183989-6.613327-4.991996z m287.701094-358.826368c5.119996-2.389331 10.325325-4.693329 15.530654-6.826661l0.938666 2.815998h13.525322l-10.837325 8.10666 4.05333 13.013322-10.965324-8.277326-10.794658 8.277326 4.05333-13.013322-5.546662-4.138663zM412.60851 29.355496l4.053329 12.970655h13.653322l-10.794657 8.10666 4.05333 13.013323-10.794658-8.277327-11.178657 8.277327 4.266663-13.013323-10.837325-8.10666h13.525323L412.60851 29.440829z m0 114.474571l4.053329 13.013322h13.653322l-10.794657 8.10666 4.05333 12.970656-10.794658-8.10666-11.178657 8.10666 4.266663-12.970656-10.837325-8.10666h13.525323l4.05333-13.013322z m0 114.815904l4.053329 13.013323h13.653322l-10.794657 8.10666 4.05333 12.970655-10.794658-8.10666-11.178657 8.10666 4.266663-12.970655-10.837325-8.10666h13.525323l4.05333-13.013323z m0 117.205236l4.053329 12.970656h13.653322l-10.794657 7.935993 4.05333 13.183989-10.794658-8.10666-11.178657 8.10666 4.266663-13.183989-10.837325-7.935993h13.525323l4.05333-12.970656z m0 111.914573l4.053329 12.842656h13.653322l-10.794657 8.277327 4.05333 12.799989-10.794658-8.10666-11.178657 8.10666 4.266663-12.799989-10.837325-8.277327h13.525323l4.05333-12.799989zM311.061927 143.872733l4.223997 13.013323h13.525322l-10.837324 8.10666 4.05333 12.970656-10.965325-8.10666-10.794657 8.10666 4.05333-12.970656-10.837325-8.10666H307.221931l3.882663-13.013323z m0 114.815905l4.223997 13.013322h13.525322l-10.837324 8.10666 4.05333 12.970656-10.965325-8.10666-10.794657 8.10666 4.05333-12.970656-10.837325-8.10666H307.221931l3.882663-13.013322z m0 117.205235l4.223997 12.970656h13.525322l-10.837324 7.935994 4.05333 13.183989-10.965325-8.10666-10.794657 8.10666 4.05333-13.183989-10.837325-7.935994H307.221931l3.882663-12.970656z m0 111.914574l4.223997 12.842656h13.525322l-10.837324 8.277326 4.05333 12.79999-10.965325-8.10666-10.794657 8.10666 4.05333-12.79999-10.837325-8.277326H307.221931l3.882663-12.79999zM209.814012 143.872733l4.05333 13.013323h13.482655l-10.794657 8.10666 4.223996 12.970656-10.965324-8.10666-11.178658 8.10666 4.266664-12.970656-11.178658-8.10666h13.653322l4.43733-13.013323z m0 114.815905l4.05333 13.013322h13.482655l-10.794657 8.10666 4.223996 12.970656-10.965324-8.10666-11.178658 8.10666 4.266664-12.970656-11.178658-8.10666h13.653322l4.43733-13.013322z m0 117.205235l4.05333 12.970656h13.482655l-10.794657 7.935994 4.223996 13.183989-10.965324-8.10666-11.178658 8.10666 4.266664-13.183989-11.178658-7.935994h13.653322l4.43733-12.970656z m0 111.914574l4.05333 12.842656h13.482655l-10.794657 8.277326 4.223996 12.79999-10.965324-8.10666-11.178658 8.10666 4.266664-12.79999-11.178658-8.277326h13.653322l4.43733-12.79999z m-101.503916-229.119809l4.223997 13.013322h13.653322l-11.093324 8.10666 4.18133 12.970656-11.093324-8.10666-10.837325 8.10666 4.223997-12.970656-11.135991-8.10666h13.653322l4.266663-13.013322z m0 117.205235l4.223997 12.970656h13.653322l-11.093324 7.935994 4.18133 13.183989-11.093324-8.10666-10.837325 8.10666 4.223997-13.183989-11.135991-7.935994h13.653322l4.266663-12.970656z m0 111.914574l4.223997 12.842656h13.653322l-11.093324 8.277326 4.18133 12.79999-11.093324-8.10666-10.837325 8.10666 4.223997-12.79999-11.135991-8.277326h13.653322l4.266663-12.79999z m355.967704-401.194333l4.05333 13.013323h13.653322l-10.794658 8.10666 4.05333 13.013322-10.965324-8.10666-11.178658 8.10666 4.266664-13.013322-10.837325-8.10666h13.525322l4.223997-13.013323z m0 118.357235l4.05333 13.013323h13.653322l-10.794658 8.10666 4.05333 13.013322-10.965324-8.10666-11.178658 8.10666 4.266664-13.013322-10.837325-8.10666h13.525322l4.223997-13.013323z m-1.023999 115.839904l4.05333 13.013322h13.653322l-10.794658 8.10666 4.05333 13.013323-10.794658-8.10666-10.965324 8.10666 4.05333-13.013323-10.837324-8.10666h13.525322l4.05333-13.013322z m-1.024 114.687904l4.223997 12.970656h13.525322l-11.007991 8.10666 4.05333 13.013322-10.794658-8.10666-10.965324 8.10666 4.05333-13.013322-10.794657-8.10666h13.482655l4.266663-12.970656zM362.816551 86.614114l4.010663 13.013323h13.653322l-10.794657 8.10666 4.05333 13.013322-10.965325-8.10666-11.13599 8.10666 4.223996-13.013322-10.965324-8.10666h13.482655l4.394663-13.013323z m0 118.357235l4.010663 13.013323h13.653322l-10.794657 8.10666 4.05333 13.013322-10.965325-8.10666-11.13599 8.10666 4.223996-13.013322-10.965324-8.10666h13.482655l4.394663-13.013323zM361.707219 320.853919l4.266663 13.013323h13.482655l-10.794658 8.10666 4.223997 13.013322-11.178657-8.10666-10.794658 8.10666 4.05333-13.013322-10.794658-8.10666h13.482656l4.05333-13.013323z m-0.981333 114.687905l4.223997 12.970656h13.482655l-10.965324 8.106659 4.223996 13.013323-11.13599-8.10666-11.007991 8.10666 4.05333-13.013323-10.794658-8.106659h13.525322l4.394663-12.970656zM261.483302 82.560785l4.18133 13.013322h13.525322l-10.965324 8.10666 4.223996 13.013322-11.13599-8.106659-10.837325 8.106659 4.05333-13.013322-10.965324-8.10666h13.525322l4.394663-13.013322z m0 118.357234l4.18133 13.013323h13.525322l-10.965324 8.10666 4.223996 13.013322-11.13599-8.10666-10.837325 8.10666 4.05333-13.013322-10.965324-8.10666h13.525322l4.394663-13.013323z m-1.023999 115.839904l4.223996 13.013322h13.482656l-10.794658 8.10666 4.223997 13.013323-11.135991-8.10666-11.135991 8.10666 4.223997-13.013323-11.007991-8.10666h13.525322l4.394663-13.013322z m-1.023999 114.687904l4.223996 12.970656h13.525322l-10.837324 7.935993 4.266663 13.183989-11.178657-8.10666-10.965324 8.10666 4.05333-13.183989-10.794658-7.935993h13.482655l4.266663-12.970656zM160.022053 199.595354l4.18133 13.013322h13.653322l-11.093324 8.10666 4.18133 12.970656-11.093324-8.10666-11.007991 8.10666 4.223996-12.970656-11.13599-8.10666h13.653322l4.394663-13.013322zM158.912721 315.733924l4.266663 12.799989h13.653322l-11.135991 8.10666 4.223997 13.013322-11.178658-8.10666-10.794657 8.10666 4.05333-13.013322-10.965325-8.10666h13.653322l4.266664-12.799989z m-0.981333 114.474571l4.223997 13.013322h13.653322l-11.135991 8.10666 4.223997 12.970656-11.135991-8.10666-10.837324 8.10666 4.266663-12.970656-11.178658-8.10666h13.653322l4.266663-13.013322z m-100.479916-116.479903l4.223997 12.970656h13.653322l-11.093325 8.10666 4.18133 13.013322-11.13599-8.277326-10.794658 8.277326 4.05333-13.013322-11.007991-8.10666h13.653322l4.266663-13.013323z m-0.853332 114.431905l4.053329 13.013322h13.653322l-11.093324 8.10666 4.18133 13.013322-10.965324-8.106659-11.135991 8.106659 4.223997-13.013322-11.135991-8.10666h13.653322l4.56533-13.013322zM514.069758 29.440829l4.05333 12.970656h13.653322l-10.965324 8.10666 4.05333 13.013322-10.794658-8.277326-11.13599 8.277326 4.223996-13.013322-10.794658-8.10666h13.482656l4.223996-12.970656z m0 114.474571l4.05333 13.013323h13.653322l-10.965324 8.106659 4.05333 12.970656-10.794658-8.10666-11.13599 8.10666 4.223996-12.970656-10.794658-8.106659h13.482656l4.223996-13.013323z m0 114.815904l4.05333 13.013323h13.653322l-10.965324 8.10666 4.05333 12.970656-10.794658-8.10666-11.13599 8.10666 4.223996-12.970656-10.794658-8.10666h13.482656l4.223996-13.013323z m0 117.205236l4.05333 12.970656h13.653322l-10.965324 7.935993 4.05333 13.183989-10.794658-8.10666-11.13599 8.10666 4.223996-13.183989-10.794658-7.935993h13.482656l4.223996-12.970656z m0 111.914573l4.05333 12.842656h13.653322l-10.965324 8.277327 4.05333 12.799989-10.794658-8.10666-11.13599 8.10666 4.223996-12.799989-10.794658-8.277327h13.482656l4.223996-12.799989z" fill="#FFFFFF" p-id="1768"></path></svg>