<?xml version="1.0" encoding="UTF-8"?>
<svg width="63px" height="54px" viewBox="0 0 63 54" version="1.1" xmlns="http://www.w3.org/2000/svg" xmlns:xlink="http://www.w3.org/1999/xlink">
    <!-- Generator: Sketch 51.3 (57544) - http://www.bohemiancoding.com/sketch -->
    <title>评论</title>
    <desc>Created with Sketch.</desc>
    <defs></defs>
    <g id="Page-1" stroke="none" stroke-width="1" fill="none" fill-rule="evenodd">
        <g id="APP" transform="translate(-2298.000000, -728.000000)" fill="#53C2EE" fill-rule="nonzero">
            <g id="wall" transform="translate(659.000000, 558.000000)">
                <g id="Group-9" transform="translate(1621.000000, 7.000000)">
                    <g id="Group-6" transform="translate(0.000000, 140.000000)">
                        <g id="广场/评论" transform="translate(18.000000, 23.000000)">
                            <g id="评论" transform="translate(0.300469, 0.000000)">
                                <path d="M15.6001079,18.4337465 C13.4478221,18.4337465 11.6979962,20.2585399 11.6979962,22.5064738 C11.6979962,24.7544077 13.4478221,26.579201 15.6001079,26.5792011 C17.7523938,26.5792012 19.5022196,24.7544078 19.5022196,22.5064738 C19.5022196,20.2497245 17.7523937,18.4337465 15.6001079,18.4337465 Z M31.1998057,18.4337465 C29.0475198,18.4337465 27.297694,20.2585399 27.297694,22.5064738 C27.297694,24.7544077 29.0387707,26.579201 31.1998057,26.5792011 C33.3520915,26.5792011 35.0931683,24.7544078 35.0931683,22.5064738 C35.0931683,20.2497245 33.3433424,18.4337465 31.1998057,18.4337465 Z M46.7907543,18.4337465 C44.6384685,18.4337465 42.8886426,20.2585399 42.8886426,22.5064738 C42.8886426,24.7544077 44.6384685,26.579201 46.7907543,26.5792011 C48.9430401,26.5792012 50.692866,24.7544078 50.6928661,22.5064738 C50.684117,20.2497245 48.9430402,18.4337465 46.7907543,18.4337465 Z M54.5862287,0.00950413636 L7.80463361,0.00950413636 C3.50006194,0.00950413636 0.00915927632,3.65909093 0.00915927632,8.16377414 L0.00915927632,34.8216254 C0.00915927632,39.3174931 3.57880408,43.4695593 7.97961616,43.4695592 L19.8609339,43.4695592 C21.9257285,45.6910468 30.4998753,53.6954545 30.4998753,53.6954545 C30.8760879,54.0921488 31.4972761,54.0921488 31.8734887,53.6954545 C31.8734887,53.6954545 38.1553636,47.4629476 42.241207,43.4695592 L54.402497,43.4695592 C58.803309,43.4695592 62.3729539,39.3174931 62.3729539,34.8216254 L62.3729539,8.1549587 C62.381703,3.65909093 58.8908004,0.00950413636 54.5862287,0.00950413636 Z M58.4795913,34.8216254 C58.4795913,37.0695593 56.6072776,39.4320937 54.402497,39.4320937 L42.4511862,39.4320937 C40.9988307,39.4320937 39.6952104,40.9307163 39.6952104,40.9307163 L31.2960461,48.7676309 L22.8968819,40.9307163 C22.8968819,40.9307163 21.2957912,39.4320937 19.930927,39.4320937 L7.97961616,39.4320937 C5.77483555,39.4320937 3.90252184,37.0695593 3.90252184,34.8216254 L3.90252184,8.1549587 C3.90252184,5.90702482 5.6435986,4.08223145 7.80463361,4.08223139 L54.5862287,4.08223139 C56.7385145,4.08223139 58.4795913,5.90702475 58.4795913,8.1549587 L58.4795913,34.8216254 Z" id="Shape"></path>
                            </g>
                        </g>
                    </g>
                </g>
            </g>
        </g>
    </g>
</svg>