<?xml version="1.0" encoding="UTF-8"?>
<svg width="54px" height="54px" viewBox="0 0 54 54" version="1.1" xmlns="http://www.w3.org/2000/svg" xmlns:xlink="http://www.w3.org/1999/xlink">
    <!-- Generator: Sketch 51.3 (57544) - http://www.bohemiancoding.com/sketch -->
    <title>邀请</title>
    <desc>Created with Sketch.</desc>
    <defs></defs>
    <g id="Page-1" stroke="none" stroke-width="1" fill="none" fill-rule="evenodd">
        <g id="APP" transform="translate(-2303.000000, -728.000000)" fill="#1652F0" fill-rule="nonzero">
            <g id="me" transform="translate(659.000000, 558.000000)">
                <g id="Group-15" transform="translate(1621.000000, 147.000000)">
                    <g id="邀请" transform="translate(23.000000, 23.000000)">
                        <path d="M27,2.7 C33.32745,2.7 38.475,7.84755 38.475,14.175 C38.475,20.50245 33.32745,25.65 27,25.65 C20.67255,25.65 15.525,20.50245 15.525,14.175 C15.525,7.84755 20.67255,2.7 27,2.7 Z M27,0 C19.17135,0 12.825,6.34635 12.825,14.175 C12.825,22.00365 19.17135,28.35 27,28.35 C34.82865,28.35 41.175,22.00365 41.175,14.175 C41.175,6.34635 34.82865,0 27,0 Z" id="Shape"></path>
                        <path d="M0,52.65 C9.13077564e-17,53.3955844 0.604415588,54 1.35,54 C2.09558441,54 2.7,53.3955844 2.7,52.65 C2.7,51.9044156 2.09558441,51.3 1.35,51.3 C0.604415588,51.3 9.13077564e-17,51.9044156 0,52.65 Z" id="Shape"></path>
                        <path d="M36.8496,29.57985 C36.8496,30.3254344 37.4540156,30.92985 38.1996,30.92985 C38.9451844,30.92985 39.5496,30.3254344 39.5496,29.57985 C39.5496,28.8342656 38.9451844,28.22985 38.1996,28.22985 C37.4540156,28.22985 36.8496,28.8342656 36.8496,29.57985 Z" id="Shape"></path>
                        <path d="M27,25.6824 L27,25.65 C12.0879,25.65 0,37.7379 0,52.65 L2.7,52.65 C2.7,39.25125 13.60125,28.35 27,28.35 L27,28.3608 C30.6748678,28.3563729 34.302558,29.1882764 37.6083,30.7935 L38.78955,28.36485 C35.1156851,26.5833315 31.082991,25.6657816 27,25.6824 Z M52.65,45.9 L36.45,45.9 C35.7075,45.9 35.1,45.2925 35.1,44.55 C35.1,43.8075 35.7075,43.2 36.45,43.2 L52.65,43.2 C53.3925,43.2 54,43.8075 54,44.55 C54,45.2925 53.3925,45.9 52.65,45.9 Z" id="Shape"></path>
                        <path d="M43.2,52.65 L43.2,36.45 C43.2,35.7075 43.8075,35.1 44.55,35.1 C45.2925,35.1 45.9,35.7075 45.9,36.45 L45.9,52.65 C45.9,53.3925 45.2925,54 44.55,54 C43.8075,54 43.2,53.3925 43.2,52.65 Z" id="Shape"></path>
                    </g>
                </g>
            </g>
        </g>
    </g>
</svg>