<?xml version="1.0" encoding="UTF-8"?>
<svg width="80px" height="80px" viewBox="0 0 80 80" version="1.1" xmlns="http://www.w3.org/2000/svg" xmlns:xlink="http://www.w3.org/1999/xlink">
    <!-- Generator: Sketch 51.3 (57544) - http://www.bohemiancoding.com/sketch -->
    <title>金币</title>
    <desc>Created with Sketch.</desc>
    <defs></defs>
    <g id="Page-1" stroke="none" stroke-width="1" fill="none" fill-rule="evenodd">
        <g id="一切皆有可能" transform="translate(-2040.000000, -585.000000)" fill="#1652F0" fill-rule="nonzero">
            <g id="Group-10" transform="translate(340.000000, 585.000000)">
                <g id="Group-7" transform="translate(1700.000000, 0.000000)">
                    <g id="Group-4">
                        <g id="金币">
                            <path d="M80,10.6069642 C80,7.43895805 77.2012148,4.62791036 72.092321,2.70925876 C67.6053796,1.01370619 61.6524078,0.0766902892 55.3884599,0.0766902892 C49.1245119,0.0766902892 43.1715401,1.01370619 38.6845987,2.70925876 C33.5312798,4.62791036 30.7324946,7.43895805 30.7324946,10.6069642 L30.7324946,25.733078 C28.7777874,25.5545987 26.7342299,25.4207393 24.6462473,25.4207393 C18.3822993,25.4207393 12.4293275,26.3577552 7.94238612,28.0533078 C2.83349241,30.0165792 0.0347071584,32.8276269 0.0347071584,35.995633 L0.0347071584,68.5234706 C0.0347071584,71.6914767 2.83349241,74.5025244 7.94238612,76.421176 C12.4293275,78.1167286 18.3822993,79.0537445 24.6462473,79.0537445 C30.9101952,79.0537445 36.863167,78.1167286 41.3501085,76.421176 C45.7926247,74.7256234 48.5025597,72.4053936 49.1245119,69.7282053 C51.1680694,69.9513043 53.2560521,70.040544 55.3440347,70.040544 C61.6079826,70.040544 67.5609544,69.1035281 72.0478959,67.4079755 C77.1567896,65.4893239 79.9555748,62.6782762 79.9555748,59.5102701 L79.9555748,59.2425512 L80,10.6069642 Z M76.0461605,47.418303 C76.0461605,50.1401111 67.9607809,54.0220341 55.3440347,54.0220341 C53.2560521,54.0220341 51.2124946,53.9327945 49.2577874,53.7096955 L49.2577874,45.588891 C51.2569197,45.81199 53.2560521,45.9012296 55.3440347,45.9012296 C61.6079826,45.9012296 67.5609544,44.9642138 72.0478959,43.2686612 C73.6027766,42.6886037 74.9355315,42.0193066 76.0461605,41.3053898 L76.0461605,47.418303 Z M45.3483731,47.3290634 C45.3483731,50.0508715 37.2629935,53.9327945 24.6462473,53.9327945 C12.0295011,53.9327945 3.94412148,50.0062517 3.94412148,47.3290634 L3.94412148,41.930067 C5.05475054,42.6439839 6.38750542,43.313281 7.94238612,43.8933384 C12.4293275,45.588891 18.3822993,46.5259069 24.6462473,46.5259069 C30.9101952,46.5259069 36.863167,45.588891 41.3501085,43.8933384 C42.9049892,43.313281 44.237744,42.6439839 45.3483731,41.930067 L45.3483731,47.3290634 Z M3.94412148,53.2634974 C5.05475054,53.9774143 6.38750542,54.6467114 7.94238612,55.2267688 C12.4293275,56.9223214 18.3822993,57.8593373 24.6462473,57.8593373 C30.9101952,57.8593373 36.863167,56.9223214 41.3501085,55.2267688 C42.9049892,54.6467114 44.237744,53.9774143 45.3483731,53.2634974 L45.3483731,57.9485769 C45.3483731,60.670385 37.2629935,64.552308 24.6462473,64.552308 C12.0295011,64.552308 3.94412148,60.6257652 3.94412148,57.9485769 L3.94412148,53.2634974 Z M76.0461605,35.3709558 C76.0461605,38.0927638 67.9607809,41.9746868 55.3440347,41.9746868 C53.2560521,41.9746868 51.2124946,41.8854472 49.2577874,41.6623482 L49.2577874,35.995633 C49.2577874,35.1478567 49.0356616,34.3000804 48.6358351,33.496924 C50.8126681,33.720023 53.0339262,33.8538824 55.3440347,33.8538824 C61.6079826,33.8538824 67.5609544,32.9168665 72.0478959,31.2213139 C73.6027766,30.6412565 74.9355315,29.9719594 76.0461605,29.2580425 L76.0461605,35.3709558 Z M76.0461605,23.2789887 C76.0461605,26.0007968 67.9607809,29.8827198 55.3440347,29.8827198 C42.7272885,29.8827198 34.6419089,25.956177 34.6419089,23.2789887 L34.6419089,16.5413982 C35.752538,17.2553151 37.0852928,17.9246121 38.6401735,18.5046696 C43.127115,20.2002222 49.0800868,21.1372381 55.3440347,21.1372381 C61.6079826,21.1372381 67.5609544,20.2002222 72.0478959,18.5046696 C73.6027766,17.9246121 74.9355315,17.2553151 76.0461605,16.5413982 L76.0461605,23.2789887 Z M55.3440347,3.95861329 C67.9607809,3.95861329 76.0461605,7.8851561 76.0461605,10.5623444 C76.0461605,13.2395327 68.0052061,17.2106953 55.3440347,17.2106953 C42.7272885,17.2106953 34.6419089,13.2841525 34.6419089,10.6069642 C34.6419089,7.9297759 42.7272885,3.95861329 55.3440347,3.95861329 Z M24.6462473,29.3472821 C27.4450325,29.3472821 29.9772668,29.5257613 32.2873753,29.8827198 C32.3762256,29.8827198 32.4206508,29.9273396 32.5095011,29.9273396 C40.5060304,31.0874545 45.3483731,33.8985022 45.3483731,35.995633 C45.3483731,38.7174411 37.2629935,42.5993641 24.6462473,42.5993641 C12.0295011,42.5993641 3.94412148,38.6728213 3.94412148,35.995633 C3.94412148,33.3184447 11.9850759,29.3472821 24.6462473,29.3472821 Z M24.6462473,75.1718215 C12.0295011,75.1718215 3.94412148,71.2452787 3.94412148,68.5680904 L3.94412148,63.8830109 C5.05475054,64.5969278 6.38750542,65.2662249 7.94238612,65.8462823 C12.4293275,67.5418349 18.3822993,68.4788508 24.6462473,68.4788508 C30.9101952,68.4788508 36.863167,67.5418349 41.3501085,65.8462823 C42.9049892,65.2662249 44.237744,64.5969278 45.3483731,63.8830109 L45.3483731,68.5680904 C45.3483731,71.2452787 37.2629935,75.1718215 24.6462473,75.1718215 Z M55.3440347,66.1140011 C53.2560521,66.1140011 51.2124946,66.0247615 49.2577874,65.8016625 L49.2577874,57.6808581 C51.2569197,57.9039571 53.2560521,57.9931967 55.3440347,57.9931967 C61.6079826,57.9931967 67.5609544,57.0561808 72.0478959,55.3606282 C73.6027766,54.7805708 74.9355315,54.1112737 76.0461605,53.3973568 L76.0461605,59.5548899 C76.0461605,62.1874583 68.0052061,66.1140011 55.3440347,66.1140011 Z" id="Shape"></path>
                        </g>
                    </g>
                </g>
            </g>
        </g>
    </g>
</svg>