<?xml version="1.0" encoding="UTF-8"?>
<svg width="103px" height="102px" viewBox="0 0 103 102" version="1.1" xmlns="http://www.w3.org/2000/svg" xmlns:xlink="http://www.w3.org/1999/xlink">
    <!-- Generator: Sketch 51.3 (57544) - http://www.bohemiancoding.com/sketch -->
    <title>发现</title>
    <desc>Created with Sketch.</desc>
    <defs></defs>
    <g id="Page-1" stroke="none" stroke-width="1" fill="none" fill-rule="evenodd">
        <g id="APP" transform="translate(-1092.000000, -1231.000000)" fill="#1652F0" fill-rule="nonzero">
            <g id="bot_nav" transform="translate(779.000000, 1231.000000)">
                <g id="Group-12" transform="translate(313.000000, 0.000000)">
                    <g id="发现">
                        <path d="M51.4497561,9.27350003 C38.8065784,9.27020442 26.8314628,14.900235 18.8344704,24.6073858 C10.837478,34.3145367 7.66561696,47.0706667 10.1956266,59.3498334 C10.709463,61.859001 9.07398935,64.3059887 6.54269395,64.8153333 C4.01139855,65.3246779 1.5428315,63.703501 1.02899512,61.1943333 C0.34299834,57.8396667 0,54.4226667 0,51 C0,22.8366666 23.0380574,0 51.4497561,0 C61.1308852,0 70.2060505,2.65766668 77.9406638,7.27316668 C81.5850216,5.09150003 84.9635555,3.41133332 87.9047666,2.43383336 C89.6997914,1.836 91.5919991,1.41383336 93.4098905,1.43649997 C95.256365,1.45916668 97.4601296,1.96066661 99.1894131,3.67483329 C100.921555,5.39183326 101.427477,7.57633329 101.447486,9.40666671 C101.473211,11.2115 101.047321,13.0843334 100.444215,14.8693333 C99.4609535,17.7791666 97.7631115,21.1281666 95.5622053,24.7406667 C100.375575,32.6677649 102.912681,41.7477595 102.899512,51 C102.899512,79.1633334 79.8614548,102 51.4497561,102 C41.768627,102 32.6934617,99.3423333 24.9588484,94.7268333 C21.3144906,96.9085 17.9359567,98.5886667 14.9947456,99.5661666 C13.1997208,100.164 11.3075131,100.586167 9.48962172,100.5635 C7.64600543,100.540833 5.43938257,100.039333 3.71009909,98.3251667 C1.97795733,96.6081667 1.4720347,94.4236667 1.45202647,92.5933333 C1.42630159,90.7856666 1.85219122,88.9156666 2.45529672,87.1306667 C3.67294091,83.5465001 5.95959678,79.2965 8.94654091,74.7093333 C15.5492596,64.5886666 26.2679588,51.7876666 39.2561639,38.913 C49.7290475,28.5316667 60.1447649,19.6208334 69.1427555,13.1268333 C63.598865,10.579586 57.5602432,9.26444315 51.4497561,9.27350003 Z M90.8745608,11.2256667 C88.3335146,12.0671667 84.8092063,13.8663333 80.4474103,16.6571667 C70.9549303,22.7403333 58.5583974,32.895 45.8703158,45.4693333 C33.1850927,58.0493333 22.9408746,70.3375 16.804062,79.7441667 C13.988617,84.0678333 12.173584,87.5641667 11.324663,90.0801666 C11.2017553,90.4485 11.1045724,90.78 11.030256,91.0661667 C11.3189463,90.9925 11.6505114,90.8961666 12.0249514,90.7715 C14.5659976,89.9328333 18.0903059,88.1336667 22.4521019,85.3456667 C24.0379065,84.3277015 26.0858764,84.3556485 27.6428106,85.4165 C34.6462,90.1915615 42.9496157,92.7411523 51.4497561,92.7265 C74.6993292,92.7265 93.5442315,74.0463333 93.5442315,51 C93.5595934,42.5731991 90.9874923,34.3412971 86.1697665,27.3983334 C85.0999525,25.8562244 85.0706372,23.8276856 86.0954502,22.2558333 C88.9108952,17.9321667 90.7259282,14.4358333 91.5748492,11.9198334 C91.6977569,11.5515 91.7949398,11.22 91.8692562,10.9338333 C91.5342509,11.0191949 91.202469,11.1165363 90.8745608,11.2256667 Z" id="Shape"></path>
                        <path d="M58.5955555,59.9051667 C56.18844,59.9048753 53.9640476,61.1776629 52.760405,63.2440145 C51.5567623,65.3103662 51.5567623,67.8563005 52.760405,69.9226521 C53.9640476,71.9890038 56.18844,73.2617914 58.5955555,73.2615 C62.3160096,73.2610496 65.3317925,70.2712645 65.3317925,66.5833333 C65.3317925,62.8954022 62.3160096,59.9056171 58.5955555,59.9051667 Z M42.8747968,66.5833333 C42.8747968,57.9768959 49.9132202,51 58.5955556,51 C67.2778909,51 74.3163144,57.9768959 74.3163144,66.5833333 C74.3163144,75.1897706 67.2778909,82.1666666 58.5955556,82.1666666 C49.9132202,82.1666666 42.8747968,75.1897706 42.8747968,66.5833333 Z" id="Shape"></path>
                    </g>
                </g>
            </g>
        </g>
    </g>
</svg>