<?xml version="1.0" encoding="UTF-8"?>
<svg width="112px" height="102px" viewBox="0 0 112 102" version="1.1" xmlns="http://www.w3.org/2000/svg" xmlns:xlink="http://www.w3.org/1999/xlink">
    <!-- Generator: Sketch 51.3 (57544) - http://www.bohemiancoding.com/sketch -->
    <title>主页</title>
    <desc>Created with Sketch.</desc>
    <defs></defs>
    <g id="Page-1" stroke="none" stroke-width="1" fill="none" fill-rule="evenodd">
        <g id="APP" transform="translate(-779.000000, -1231.000000)" fill="#1652F0" fill-rule="nonzero">
            <g id="bot_nav" transform="translate(779.000000, 1231.000000)">
                <g id="Group-13">
                    <g id="主页">
                        <path d="M107.083826,50.8580311 C106.019842,50.8580311 104.94345,50.4875989 104.081096,49.7498214 L58.7144407,10.7402197 L58.2243257,10.2926141 C56.8997417,9.04331773 54.8245735,9.04331773 53.4999895,10.2926141 C53.3635018,10.4315262 53.1928922,10.5858729 53.0098746,10.7402197 L7.6277091,49.7498214 C6.7016083,50.5493339 5.49263006,50.9470057 4.27015605,50.8542286 C3.04768205,50.7614516 1.91328429,50.1859341 1.1197266,49.2559117 C-0.54137858,47.3184459 -0.321167954,44.41034 1.61294361,42.7424782 L46.9764971,3.72670271 C47.007517,3.69583341 47.1005768,3.61865993 47.1315968,3.57235586 C52.0012481,-1.06497255 59.6765373,-1.06497255 64.5461886,3.57235586 L64.7012882,3.72670271 L110.06174,42.7393912 C112.000486,44.4063363 112.217625,47.3173162 110.554957,49.2559117 C109.661583,50.3054697 108.371153,50.8611181 107.080724,50.8611181 L107.083826,50.8580311 Z M83.8654043,101.965332 L75.4652058,101.965332 C68.7742057,101.965332 63.3271051,96.5107176 63.3271051,89.8089809 L63.3271051,76.6215933 C63.3073265,75.0287988 62.0209099,73.7390631 60.4205372,73.7075263 L52.0234406,73.7075263 C50.4139709,73.7177165 49.1151333,75.0199051 49.1168727,76.6215933 L49.1168727,89.8089809 C49.1168727,96.5107175 43.6697721,101.965332 36.9787719,101.965332 L27.9488687,101.965332 C21.2578686,101.965332 15.810768,96.5107176 15.810768,89.8089809 L15.810768,47.2401429 C15.804168,46.0170668 16.287357,44.8417416 17.1535184,43.9739922 C18.0196797,43.1062428 19.1974754,42.617538 20.4265344,42.6159139 C21.6555934,42.6175379 22.833389,43.1062428 23.6995504,43.9739922 C24.5657118,44.8417416 25.0489009,46.0170667 25.0423008,47.2401429 L25.0423008,89.8089809 C25.0423008,91.4141873 26.3482401,92.7199609 27.9488687,92.7199609 L36.9787719,92.7199609 C38.587031,92.7097776 39.8853724,91.4094653 39.8853398,89.8089809 L39.8853398,76.6215933 C39.8853398,69.9167699 45.3324405,64.4652421 52.0234406,64.465242 L60.4236391,64.465242 C67.1146392,64.465242 72.5617398,69.9167697 72.5617398,76.6215933 L72.5617398,89.8089809 C72.5617398,91.4141873 73.8676791,92.7199609 75.4683078,92.7199609 L83.8685063,92.7199609 C85.4767654,92.7097776 86.7751068,91.4094654 86.7750743,89.8089809 L86.7750743,47.2401429 C86.7684742,46.0170668 87.2516633,44.8417416 88.1178247,43.9739922 C88.983986,43.1062428 90.1617817,42.617538 91.3908406,42.6159139 C92.6198996,42.617538 93.7976953,43.1062428 94.6638566,43.9739922 C95.530018,44.8417416 96.013207,46.0170668 96.006607,47.2401429 L96.006607,89.8089809 C96.006607,96.5107175 90.5595064,101.965332 83.8685063,101.965332 L83.8654043,101.965332 Z" id="Shape"></path>
                    </g>
                </g>
            </g>
        </g>
    </g>
</svg>