<?xml version="1.0" encoding="UTF-8"?>
<svg width="102px" height="102px" viewBox="0 0 102 102" version="1.1" xmlns="http://www.w3.org/2000/svg" xmlns:xlink="http://www.w3.org/1999/xlink">
    <!-- Generator: Sketch 51.3 (57544) - http://www.bohemiancoding.com/sketch -->
    <title>我的</title>
    <desc>Created with Sketch.</desc>
    <defs></defs>
    <g id="Page-1" stroke="none" stroke-width="1" fill="none" fill-rule="evenodd">
        <g id="APP" transform="translate(-2000.000000, -1231.000000)" fill="#FFFFFF" fill-rule="nonzero">
            <g id="bot_nav" transform="translate(779.000000, 1231.000000)">
                <g id="Group-4" transform="translate(1221.000000, 0.000000)">
                    <g id="我的">
                        <path d="M51,8.619 C60.3896667,8.619 68,16.337 68,25.8598333 C68,35.3798333 60.3896667,43.0978333 51,43.0978333 C41.6103333,43.0978333 34,35.3798333 34,25.8598333 C34,16.3398333 41.6103333,8.619 51,8.619 Z M51,2.81125123e-15 C36.9183333,2.81125123e-15 25.5,11.577 25.5,25.8598333 C25.5,40.1398333 36.9183333,51.7196666 51,51.7196667 C65.0816667,51.7196668 76.5,40.1398334 76.5,25.8598333 C76.5,19.0031666 73.814,12.4241666 69.0313333,7.5735 C64.2776805,2.73609907 57.7821531,0.00785507992 51,2.81125123e-15 Z M85,67.5211667 C89.6948333,67.5211667 93.4999999,71.3801667 93.5,76.1401667 L93.5,93.381 L8.49999997,93.381 L8.49999997,76.1401667 C8.49999997,71.3801667 12.3051666,67.5211667 17,67.5211667 L85,67.5211667 Z M85,58.9021667 L17,58.9021667 C7.61033336,58.9021667 0,66.6201667 0,76.1401667 L0,96.254 C0,99.4273333 2.53583336,102 5.66666668,102 L96.3333333,102 C99.4641666,102 102,99.4273333 102,96.254 L102,76.1401667 C102,66.6201667 94.3896666,58.9021667 85,58.9021667 Z" id="Shape"></path>
                    </g>
                </g>
            </g>
        </g>
    </g>
</svg>