<?xml version="1.0" encoding="UTF-8"?>
<svg width="104px" height="102px" viewBox="0 0 104 102" version="1.1" xmlns="http://www.w3.org/2000/svg" xmlns:xlink="http://www.w3.org/1999/xlink">
    <!-- Generator: Sketch 51.3 (57544) - http://www.bohemiancoding.com/sketch -->
    <title>对话</title>
    <desc>Created with Sketch.</desc>
    <defs></defs>
    <g id="Page-1" stroke="none" stroke-width="1" fill="none" fill-rule="evenodd">
        <g id="APP" transform="translate(-1696.000000, -1231.000000)" fill="#1652F0" fill-rule="nonzero">
            <g id="bot_nav" transform="translate(779.000000, 1231.000000)">
                <g id="Group-10" transform="translate(917.000000, 0.000000)">
                    <g id="对话">
                        <path d="M52,8.10307193 C76.362,8.10307193 96.2,23.7330231 96.2,42.9569027 C96.2,62.1778723 76.362,77.8078234 52,77.8078234 C50.0618123,77.8567117 48.1491801,78.2651262 46.358,79.0125897 C39.8507228,82.0670159 33.7386885,85.9116165 28.158,90.4607797 C27.664,75.6892972 25.558,70.9982749 21.892,68.396678 C13,61.8315747 7.8,52.5542922 7.8,42.9830933 C7.8,23.7330231 27.638,8.1292625 52,8.1292625 L52,8.10016181 L52,8.10307193 Z M52,0.0858468626 C23.4,0.0858468626 0,19.2864461 0,42.9830933 C0,55.6913407 6.682,67.11334 17.342,74.9676015 C19.942,76.8969737 20.436,88.3742642 20.436,97.1131849 C20.4157778,98.3703324 20.8808888,99.5867389 21.7273334,100.491769 C22.5766667,101.396798 23.738,101.9177 24.96,101.93807 C25.9075556,101.900239 26.8175556,101.553942 27.56,100.948649 C34.086,95.745455 43.394,88.8020435 49.01,86.6020354 C49.9534418,86.1796167 50.968284,85.9425662 52,85.9036202 C80.6,85.9036202 104,66.6826506 104,43.0092839 C104,19.3359172 80.6,0.114947555 52,0.114947555 L52,0.0858468626 Z M68.9,32.0703551 L35.1,32.0703551 C32.9448888,32.0703551 31.2,33.8716844 31.2,36.0920628 C31.2,38.3124413 32.9448888,40.1137706 35.1,40.1137706 L68.9,40.1137706 C71.0551112,40.1137706 72.8,38.3124413 72.8,36.0920628 C72.8,33.8716844 71.0551112,32.0703551 68.9,32.0703551 Z M63.7,50.8402648 L40.3,50.8402648 C38.1448888,50.8402648 36.4,52.6386841 36.4,54.8590625 C36.4,57.0823511 38.1448888,58.8807702 40.3,58.8807703 L63.7,58.8807703 C65.8551112,58.8807703 67.6,57.0823511 67.6,54.8590625 C67.6,52.638684 65.8551112,50.8373547 63.7,50.8373547 L63.7,50.8402648 Z" id="Shape"></path>
                    </g>
                </g>
            </g>
        </g>
    </g>
</svg>