<?xml version="1.0" encoding="UTF-8"?>
<svg width="102px" height="102px" viewBox="0 0 102 102" version="1.1" xmlns="http://www.w3.org/2000/svg" xmlns:xlink="http://www.w3.org/1999/xlink">
    <!-- Generator: Sketch 51.3 (57544) - http://www.bohemiancoding.com/sketch -->
    <title>商店 (1)</title>
    <desc>Created with Sketch.</desc>
    <defs></defs>
    <g id="Page-1" stroke="none" stroke-width="1" fill="none" fill-rule="evenodd">
        <g id="APP" transform="translate(-1392.000000, -1231.000000)" fill="#FFFFFF" fill-rule="nonzero">
            <g id="bot_nav" transform="translate(779.000000, 1231.000000)">
                <g id="Group-11" transform="translate(613.000000, 0.000000)">
                    <g id="商店-(1)">
                        <path d="M84.9795437,101.972546 L16.9978467,101.972546 C10.4444711,102.389313 4.76866032,97.4715385 4.24809112,90.9255906 L4.24809112,43.4228344 C1.48545286,39.9272306 -0.0115938434,35.5988781 0.00100585547,31.1434031 L0.00100585547,12.7497557 C0.000254311367,9.3685708 1.34289798,6.1256133 3.73349108,3.73448882 C6.12408417,1.34336434 9.36674318,-5.71018723e-08 12.7479281,-1.58818678e-22 L89.226629,-1.58818678e-22 C92.6078138,-0.000751544106 95.8507713,1.34189214 98.2418958,3.73248526 C100.63302,6.12307838 101.976385,9.36573741 101.976385,12.7469224 L101.976385,31.1434031 C101.988178,35.5992168 100.49012,39.9276048 97.7264661,43.4228344 L97.7264661,90.9255906 C97.2073562,97.4726711 91.5311052,102.392089 84.9767104,101.975379 L84.9795437,101.972546 Z M12.7479281,49.6702146 L12.7479281,90.9255906 C12.7479281,92.1155678 14.5753931,93.4755416 16.9978467,93.4755417 L84.9795437,93.4755417 C87.4019973,93.4755417 89.2294622,92.1155678 89.2294622,90.9255906 L89.2294622,49.6702146 C81.1271427,52.7909202 71.9369612,50.2559752 66.5802298,43.4228344 C62.8182395,48.2037987 57.0708787,50.9946854 50.9872786,50.9946854 C44.9036784,50.9946854 39.1563176,48.2037987 35.3943274,43.4228344 C30.0380022,50.2546986 20.8494445,52.7895128 12.7479281,49.6702146 Z M70.8301482,8.49700382 L70.8301482,31.1434031 C70.5720476,35.3543467 72.6720168,39.3607014 76.2818434,41.5442339 C79.8916699,43.7277664 84.4150258,43.7277664 88.0248524,41.5442339 C91.634679,39.3607014 93.7346481,35.3543467 93.4765475,31.1434031 L93.4765475,12.7497557 C93.4765475,10.4025905 91.5737942,8.49983711 89.226629,8.49983711 L70.8329815,8.49983711 L70.8301482,8.49700382 Z M39.644246,8.49983711 L39.644246,31.1462364 C39.6442461,37.4116026 44.723329,42.4906854 50.9886952,42.4906854 C57.2540615,42.4906854 62.3331444,37.4116026 62.3331445,31.1462364 L62.3331445,8.49983711 L39.644246,8.49983711 Z M12.7479281,8.49983711 C10.4007629,8.49983711 8.49800957,10.4025905 8.49800957,12.7497557 L8.49800957,31.1462364 C8.23990894,35.35718 10.3398781,39.3635347 13.9497047,41.5470672 C17.5595313,43.7305997 22.0828871,43.7305997 25.6927137,41.5470672 C29.3025403,39.3635347 31.4025095,35.35718 31.1444089,31.1462364 L31.1444089,8.49983711 L12.7507614,8.49983711 L12.7479281,8.49983711 Z" id="Shape"></path>
                    </g>
                </g>
            </g>
        </g>
    </g>
</svg>