<?xml version="1.0" encoding="UTF-8"?>
<svg width="140px" height="140px" viewBox="0 0 140 140" version="1.1" xmlns="http://www.w3.org/2000/svg" xmlns:xlink="http://www.w3.org/1999/xlink">
    <!-- Generator: Sketch 51.3 (57544) - http://www.bohemiancoding.com/sketch -->
    <title>transform</title>
    <desc>Created with Sketch.</desc>
    <defs>
        <circle id="path-1" cx="50" cy="50" r="50"></circle>
        <filter x="-32.5%" y="-27.5%" width="165.0%" height="165.0%" filterUnits="objectBoundingBox" id="filter-2">
            <feOffset dx="0" dy="5" in="SourceAlpha" result="shadowOffsetOuter1"></feOffset>
            <feGaussianBlur stdDeviation="10" in="shadowOffsetOuter1" result="shadowBlurOuter1"></feGaussianBlur>
            <feColorMatrix values="0 0 0 0 0.235294118   0 0 0 0 0.258823529   0 0 0 0 0.388235294  0 0 0 0.252490942 0" type="matrix" in="shadowBlurOuter1"></feColorMatrix>
        </filter>
    </defs>
    <g id="Page-1" stroke="none" stroke-width="1" fill="none" fill-rule="evenodd">
        <g id="download&amp;footer" transform="translate(-2539.000000, -621.000000)">
            <g id="transform" transform="translate(2559.000000, 636.000000)">
                <g id="Oval-40">
                    <use fill="black" fill-opacity="1" filter="url(#filter-2)" xlink:href="#path-1"></use>
                    <use fill="#FFFFFF" fill-rule="evenodd" xlink:href="#path-1"></use>
                </g>
                <g id="页面美化" transform="translate(49.428571, 50.000000) scale(-1, 1) translate(-49.428571, -50.000000) translate(23.428571, 23.000000)" fill="#F22976" fill-rule="nonzero">
                    <path d="M49.4081512,42.4946588 L21.7401529,15.4966256 C20.4474533,14.2281891 18.6882748,13.517252 16.8549544,13.5223697 C15.0220302,13.5175505 13.2633202,14.2284646 11.9708997,15.4966256 C9.27895062,18.1250979 9.27895062,22.4011086 11.9708997,25.0286322 L39.638898,52.0257168 C40.9315837,53.2941396 42.6907388,54.0050755 44.5240393,53.9999727 C46.3569834,54.0048069 48.1157168,53.2938916 49.4081512,52.0257168 C52.1020448,49.3981931 52.1020448,45.1212339 49.4081512,42.4946588 Z M14.0420478,17.5165271 C14.7867194,16.7859951 15.8000007,16.3765443 16.8559839,16.3794606 C17.9189234,16.3794606 18.9183818,16.7832401 19.6708922,17.5165271 L24.6936335,22.4182396 L19.2492279,28.0904587 L14.0420478,23.0096794 C12.4908633,21.4914113 12.4908633,19.034851 14.0420478,17.5165829 L14.0420478,17.5165271 Z M47.3379755,50.0058153 C46.585465,50.740051 45.5869217,51.1428818 44.5240393,51.1428818 C43.461157,51.1428818 42.4616414,50.7391024 41.709131,50.0057595 L21.3194608,30.1113089 L26.7638664,24.4381969 L47.336946,44.5136117 C48.0860704,45.23994 48.505821,46.2287729 48.5024279,47.2592113 C48.5072323,48.2900014 48.0877065,49.2795204 47.3379755,50.0057595 L47.3379755,50.0058153 Z M2.7989424,8.96249705 C2.84092011,8.9720391 7.03011222,9.97105276 7.03011222,12.459575 C7.02983181,12.9369342 7.39179271,13.3407504 7.87671022,13.4040692 C8.36162772,13.4673879 8.81967528,13.1706455 8.94804733,12.710012 C8.95977135,12.6681051 10.1612831,8.50632005 13.5032576,8.10064339 C13.9292223,8.07907823 14.2915021,7.7901373 14.3978959,7.38711292 C14.5042898,6.98408853 14.3301535,6.56033425 13.9678719,6.34066512 C12.758525,5.58645249 9.56004112,3.13040672 9.19693968,0.807559048 C9.1236512,0.342722682 8.71357684,-0.000314891188 8.2315668,2.16911618e-07 L8.2179555,2.16911618e-07 C7.73032959,0.00725810504 7.3227098,0.363940382 7.26241937,0.836129399 C7.25652876,0.885681102 6.58602926,5.80547325 2.6906239,7.134999 C2.28062639,7.27494908 2.01417661,7.66444332 2.03859688,8.08730684 C2.06593386,8.51111898 2.37533358,8.86824837 2.7989424,8.96249705 Z M8.43951086,3.80460004 C9.26819883,4.99981167 10.3759756,6.03024156 11.3090932,6.78071549 C9.79526497,7.51305394 8.76160684,8.77489252 8.09402404,9.89772964 C7.37462681,8.9643943 6.32930185,8.30727622 5.39229538,7.86638883 C6.94907352,6.73116378 7.88413551,5.15499555 8.43951086,3.80460004 Z M24.5746204,11.8109945 C24.624376,11.8224338 29.5641341,13.0004586 29.5641341,15.9813172 C29.5628724,16.4590401 29.924542,16.8637547 30.4097656,16.9275934 C30.8949892,16.9914321 31.3536046,16.6946388 31.4820692,16.2336514 C31.4957377,16.1841555 32.9344177,11.2738496 36.8786637,10.8129295 C37.3285688,10.7947893 37.707234,10.4784221 37.7948584,10.0474671 C37.8824828,9.61651217 37.6562755,9.18305959 37.2475413,8.9987122 C36.5995176,8.56731106 32.7762865,5.90452085 31.7387966,2.45420454 C31.607279,2.02151747 31.1828195,1.73810264 30.7218346,1.77517131 C30.2608496,1.81223998 29.8896711,2.15963357 29.8325283,2.60749117 C29.8256655,2.6656363 29.044903,8.41966038 24.4681892,9.98344069 C24.0575466,10.1237915 23.7917028,10.5123994 23.8163745,10.9362571 C23.8410462,11.3601148 24.1502749,11.7168554 24.5745632,11.8109387 L24.5746204,11.8109945 Z M31.0682399,5.53221346 C32.1145371,7.16256493 33.5181023,8.52730141 34.6523011,9.45673064 C32.7158363,10.3034063 31.4400915,11.9166825 30.6543534,13.2957042 C29.7886061,12.0671791 28.4153518,11.2395875 27.2391753,10.7157791 C29.2996287,9.30154676 30.4454943,7.2073177 31.0682399,5.53215766 L31.0682399,5.53221346 Z M13.9356737,32.9854192 C13.7521499,32.8625444 9.36387827,29.8950782 8.11644266,26.1114039 C7.9754859,25.686327 7.55063395,25.4139957 7.09482231,25.4565423 C6.63901066,25.4990889 6.2747828,25.845075 6.21898169,26.2885178 C6.2112038,26.3485043 5.40207493,32.3149646 0.652646279,33.9368342 C0.242344123,34.0777526 -0.0230683662,34.4663565 0.00158252788,34.8900899 C0.0262334219,35.3138232 0.335010321,35.6706261 0.759020304,35.7653367 C0.810720368,35.7767202 5.94183732,37.0014508 5.94183732,40.1061328 C5.94155691,40.5834921 6.30351781,40.9873083 6.78843531,41.050627 C7.27335281,41.1139458 7.73140038,40.8172033 7.85977243,40.3565698 C7.87441315,40.3051209 9.35312648,35.1786959 13.5081188,34.7282106 C13.9171292,34.6838211 14.2536649,34.3938953 14.3494671,34.0033884 C14.4452692,33.6128814 14.2797537,33.2056981 13.9356737,32.9854192 Z M7.0379473,37.3909451 C6.13508346,36.0843537 4.67587204,35.2139066 3.4392454,34.6691727 C5.63821382,33.1797199 6.83589384,30.9388446 7.47419518,29.1808194 C8.55858114,30.8759564 10.0148759,32.3645163 11.2251378,33.3720676 C9.18327119,34.2463092 7.84999288,35.9490909 7.03789011,37.3909451 L7.0379473,37.3909451 Z" id="Shape"></path>
                </g>
            </g>
        </g>
    </g>
</svg>