<?xml version="1.0" encoding="UTF-8"?>
<svg width="140px" height="140px" viewBox="0 0 140 140" version="1.1" xmlns="http://www.w3.org/2000/svg" xmlns:xlink="http://www.w3.org/1999/xlink">
    <!-- Generator: Sketch 51.3 (57544) - http://www.bohemiancoding.com/sketch -->
    <title>products</title>
    <desc>Created with Sketch.</desc>
    <defs>
        <circle id="path-1" cx="50" cy="50" r="50"></circle>
        <filter x="-32.5%" y="-27.5%" width="165.0%" height="165.0%" filterUnits="objectBoundingBox" id="filter-2">
            <feOffset dx="0" dy="5" in="SourceAlpha" result="shadowOffsetOuter1"></feOffset>
            <feGaussianBlur stdDeviation="10" in="shadowOffsetOuter1" result="shadowBlurOuter1"></feGaussianBlur>
            <feColorMatrix values="0 0 0 0 0.235294118   0 0 0 0 0.258823529   0 0 0 0 0.388235294  0 0 0 0.252490942 0" type="matrix" in="shadowBlurOuter1"></feColorMatrix>
        </filter>
    </defs>
    <g id="Page-1" stroke="none" stroke-width="1" fill="none" fill-rule="evenodd">
        <g id="download&amp;footer" transform="translate(-1873.000000, -1348.000000)">
            <g id="products" transform="translate(1893.000000, 1363.000000)">
                <g id="Oval-40-Copy-2">
                    <use fill="black" fill-opacity="1" filter="url(#filter-2)" xlink:href="#path-1"></use>
                    <use fill="#FFFFFF" fill-rule="evenodd" xlink:href="#path-1"></use>
                </g>
                <g id="发布产品" transform="translate(23.000000, 23.000000)" fill="#F66F2C" fill-rule="nonzero">
                    <path d="M45.5374101,21.3987981 C45.5374101,24.8581731 45.5374101,28.3175481 45.5438849,31.7834135 C45.5438849,32.0235577 45.4856115,32.1663462 45.2654676,32.2961538 C39.3021583,35.7425481 33.3388489,39.1954327 27.3820144,42.6548077 C27.0906475,42.8235577 26.8834532,42.8170673 26.5985612,42.6483173 C20.6482014,39.1954327 14.6978417,35.7490385 8.74100719,32.3026442 C8.51438849,32.1728365 8.43669065,32.0300481 8.43669065,31.7704327 C8.44316547,24.8516827 8.44316547,17.9264423 8.43669065,11.0076923 C8.43669065,10.7480769 8.51438849,10.6052885 8.74100719,10.4754808 C14.7302158,7.02259615 20.7129496,3.56322115 26.6892086,0.0973557692 C26.9158273,-0.0324519231 27.071223,-0.0259615385 27.2978417,0.103846154 C33.2741007,3.56971154 39.2568345,7.02908654 45.2460432,10.4819712 C45.4791367,10.6182692 45.5438849,10.7610577 45.5438849,11.0141827 C45.5374101,14.4735577 45.5374101,17.9329327 45.5374101,21.3987981 Z M10.3726619,12.9807692 C10.3661871,13.0716346 10.3597122,13.1170673 10.3597122,13.1625 C10.3597122,19.0362981 10.3597122,24.9100962 10.3532374,30.7774038 C10.3532374,30.9721154 10.4309353,31.0629808 10.5863309,31.1473558 C15.5978417,34.0420673 20.6093525,36.9432692 25.6208633,39.8444712 C25.7179856,39.9028846 25.8151079,39.9483173 25.9381295,40.0132212 C25.9446043,39.9223558 25.9510791,39.8769231 25.9510791,39.8314904 C25.9510791,33.9576923 25.9510791,28.0838942 25.957554,22.2165865 C25.957554,22.021875 25.8863309,21.9310096 25.7309353,21.8401442 C20.7064748,18.9389423 15.6884892,16.03125 10.6705036,13.1235577 C10.5798561,13.0846154 10.4956835,13.0456731 10.3726619,12.9807692 Z M28.0230216,40.0262019 C28.1848921,39.9418269 28.294964,39.8834135 28.405036,39.8185096 C33.3776978,36.9367788 38.3503597,34.0615385 43.3294964,31.1862981 C43.5496403,31.0629808 43.6208633,30.9266827 43.6208633,30.6800481 C43.6143885,24.890625 43.6143885,19.1076923 43.6143885,13.3182692 C43.6143885,13.2144231 43.6079137,13.1170673 43.594964,12.9742788 C43.4654676,13.0456731 43.3683453,13.0911058 43.2776978,13.1430288 C38.2856115,16.03125 33.2935252,18.9259615 28.294964,21.8076923 C28.0748201,21.9375 28.0100719,22.0737981 28.0100719,22.3139423 C28.0165468,28.0903846 28.0165468,33.8668269 28.0165468,39.6432692 C28.0230216,39.7536058 28.0230216,39.8639423 28.0230216,40.0262019 Z M42.5589928,11.1634615 C42.4618705,11.0985577 42.4035971,11.0596154 42.3388489,11.0206731 C37.3014388,8.1 32.257554,5.18581731 27.2266187,2.26514423 C27.0582734,2.16778846 26.928777,2.16129808 26.7539568,2.25865385 C21.7100719,5.19230769 16.6597122,8.11298077 11.6158273,11.0336538 C11.557554,11.0661058 11.5057554,11.1180288 11.4410072,11.1699519 C11.4992806,11.2088942 11.5316547,11.2348558 11.5705036,11.2543269 C16.6338129,14.1879808 21.7035971,17.128125 26.7669065,20.0682692 C26.9417266,20.1721154 27.0647482,20.1526442 27.2330935,20.0552885 L40.8884892,12.1305288 C41.4323741,11.8189904 41.976259,11.5009615 42.5589928,11.1634615 Z" id="Shape"></path>
                    <path d="M6.61951496,27.0064102 C6.61951496,27.7564069 6.58754068,28.4294808 6.63230467,29.0961445 C6.6706738,29.7051161 6.49161785,30.1730628 6.12071623,30.6666503 C3.4348769,34.2691983 3.56277401,39.0576385 6.39569501,42.5576228 C7.9944089,44.531973 10.0151832,45.967864 12.2341981,47.1537561 C14.9775911,48.6216983 17.906435,49.5191302 20.9631759,50.0063075 C24.1094448,50.5127155 27.2812932,50.6088689 30.4531415,50.3268189 C34.4243468,49.9742564 38.2356807,49.0127222 41.7720358,47.1281152 C44.0677889,45.9037617 46.1589067,44.4101787 47.7448309,42.3076239 C50.5010136,38.6537941 50.4690393,34.0320199 47.6744875,30.4166514 C47.4378778,30.1089605 47.3355601,29.81409 47.3483498,29.4294763 C47.3675344,28.6538388 47.3547447,27.8782012 47.3547447,27 C47.8535434,27.3974341 48.3011833,27.7371762 48.7232438,28.096149 C50.2004554,29.3461434 51.5050059,30.7563935 52.3555217,32.5127959 C54.3315321,36.596111 53.9670253,40.5191704 51.3835037,44.2178718 C49.9894252,46.2178629 48.1093376,47.7178562 46.0629839,48.9999017 C42.5202339,51.2242508 38.6577412,52.6152702 34.5458491,53.3396259 C31.6489795,53.8524442 28.7329254,54.0511612 25.7976867,53.9742385 C21.1422319,53.8524442 16.6018844,53.1024475 12.285357,51.2883531 C9.32453885,50.0447689 6.58754068,48.4422119 4.26620812,46.192222 C2.23264406,44.224282 0.825775846,41.9037796 0.467663937,39.044818 C0.0967623159,36.0768825 0.793801569,33.3717664 2.53959713,30.9358799 C3.65230199,29.4102456 5.02080107,28.1602512 6.61951496,27.0064102 Z" id="Shape"></path>
                </g>
            </g>
        </g>
    </g>
</svg>