<?xml version="1.0" encoding="utf-8"?>
<!-- Generator: Adobe Illustrator 22.1.0, SVG Export Plug-In . SVG Version: 6.00 Build 0)  -->
<svg version="1.1" id="Layer_1" xmlns="http://www.w3.org/2000/svg" xmlns:xlink="http://www.w3.org/1999/xlink" x="0px" y="0px"
	 viewBox="0 0 2595 398" style="enable-background:new 0 0 2595 398;" xml:space="preserve">
<style type="text/css">
	.st0{opacity:0.8936;clip-path:url(#SVGID_2_);}
	.st1{fill:url(#path-2_2_);}
	.st2{opacity:0.3793;filter:url(#filter-5_1_);enable-background:new    ;}
	.st3{fill:url(#SVGID_3_);}
	.st4{fill:#2B3C45;}
	.st5{fill:#F1F1F1;}
	.st6{fill:#F8F8F8;}
	.st7{fill:#D1D3D4;}
	.st8{fill:#2B3C45;stroke:#2B3C45;stroke-width:0.72;}
	.st9{filter:url(#filter-8);}
	.st10{fill:url(#path-7_2_);stroke:#DFF0FF;stroke-width:1.44;}
	.st11{filter:url(#filter-9);}
	.st12{fill:none;stroke:#DFF4FF;}
	.st13{fill:none;stroke:#E0F5FF;}
	.st14{fill:#F34747;}
	.st15{fill:#F36847;}
	.st16{fill:#F39947;}
	.st17{fill:#F3C347;}
	.st18{fill:#99AAB3;}
	.st19{fill:#ACB7C6;}
	.st20{fill:#F8F8F8;stroke:#FFFFFF;stroke-width:1.44;}
	.st21{filter:url(#Adobe_OpacityMaskFilter);}
	.st22{fill:#FFFFFF;}
	.st23{mask:url(#mask-11_1_);fill:#C0D9F7;stroke:#FFFFFF;stroke-width:0.72;}
	.st24{fill:#626F7D;}
	.st25{fill:#3A97FF;stroke:#F8F8F8;stroke-width:3.6;}
	.st26{fill:#3B97FE;stroke:#F8F8F8;stroke-width:3.6;}
	.st27{fill:#25364A;}
</style>
<filter  filterUnits="objectBoundingBox" height="138.5%" id="filter-9" width="128.0%" x="-14.0%" y="-25.6%">
	<feOffset  dx="0" dy="-2" in="SourceAlpha" result="shadowOffsetOuter1"></feOffset>
	<feGaussianBlur  in="shadowOffsetOuter1" result="shadowBlurOuter1" stdDeviation="2"></feGaussianBlur>
	
		<feColorMatrix  in="shadowBlurOuter1" result="shadowMatrixOuter1" type="matrix" values="0 0 0 0 0.878431373   0 0 0 0 0.956862745   0 0 0 0 1  0 0 0 0.544214221 0">
		</feColorMatrix>
	<feMerge>
		<feMergeNode  in="shadowMatrixOuter1"></feMergeNode>
		<feMergeNode  in="SourceGraphic"></feMergeNode>
	</feMerge>
</filter>
<filter  filterUnits="objectBoundingBox" height="263.9%" id="filter-8" width="227.2%" x="-63.6%" y="-108.2%">
	<feMorphology  in="SourceAlpha" operator="dilate" radius="1.72" result="shadowSpreadOuter1"></feMorphology>
	<feOffset  dx="0" dy="-10" in="shadowSpreadOuter1" result="shadowOffsetOuter1"></feOffset>
	<feGaussianBlur  in="shadowOffsetOuter1" result="shadowBlurOuter1" stdDeviation="7.5"></feGaussianBlur>
	<feComposite  in="shadowBlurOuter1" in2="SourceAlpha" operator="out" result="shadowBlurOuter1"></feComposite>
	
		<feColorMatrix  in="shadowBlurOuter1" type="matrix" values="0 0 0 0 0.478199968   0 0 0 0 0.738036533   0 0 0 0 1  0 0 0 0.745103034 0">
		</feColorMatrix>
</filter>
<filter  filterUnits="objectBoundingBox" height="140.8%" id="filter-5" width="140.8%" x="-20.4%" y="-20.4%">
	<feGaussianBlur  in="SourceGraphic" stdDeviation="0.882947395"></feGaussianBlur>
</filter>
<g id="planet_1_">
	<defs>
		<rect id="SVGID_1_" y="250.2" width="2595" height="147.8"/>
	</defs>
	<clipPath id="SVGID_2_">
		<use xlink:href="#SVGID_1_"  style="overflow:visible;"/>
	</clipPath>
	<g id="planet" class="st0">
		<g>
			
				<linearGradient id="path-2_2_" gradientUnits="userSpaceOnUse" x1="992.2325" y1="595.9227" x2="992.2325" y2="595.8212" gradientTransform="matrix(3709 0 0 -2012 -3678893 1199218)">
				<stop  offset="0" style="stop-color:#015EF2"/>
				<stop  offset="1" style="stop-color:#1D97F2"/>
			</linearGradient>
			<ellipse id="path-2_1_" class="st1" cx="1297.5" cy="1268" rx="1854.5" ry="1006"/>
		</g>
	</g>
</g>
<g id="shadow" class="st2">
	
		<radialGradient id="SVGID_3_" cx="997.6579" cy="587.9666" r="0.7704" gradientTransform="matrix(2.326835e-15 38 129.9013 -7.954142e-15 -75071.6484 -37629.9219)" gradientUnits="userSpaceOnUse">
		<stop  offset="0" style="stop-color:#373D3F"/>
		<stop  offset="1" style="stop-color:#353B3E;stop-opacity:0"/>
	</radialGradient>
	<ellipse class="st3" cx="1306" cy="285" rx="102" ry="19"/>
</g>
<g id="earnie" transform="translate(1714.000000, 1402.000000)">
	<g id="left-arm" transform="translate(55.589286, 132.221106)">
		<g id="l-arm-joint" transform="translate(30.000000, 0.000000)">
			<path id="Path-17" class="st4" d="M-548-1397.7c-4.3,2.2-6.8,3.9-7.6,5.3c-1.2,2.1-1.9,8.4,0,8.4s5.4-0.4,7.6-2.7
				C-546.5-1388.3-546.5-1391.9-548-1397.7z"/>
			<path id="Oval-2" class="st4" d="M-547.9-1381.9c-1.7,0-3-4.5-3-10.1s1.4-10.1,3-10.1s3,4.5,3,10.1S-546.2-1381.9-547.9-1381.9z"
				/>
		</g>
		<path id="l-arm" class="st5" d="M-533.6-1392.9c-8.9,7.2-18.9,17-22.5,42c-1.6,10.9-1.4,18.2,2.6,23.8c4,5.6,16.5-29.6,26.1-44.1
			S-524.6-1400.1-533.6-1392.9z"/>
	</g>
	<g id="body" transform="translate(88.076531, 117.849246)">
		<path id="Path-15" class="st6" d="M-556.3-1387.4c-0.1,35.8,0.9,56.5,3,62.3c3.2,8.6,14.9,32.5,59.6,32.5s56.3-22.9,58.7-32.5
			c2.4-9.6,2.8-62.3,2.6-62.3C-432.4-1387.4-473.8-1387.4-556.3-1387.4z"/>
		<path id="Oval-23" class="st7" d="M-501.6-1387.3c34.3,0,69.5,5.3,69.5,0s-27.8-14.7-62.1-14.7s-62.1,9.2-62.1,14.7
			S-535.9-1387.3-501.6-1387.3z"/>
		<g id="energy" transform="translate(25.267857, 22.276382)">
			<ellipse id="Oval-24" class="st8" cx="-525.2" cy="-1377.9" rx="31.8" ry="24.1"/>
			<g id="Oval-24_1_">
				<g class="st9">
					<ellipse id="path-7_2_" cx="-525.2" cy="-1379.4" rx="24.5" ry="19"/>
				</g>
				<g>
					
						<linearGradient id="path-7_2_" gradientUnits="userSpaceOnUse" x1="-855.0514" y1="-951.2783" x2="-855.0514" y2="-952.2493" gradientTransform="matrix(49.0918 0 0 -38.0854 41450.8086 -37628.0039)">
						<stop  offset="0" style="stop-color:#83C0FE"/>
						<stop  offset="1" style="stop-color:#65AEFE"/>
					</linearGradient>
					<ellipse id="path-7_1_" class="st10" cx="-525.2" cy="-1379.4" rx="24.5" ry="19"/>
				</g>
			</g>
		</g>
		<g id="grid" transform="translate(31.923469, 26.150754)" class="st11">
			<path id="Path-30_1_" class="st12" d="M-556.4-1385.1c5.6-3.6,13.1-5.4,22.6-5.4c9.5,0,18.2,1.8,26.2,5.4"/>
			<path id="Path-31_1_" class="st12" d="M-532.2-1402c-0.5,3.9-0.8,9.4-0.8,16.5s0.3,14.3,0.8,21.7"/>
			<path id="Path-32_1_" class="st12" d="M-520.8-1400.2c3.5,5.1,5.2,10.3,5.2,15.8c0,5.5-1.7,11.6-5.2,18.3"/>
			<path id="Path-33_1_" class="st12" d="M-543.2-1400.1c-3.2,4-4.8,8.7-4.8,14.2c0,5.4,1.6,12,4.8,19.7"/>
			<path id="Path-34_1_" class="st13" d="M-555.6-1378.5c6.4,1.6,13.9,2.4,22.5,2.4c8.6,0,17-0.8,25.1-2.4"/>
			<path id="Path-35_1_" class="st12" d="M-554.8-1390.2c6.6-5.9,14-8.9,22.2-8.9s16.1,3,23.5,8.9"/>
		</g>
		<g id="highlight" transform="translate(26.923469, 65.150754)">
			
				<ellipse id="Oval-29" transform="matrix(0.7431 -0.6691 0.6691 0.7431 792.373 -726.7979)" class="st14" cx="-550.5" cy="-1395.5" rx="4.5" ry="3.5"/>
			<path id="Oval-29-Copy" class="st15" d="M-536.8-1385.2c1.8,0.6,3.9-0.9,4.7-3.3s-0.2-4.8-2-5.3s-3.9,0.9-4.7,3.3
				S-538.7-1385.8-536.8-1385.2z"/>
			
				<ellipse id="Oval-29-Copy-2" transform="matrix(0.9703 -0.2419 0.2419 0.9703 320.7488 -166.7106)" class="st16" cx="-518.5" cy="-1389.5" rx="3.5" ry="4.5"/>
			
				<ellipse id="Oval-29-Copy-3" transform="matrix(0.6947 -0.7193 0.7193 0.6947 849.7938 -789.0111)" class="st17" cx="-504.5" cy="-1395.5" rx="3.5" ry="4.5"/>
		</g>
	</g>
	<g id="head">
		
			<ellipse id="Oval-22" transform="matrix(0.4226 -0.9063 0.9063 0.4226 1027.111 -1043.01)" class="st18" cx="-305" cy="-1327.6" rx="26.9" ry="20.9"/>
		
			<ellipse id="Oval-22-Copy" transform="matrix(0.866 -0.5 0.5 0.866 589.8656 -438.7527)" class="st19" cx="-523.8" cy="-1320.1" rx="20.9" ry="29.5"/>
		<path id="Path-12" class="st20" d="M-500-1298.9c-16.3-7.7-27-19.8-32-36.5c-7.6-25,26.2-49.6,32-52.5
			c20.6-10.4,122.5-19.2,166.4-8.5c20.7,5.1,42.3,31.6,42.3,46.3s-23.2,58.7-43.7,52.4C-355.2-1303.9-410.2-1304.3-500-1298.9z"/>
		<g id="Path-13" transform="translate(23.102041, 0.000000)">
			<g id="Mask">
				<path id="path-10_1_" class="st6" d="M-523.2-1299.1c-16.3-7.7-27-19.8-32-36.5c-7.6-25,26.2-49.7,32-52.6
					c20.6-10.4,122.5-19.3,166.3-8.5c20.7,5.1,42.3,31.6,42.3,46.4s-23.2,58.8-43.7,52.5C-378.4-1304.1-433.4-1304.5-523.2-1299.1z"
					/>
			</g>
			<defs>
				<filter id="Adobe_OpacityMaskFilter" filterUnits="userSpaceOnUse" x="-557" y="-1369.6" width="243.8" height="86.2">
					<feColorMatrix  type="matrix" values="1 0 0 0 0  0 1 0 0 0  0 0 1 0 0  0 0 0 1 0"/>
				</filter>
			</defs>
			<mask maskUnits="userSpaceOnUse" x="-557" y="-1369.6" width="243.8" height="86.2" id="mask-11_1_">
				<g class="st21">
					<path id="path-10_2_" class="st22" d="M-523.2-1299.1c-16.3-7.7-27-19.8-32-36.5c-7.6-25,26.2-49.7,32-52.6
						c20.6-10.4,122.5-19.3,166.3-8.5c20.7,5.1,42.3,31.6,42.3,46.4s-23.2,58.8-43.7,52.5C-378.4-1304.1-433.4-1304.5-523.2-1299.1z
						"/>
				</g>
			</mask>
			<path class="st23" d="M-556.6-1341c82.3-21.5,149.4-26.9,201.5-16.1c0,0,5-4,15-11.9l9.1,14c9,1.4,14.7,3.1,17,5
				c2.3,1.9-3.4,22.3-17,61.3l-212.7,5.1L-556.6-1341z"/>
		</g>
		<path id="Path-11" class="st24" d="M-471.3-1289.2c-12.1-2.1-19.6-1-28.2-9.4s116.4-24.6,169,1c2,0-9.4,7.9-26.4,9.7
			S-448.4-1285.2-471.3-1289.2z"/>
		
			<ellipse id="Oval-21" transform="matrix(0.9903 -0.1392 0.1392 0.9903 184.87 -74.7218)" class="st25" cx="-441.9" cy="-1359.2" rx="20.2" ry="9.3"/>
		
			<ellipse id="Oval-21-Copy" transform="matrix(0.1392 -0.9903 0.9903 0.1392 1034.4205 -1529.9598)" class="st26" cx="-362.8" cy="-1360" rx="8.6" ry="17"/>
		<g id="Group" transform="translate(92.408163, 100.603015)">
			<ellipse id="Oval-20" class="st27" cx="-498.5" cy="-1393.1" rx="58.5" ry="8.9"/>
			<path id="Path-14" class="st27" d="M-555.2-1392.3h112.7c-10.7,11.8-29.5,17.8-56.4,17.8S-544.5-1380.4-555.2-1392.3z"/>
		</g>
	</g>
	<g id="right-arm" transform="translate(209.362245, 136.532663)">
		<g id="r-arm-joint">
			<path id="Path-17_1_" class="st4" d="M-553.5-1397.5c4,2.2,6.4,3.9,7.2,5.3c1.1,2.1,1.8,8.4,0,8.4c-1.8,0-5.1-0.4-7.2-2.7
				C-554.9-1388.1-554.9-1391.8-553.5-1397.5z"/>
			<ellipse id="Oval-2_1_" class="st4" cx="-554.1" cy="-1391.9" rx="2.9" ry="10.1"/>
		</g>
		<path id="r-arm" class="st6" d="M-539.5-1392.9c8.5,7.2,18,17,21.4,42c1.5,10.9,1.4,18.2-2.5,23.8c-3.8,5.6-15.7-29.6-24.7-44.1
			C-554.4-1385.8-548-1400.1-539.5-1392.9z"/>
	</g>
	<g id="right-leg" transform="translate(184.000000, 202.000000)">
		<g id="r-leg-joint">
			
				<ellipse id="Oval-25" transform="matrix(0.7771 -0.6293 0.6293 0.7771 754.0709 -652.7751)" class="st4" cx="-544.7" cy="-1391.1" rx="11.9" ry="3.6"/>
			<path id="Path-19" class="st4" d="M-547.6-1386.2l0.7,8.3c4.5-0.6,6.9-1.4,7.4-2.5c0.7-1.7,1.5-11.7,1.2-13.5
				C-538.5-1395-541.6-1392.5-547.6-1386.2z"/>
		</g>
		<path id="r-leg" class="st6" d="M-551.2-1376.5c1.6-7.7,13.9-16.4,20.3-9.5c6.4,6.9,3.4,58.2-6.2,66c-4.5,3.6-6-3.3-7.1-6.6
			C-545.4-1330-552.9-1368.8-551.2-1376.5z"/>
	</g>
	<g id="left-leg" transform="translate(88.000000, 204.000000)">
		<g id="l-leg-joint" transform="translate(8.798469, 0.798995)">
			<path id="Oval-25-Copy" class="st4" d="M-537.3-1386.4c-1.3,1.5-6.5-0.5-11.8-4.7c-5.2-4.1-8.4-8.7-7.1-10.3s6.5,0.5,11.8,4.7
				C-539.2-1392.6-536-1388-537.3-1386.4z"/>
			<path id="Path-19-Copy" class="st4" d="M-544.4-1389l-0.7,8.3c-4.6-0.6-7.1-1.4-7.5-2.5c-0.7-1.7-1.6-11.7-1.2-13.5
				C-553.7-1397.8-550.5-1395.3-544.4-1389z"/>
		</g>
		<path id="l-leg" class="st6" d="M-532-1378.5c-1.7-7.7-14.2-16.4-20.7-9.5c-6.5,6.9-3.5,58.2,6.3,66c4.6,3.6,6.1-3.3,7.3-6.6
			C-537.9-1332-530.3-1370.8-532-1378.5z"/>
	</g>
</g>
</svg>
