<?xml version="1.0" encoding="UTF-8"?>
<svg width="64px" height="64px" viewBox="0 0 64 64" version="1.1" xmlns="http://www.w3.org/2000/svg" xmlns:xlink="http://www.w3.org/1999/xlink">
    <!-- Generator: Sketch 51.3 (57544) - http://www.bohemiancoding.com/sketch -->
    <title>关于我们 (1)</title>
    <desc>Created with Sketch.</desc>
    <defs></defs>
    <g id="Page-1" stroke="none" stroke-width="1" fill="none" fill-rule="evenodd">
        <g id="understanding" transform="translate(-180.000000, -347.000000)" fill="#1652F0" fill-rule="nonzero">
            <g id="selection" transform="translate(120.000000, 298.000000)">
                <g id="Group" transform="translate(60.000000, 35.000000)">
                    <g id="关于我们-(1)" transform="translate(0.000000, 14.000000)">
                        <path d="M54.4396879,9.24070637 C55.4058663,10.1938786 55.4164099,11.7498198 54.4632377,12.7159983 C53.5100655,13.6821768 51.9541243,13.6927204 50.9879458,12.7395483 C41.6393006,3.52776927 27.0258938,2.35867238 16.3316133,9.96698392 C5.63733284,17.5752955 1.95013291,31.7641292 7.58725764,43.6164228 C13.2243824,55.4687164 26.5581222,61.5621415 39.2088039,58.0672466 C51.8594856,54.5723516 60.1742478,42.4982811 58.9276255,29.4330612 C58.8458936,28.559252 59.2365419,27.7082157 59.9524169,27.2005293 C60.668292,26.6928428 61.6006352,26.605636 62.3982421,26.9717588 C63.1958489,27.3378816 63.7375438,28.1017112 63.8192756,28.9755203 C65.287724,44.417318 55.456466,58.6841951 40.5038475,62.8102896 C25.551229,66.9363841 9.79463332,59.7303374 3.13611975,45.7207102 C-3.52239381,31.711083 0.83973801,14.9429817 13.4811815,5.95413509 C26.1226249,-3.03471155 43.3933198,-1.64888539 54.4396879,9.24070637 Z M35.8453618,45.4570842 C36.2221602,45.4570842 36.6460583,45.3830702 37.1237848,45.2384066 C37.6015113,45.0903786 37.9446669,44.9625363 38.1599803,44.8515154 L37.7461749,46.7220501 C36.5013947,47.267062 35.512299,47.6775031 34.7687951,47.9634661 C34.0286554,48.2460649 33.1640378,48.3907285 32.1850349,48.3907285 C30.6778415,48.3907285 29.5070752,47.9836517 28.6727359,47.1694982 C27.8394069,46.36211 27.3850361,45.24084 27.4212271,44.0810973 C27.4212271,43.5831852 27.4548698,43.0852731 27.5154267,42.5907253 C27.5793478,42.0860846 27.6769117,41.5141585 27.8182111,40.874947 L29.3725043,34.7990735 C29.5070752,34.2170546 29.6281889,33.6619499 29.7223885,33.1472164 C29.8165881,32.6257544 29.8603236,32.1480279 29.8603236,31.7174012 C29.8603236,30.9436189 29.71566,30.398607 29.4296969,30.0958226 C29.1370053,29.7896739 28.5852649,29.6382817 27.7643828,29.6382817 C27.3640345,29.6382817 26.9502292,29.7055671 26.526331,29.8435023 C26.1057971,29.9848016 25.7424559,30.1126439 25.4430357,30.2404862 L25.8568411,28.3665873 C26.8762152,27.9090464 27.8484895,27.518791 28.7837569,27.1890924 C29.7122957,26.8661224 30.5903704,26.7012731 31.4213454,26.7012731 C32.918446,26.7012731 34.0690267,27.1016214 34.8831803,27.8989536 C35.6906053,28.6962858 36.0976821,29.7324813 36.0976821,31.0109043 C36.0976821,31.2733175 36.070768,31.7409511 36.0135754,32.4037125 C35.959747,33.0732025 35.8554546,33.6821355 35.7040624,34.2372402 L34.1564977,40.2929281 C34.0286554,40.7773832 33.9142702,41.3358522 33.8133421,41.9582423 C33.712414,42.5806324 33.6619499,43.0549947 33.6619499,43.3712361 C33.6619499,44.1786612 33.8234349,44.7270374 34.1531335,45.019729 C34.4761035,45.3090563 35.041301,45.4570842 35.8453618,45.4570842 Z M34.8629947,15.6092715 C35.8790045,15.6092715 36.7469864,15.9827055 37.4703047,16.732938 C38.193623,17.4798062 38.5569643,18.3881593 38.5569643,19.4378119 C38.5569643,20.494193 38.193623,21.3890891 37.4703047,22.132593 C36.7503507,22.8760969 35.8790045,23.2461667 34.8629947,23.2461667 C33.8469848,23.2461667 32.9722743,22.8760969 32.2388632,22.1359573 C31.5258761,21.421059 31.1337057,20.4473108 31.1522037,19.4378119 C31.1522037,18.3881593 31.5189092,17.4798062 32.2422275,16.732938 C32.9722743,15.9827055 33.8469848,15.6092715 34.8629947,15.6092715 Z" id="Shape"></path>
                    </g>
                </g>
            </g>
        </g>
    </g>
</svg>