<?xml version="1.0" encoding="UTF-8"?>
<svg width="64px" height="66px" viewBox="0 0 64 66" version="1.1" xmlns="http://www.w3.org/2000/svg" xmlns:xlink="http://www.w3.org/1999/xlink">
    <!-- Generator: Sketch 51.3 (57544) - http://www.bohemiancoding.com/sketch -->
    <title>创始人</title>
    <desc>Created with Sketch.</desc>
    <defs></defs>
    <g id="Page-1" stroke="none" stroke-width="1" fill="none" fill-rule="evenodd">
        <g id="understanding" transform="translate(-180.000000, -510.000000)" fill="#1652F0" fill-rule="nonzero">
            <g id="selection" transform="translate(120.000000, 298.000000)">
                <g id="Group-2" transform="translate(60.000000, 212.000000)">
                    <g id="创始人">
                        <path d="M62.0867415,52.8747836 C60.8382599,49.3832767 59.0070369,46.2099288 56.6878906,43.3265096 C55.9383639,42.3946521 54.3679562,42.5500932 53.5926019,43.3265096 C53.182941,43.7381028 52.9524933,44.2952504 52.9515513,44.8763616 C52.9515513,45.5070685 53.2123666,45.9534904 53.5926019,46.4263014 C53.6580027,46.5076603 53.7221778,46.5897205 53.7871409,46.6716055 C53.8404596,46.7421808 53.9807168,46.9244493 54.0238796,46.9824 C54.2756772,47.3207233 54.5179316,47.6663233 54.7551081,48.0149918 C55.2042462,48.6754192 55.6218659,49.357063 56.0163721,50.0515068 C56.4124542,50.7490192 56.7752668,51.4652055 57.1133899,52.192526 C57.1927913,52.3644699 57.2705695,52.5371607 57.3467141,52.7105753 C57.3679891,52.7591452 57.3887387,52.8078904 57.4100137,52.8565479 C57.5712832,53.247474 57.7214337,53.6428712 57.8657182,54.0402849 C58.4242955,55.5788274 58.8424405,57.1668164 59.1379261,58.7763726 C59.1944843,59.085063 59.2434254,59.3951562 59.2893023,59.7055123 C59.3034856,59.8118575 59.3308892,60.013589 59.3387688,60.0817096 C59.3675732,60.326663 59.3915622,60.5722301 59.414238,60.8177973 C59.4296471,60.9841096 59.4416416,61.1506849 59.4538988,61.3172603 L4.45942544,61.3172603 C4.48008755,61.0303123 4.50381395,60.7434521 4.53253078,60.4569425 C4.55415595,60.2413589 4.57954583,60.0262137 4.60607387,59.8112438 C4.621658,59.7030575 4.6380301,59.5946959 4.65466484,59.4867726 C4.73337346,58.9752986 4.82862927,58.4664548 4.93404104,57.9598904 C5.13479617,56.9959452 5.38957045,56.0436603 5.6857565,55.1048767 C5.82671409,54.6580164 5.98106703,54.2154521 6.14321204,53.7761315 C6.22449104,53.5572984 6.3083125,53.3394206 6.39465937,53.1225425 C6.43221888,53.0280329 6.47074145,52.933874 6.50943912,52.8396274 L6.53255267,52.786411 C7.29845144,51.0184329 8.24759508,49.3321644 9.34102326,47.7470685 C9.55666211,47.4345205 9.78105609,47.1278466 10.0090397,46.8240658 C10.0894993,46.720789 10.2498933,46.5133589 10.306539,46.4428712 C10.4747681,46.2344192 10.645771,46.0282272 10.8195021,45.8243507 C11.4384022,45.0955397 12.0962627,44.4001315 12.782052,43.7339178 C13.4683666,43.0672658 14.190052,42.4379616 14.936777,41.8401315 C14.9762627,41.8086575 15.016186,41.7776219 15.0558468,41.746411 C15.0832503,41.7253699 15.1096033,41.7050301 15.1294774,41.6899507 C15.313103,41.5514215 15.4983451,41.4150541 15.6851655,41.2808767 C16.0899152,40.9889315 16.5035951,40.7094356 16.9222654,40.4382685 C17.730539,39.9146082 18.5669166,39.4353096 19.4219425,38.9926575 C19.8342216,38.7790904 20.2526293,38.5779726 20.674539,38.3840438 C20.7954473,38.3284603 20.9170561,38.2742795 21.0388399,38.2208 C21.0046074,38.2377205 21.5211601,38.0199452 21.6533625,37.9678685 C23.4858112,37.2450192 25.3927661,36.717589 27.3311518,36.3724274 C27.5673653,36.3304329 27.8043666,36.2925589 28.0417182,36.2561753 C28.10887,36.2460055 28.1760219,36.236537 28.2433488,36.2269808 C28.2627852,36.224526 28.2808208,36.2220712 28.2958796,36.2203178 C28.8181231,36.1553534 29.3423803,36.1073096 29.8672503,36.069874 C30.4134215,36.031482 30.9605789,36.0087658 31.5080492,36.0017534 C31.7829603,36.0078904 32.0578714,36.0077151 32.33287,36.0015781 C32.6373735,36.0054356 32.9417018,36.0132384 33.2459425,36.025337 C33.7247606,36.0444493 34.2028782,36.0786411 34.6802079,36.1206356 C34.9959076,36.1491757 35.3111324,36.1827581 35.625762,36.2213699 C35.6423092,36.223211 35.6572804,36.2251397 35.6711135,36.2268055 C36.6500246,36.3654137 37.6205308,36.5605699 38.5803557,36.7958795 C39.5282736,37.0283836 40.462446,37.3151562 41.3826977,37.6402411 C41.8151135,37.7929644 42.2428016,37.9592767 42.6677756,38.1318137 C42.672591,38.1336548 42.6766183,38.1354959 42.681171,38.137337 C42.782643,38.1813479 42.8841149,38.2254466 42.9854993,38.2703342 C43.2168528,38.3735971 43.4468975,38.4797754 43.6755787,38.5888438 C44.753948,39.0998795 46.02887,38.8988493 46.6702709,37.8025205 C47.2334008,36.8399781 46.9633051,35.3147616 45.8850233,34.803726 C44.508984,34.1512078 43.0903473,33.5928644 41.6388728,33.132537 C44.1464295,31.5187726 46.2490616,29.3082301 47.6999617,26.6598575 C49.1445581,24.0230575 49.8927715,21.0297863 49.9044159,18.0252932 C49.8874309,13.5816767 48.2343748,9.3586411 45.3153269,6.02774795 C42.4257839,2.73078356 38.3350369,0.736438356 34.0251491,0.187441096 C29.8057018,-0.350158904 25.3613352,0.750728767 21.8626101,3.1692274 C18.3021614,5.63024658 15.6808755,9.29455342 14.5835075,13.4951452 C13.4491929,17.837589 14.042528,22.4882849 16.1035732,26.4554959 C17.5379261,29.2164384 19.7055212,31.4732712 22.28487,33.1247342 C20.8353826,33.5853573 19.418639,34.143546 18.0443228,34.7954849 C10.6392339,38.304789 4.91994528,44.7701918 2.00457456,52.3921534 C0.655934337,55.9182904 0.00761696306,59.738126 -1.43464461e-14,63.5093918 C-0.00236388509,64.7041753 0.997559508,65.7011726 2.18878249,65.7011726 L61.7239289,65.7011726 C62.9149767,65.7011726 63.9156881,64.7041753 63.9127114,63.5093918 C63.9034309,59.9006685 63.3018659,56.2730959 62.0867415,52.8747836 Z M21.5419973,26.7491068 C21.4617127,26.6561753 21.1917921,26.3158356 21.1370725,26.2512219 C20.6228837,25.5527452 20.1713817,24.8088548 19.7773133,24.0363836 C19.6717264,23.8294795 19.5730561,23.6190685 19.4768372,23.4077808 C19.4649477,23.3814624 19.4532156,23.3550728 19.4416416,23.3286137 C19.4215923,23.2787288 19.4011053,23.2291068 19.3814063,23.1790466 C19.1947469,22.7055342 19.0366293,22.2211507 18.896985,21.7319452 C18.7665335,21.2749151 18.6619973,20.8107836 18.5735705,20.3439342 C18.5443871,20.1873413 18.5180008,20.0302386 18.4944241,19.8727014 C18.4884345,19.82719 18.482831,19.7816286 18.4776142,19.7360219 C18.4602908,19.5749394 18.4453763,19.4136063 18.4328755,19.2520767 C18.3511026,18.239211 18.3776306,17.2188932 18.4893461,16.2094466 C18.5030041,16.1199342 18.5168372,16.0304219 18.5318085,15.9409973 C18.5708564,15.705337 18.617959,15.4709918 18.6679508,15.2373479 C18.7748509,14.7360438 18.9119562,14.2415781 19.0673598,13.7532493 C19.138539,13.5296 19.2171601,13.3086685 19.2984077,13.088526 C19.330539,13.0012055 19.433762,12.7511671 19.483316,12.6293041 C19.6571429,12.2460175 19.8456344,11.8695709 20.0483721,11.5008 C20.2702271,11.0957589 20.5142326,10.7032548 20.7706703,10.3194301 C20.8984952,10.1278685 21.0327114,9.94086575 21.1687661,9.75509041 L21.177959,9.74255342 C21.2491782,9.65285238 21.3211773,9.56377502 21.393948,9.47533151 C22.0035677,8.73757808 22.6872558,8.06294795 23.4190971,7.44732055 C23.4966676,7.38218082 23.5757264,7.31853151 23.6546101,7.25505753 C23.8229433,7.12935703 23.9937006,7.00694486 24.1667852,6.88789041 C24.5780137,6.60366027 25.0055267,6.3436274 25.4417948,6.09990137 C25.8403283,5.87721644 26.2509439,5.67644932 26.6672503,5.4893589 C26.7505992,5.45578082 26.8341231,5.4226411 26.9179973,5.39020274 C27.1728591,5.2915726 27.4313981,5.20267397 27.6910752,5.11772055 C28.1399508,4.97060822 28.5970561,4.84918356 29.0572257,4.74336438 C29.2894118,4.69006027 29.5236115,4.6445589 29.7579863,4.60186301 C29.8807849,4.5800105 30.0038319,4.55958174 30.1271026,4.54058082 L30.1271902,4.54058082 C31.1403338,4.41933151 32.1652969,4.40793425 33.1822927,4.48245479 C33.3164213,4.4921863 33.4504624,4.5049863 33.5841532,4.5190137 C33.6405363,4.52856986 34.036881,4.58134795 34.1550752,4.60186301 C34.6619973,4.69032329 35.163316,4.80929315 35.6587688,4.94711233 C36.1110588,5.07292055 36.5559945,5.22415342 36.9951518,5.39020274 C37.079026,5.42193973 37.1621997,5.45560548 37.2453735,5.48909589 C37.4867524,5.59561644 37.7244542,5.71037808 37.9600547,5.82873425 C38.7280547,6.21448767 39.4592832,6.67090411 40.1529521,7.17808219 C40.2028564,7.22007671 40.4958906,7.44907397 40.5816908,7.52131507 C40.7574938,7.66912877 40.9283064,7.8226411 41.0974555,7.97781918 C41.4640328,8.3142137 41.8106484,8.67164932 42.1437811,9.04083288 C42.2976088,9.21126575 42.4458331,9.38678356 42.5922189,9.56387945 C42.63687,9.6179726 42.6802079,9.67303014 42.7238085,9.72791233 C42.7313379,9.73764384 42.7382544,9.74693699 42.7442955,9.75509041 C43.0424077,10.1556603 43.3170561,10.573326 43.5759453,11.0001973 C43.8160109,11.3961205 44.0341012,11.8050192 44.238446,12.2204055 C44.2971053,12.3396384 44.3532257,12.4600986 44.4081204,12.5810849 C44.3899973,12.5495233 44.605461,13.0635397 44.6551026,13.1982904 C44.9963776,14.124537 45.2391573,15.0856767 45.400777,16.0591781 C45.4086566,16.1077479 45.4159234,16.1563178 45.4232777,16.2049753 C45.4466539,16.4018849 45.4640766,16.5994082 45.4800109,16.7969315 C45.5129302,17.2052164 45.5254501,17.6149041 45.5269384,18.0244164 C45.5251979,18.5151461 45.502677,19.0055812 45.4594364,19.4944 C45.449368,19.6081096 45.4366731,19.7216438 45.4241532,19.8351781 C45.3863549,20.0838585 45.3429476,20.3316514 45.2939644,20.5783671 C45.1084432,21.5176767 44.8261778,22.4362959 44.4725581,23.3252822 C44.4288034,23.4235332 44.3842089,23.5214071 44.3387798,23.6188932 C44.2410725,23.8293041 44.1362736,24.0365589 44.0293735,24.2423233 C43.7985007,24.6866411 43.5418003,25.1171945 43.2697784,25.5373151 C43.14458,25.7307178 43.013078,25.9199123 42.8797373,26.1076164 C42.82458,26.1852055 42.7677592,26.2613918 42.7109384,26.3377534 C42.4095869,26.7165808 42.0875732,27.078663 41.7532148,27.4283836 C41.4359289,27.7603068 41.1007825,28.0746959 40.7559179,28.3776877 C40.5938593,28.5190219 40.4288769,28.6569587 40.261078,28.7914082 C40.1533183,28.8719213 40.0446307,28.9511814 39.9350369,29.0291726 C39.1508399,29.5882521 38.3103475,30.0661479 37.4379863,30.4725041 C37.3638304,30.5071342 37.2888865,30.5398356 37.2140301,30.5728877 C37.213432,30.5730835 37.2128471,30.5733178 37.2122791,30.573589 C36.9954145,30.6611726 36.7759234,30.7413918 36.5552941,30.8191562 C36.073762,30.989063 35.5825116,31.1296 35.0868837,31.2513753 C34.6509658,31.3585973 34.2095321,31.4416219 33.7660848,31.5103562 C33.6521806,31.5236822 33.5382763,31.5349041 33.4244596,31.5459507 C33.1410561,31.5733918 32.856777,31.589611 32.5724104,31.6017096 C32.0805472,31.6224877 31.5875458,31.6149479 31.0960328,31.5904 C30.8529029,31.5782137 30.6101231,31.5576986 30.3679562,31.5342904 C30.3098222,31.5286795 30.2518632,31.5214027 30.1938167,31.5148274 C30.1191354,31.5050959 30.0396389,31.4944 29.9941997,31.487211 C29.0202791,31.3327342 28.0642189,31.0752438 27.1371382,30.7405151 C27.0177757,30.6971084 26.8990438,30.6519823 26.7809795,30.6051507 C26.7919234,30.6058521 26.379119,30.4279671 26.2650397,30.373874 C25.8121368,30.1588164 25.3723666,29.9171945 24.9421395,29.6597918 C24.5466703,29.4233425 24.1645089,29.1651507 23.7912777,28.8949479 C23.7454008,28.8617205 23.7003119,28.8272658 23.6548728,28.7932493 C23.632985,28.7762411 23.6125855,28.7601096 23.5966512,28.7473096 C23.3879289,28.5793315 23.1852476,28.4039014 22.985368,28.2255781 C22.6426922,27.9201315 22.3168263,27.596011 22.0020793,27.2619836 C21.8440492,27.0950575 21.6919726,26.9228712 21.5419973,26.7491068 Z" id="Shape"></path>
                        <path d="M35.8686293,38.6708164 C35.4835787,38.3283726 35.0232339,37.9618192 34.4876826,37.5622137 L29.1965198,37.5622137 C28.6588673,37.9618192 28.2382709,38.330389 27.9307907,38.6708164 C27.6251491,38.9556603 27.3742271,39.2689096 27.183803,39.609074 C26.9915404,39.9514301 27.0102763,40.2628384 27.2400985,40.549874 C27.7073295,41.2406054 28.1670883,41.9363758 28.6192941,42.637063 C29.0040821,43.2355068 29.424591,43.7024438 29.8849357,44.0452384 C29.7324213,44.5574137 29.502249,45.2827178 29.1942435,46.2186959 C28.8816774,47.1775038 28.5936562,48.1441615 28.3304624,49.1177205 C28.0769706,50.0494334 27.8467556,50.9873404 27.6400328,51.9305644 C27.4472449,52.8115726 27.3512886,53.4793644 27.3512886,53.9342027 C27.3512886,54.2190466 27.525078,54.5614904 27.8699425,54.9588164 C28.2153324,55.3561425 28.6172804,55.7705644 29.0792886,56.1969096 C29.539896,56.6253589 30.0191518,56.9770082 30.5190698,57.2617644 C31.018725,57.5396822 31.4600711,57.6832877 31.8414446,57.6832877 C32.2264077,57.6832877 32.6842134,57.5396822 33.2218659,57.2572055 C33.7631396,56.9693269 34.2821345,56.6412798 34.7745007,56.2758137 C35.2724925,55.9072438 35.6951902,55.5100055 36.0382161,55.0812055 C36.3855321,54.6547726 36.5572202,54.3006685 36.5572202,54.0183671 C36.5572202,53.676274 36.4420027,53.094137 36.2118304,52.2706411 C35.9549862,51.3495253 35.7061269,50.4261956 35.4652804,49.5007562 C35.202967,48.4983904 34.9147976,47.5029888 34.6010616,46.5155507 C34.2953324,45.5510795 34.0273379,44.7822904 33.7953269,44.2152329 C34.2576854,43.9300384 34.6990315,43.5183342 35.1197155,42.9774027 C35.5407497,42.4364712 36.059316,41.7134466 36.6721751,40.8036822 C36.9023475,40.461326 36.9213461,40.1071342 36.7287332,39.7385644 C36.5360328,39.3693808 36.2535923,39.0102795 35.8686293,38.6708164" id="Shape"></path>
                    </g>
                </g>
            </g>
        </g>
    </g>
</svg>