<?xml version="1.0" encoding="UTF-8"?>
<svg width="64px" height="64px" viewBox="0 0 64 64" version="1.1" xmlns="http://www.w3.org/2000/svg" xmlns:xlink="http://www.w3.org/1999/xlink">
    <!-- Generator: Sketch 51.3 (57544) - http://www.bohemiancoding.com/sketch -->
    <title>历史</title>
    <desc>Created with Sketch.</desc>
    <defs></defs>
    <g id="Page-1" stroke="none" stroke-width="1" fill="none" fill-rule="evenodd">
        <g id="understanding" transform="translate(-180.000000, -676.000000)" fill="#1652F0" fill-rule="nonzero">
            <g id="selection" transform="translate(120.000000, 298.000000)">
                <g id="Group-3" transform="translate(60.000000, 378.000000)">
                    <g id="历史">
                        <path d="M63.565015,26.6911593 C61.1198667,13.7418851 51.20309,3.48989332 38.3422248,0.615767625 C25.355052,-1.86427457 12.140845,3.64319816 4.75920456,14.6126399 C4.98601573,13.3945262 4.64608598,12.1394009 3.83555312,11.2022345 C2.92066853,10.3300844 1.48213247,10.3300844 0.567247875,11.2022345 C0.140924919,11.8884852 -0.0502908457,12.694917 0.022530375,13.4995215 L0.022530375,20.8650499 C-0.0590204678,21.5591534 0.118041526,22.2589699 0.519881188,22.8307697 C1.14316507,23.3218643 1.93306751,23.5511909 2.72243469,23.4702207 L9.49587881,23.4702207 C10.4933919,23.6284094 11.5094548,23.3331433 12.2668333,22.6649861 C12.5643208,22.0868585 12.6110502,21.4118547 12.3960644,20.7982494 C12.1810786,20.1846441 11.7232866,19.6864069 11.1300314,19.4203643 C9.88992173,18.9743931 8.54341968,18.9165678 7.26964194,19.2545807 C12.4304762,9.77470824 22.5377098,4.05952705 33.3213501,4.52352387 C44.1750346,5.25649978 53.64395,12.1555441 57.6678556,22.2623688 C61.3532908,32.3981206 58.9044886,43.7491469 51.3680789,51.4639654 C43.603971,58.9649321 32.2465161,61.3907962 22.0954322,57.7163754 C12.0636993,53.7445164 5.18338441,44.3898636 4.38027063,33.6303869 C4.38027063,32.0199177 3.85923644,29.8884143 2.27245063,29.8173642 C1.32511581,29.8173642 0.709348125,30.4568152 0.354097563,31.3804667 C0.12717257,32.0597569 0.0151133076,32.7721337 0.022530375,33.4882868 L0.022530375,33.6540703 C0.0776435566,35.8830957 0.379473053,38.0991595 0.9224985,40.2617309 C1.48417149,42.4403761 2.27816879,44.5524089 3.29083556,46.5615076 C4.30198746,48.5672078 5.51619286,50.4639077 6.91439138,52.2218332 C8.31784467,53.9669225 9.90597634,55.5550542 11.6510656,56.9585075 C13.3575345,58.3122158 15.1987406,59.4867783 17.1456077,60.4636464 C19.0767837,61.4660845 21.1092255,62.2600071 23.2085507,62.8319835 C25.308562,63.3978291 27.4576405,63.7626174 29.6267443,63.9214186 C31.7908154,64.070688 33.9643123,64.0072282 36.1159879,63.7319516 C38.2740394,63.4725506 40.4004824,62.9964813 42.4631314,62.3109493 C44.5079871,61.6237575 46.4762844,60.7269123 48.3366074,59.6347284 C59.559067,52.7003351 65.5535711,39.732442 63.565015,26.6911592 Z" id="Shape"></path>
                        <path d="M29.7451611,21.5045009 C28.3952089,21.5045009 27.7083911,22.3807857 27.7083912,24.1333551 L27.7083912,36.0460908 C27.6093614,36.6451186 27.7827419,37.2570946 28.1812596,37.715161 C28.5797773,38.1732274 29.1618762,38.4296184 29.7688444,38.4144279 L42.5104981,38.4144279 C43.2073366,38.4131101 43.8574112,38.0636164 44.2428495,37.4830797 C44.6282878,36.9025429 44.698086,36.1677838 44.4288512,35.5250566 C43.9961906,34.6295429 43.0501255,34.0997464 42.0605141,34.1987879 L33.1318831,34.1987879 C32.2082316,34.1987879 31.9713979,33.9382708 31.9950813,33.0383027 L31.9950813,24.3228221 C31.9003478,22.4281524 31.1424799,21.4808176 29.7451611,21.5045009 Z" id="Shape"></path>
                    </g>
                </g>
            </g>
        </g>
    </g>
</svg>